<svg width="26" height="26" viewBox="0 0 26 26" fill="none" xmlns="http://www.w3.org/2000/svg">
<circle cx="13" cy="13" r="13" fill="url(#paint0_linear_417_5024)"/>
<path d="M7.95 12.8571C8.66703 12.8571 9.25 12.2806 9.25 11.5714C9.25 10.8623 8.66703 10.2857 7.95 10.2857C7.23297 10.2857 6.65 10.8623 6.65 11.5714C6.65 12.2806 7.23297 12.8571 7.95 12.8571ZM17.05 12.8571C17.767 12.8571 18.35 12.2806 18.35 11.5714C18.35 10.8623 17.767 10.2857 17.05 10.2857C16.333 10.2857 15.75 10.8623 15.75 11.5714C15.75 12.2806 16.333 12.8571 17.05 12.8571ZM17.7 13.5H16.4C16.0425 13.5 15.7195 13.6426 15.4839 13.8737C16.3025 14.3176 16.8834 15.1192 17.0094 16.0714H18.35C18.7095 16.0714 19 15.7842 19 15.4286V14.7857C19 14.0766 18.417 13.5 17.7 13.5ZM12.5 13.5C13.7573 13.5 14.775 12.4935 14.775 11.25C14.775 10.0065 13.7573 9 12.5 9C11.2427 9 10.225 10.0065 10.225 11.25C10.225 12.4935 11.2427 13.5 12.5 13.5ZM14.06 14.1429H13.8914C13.4689 14.3438 12.9997 14.4643 12.5 14.4643C12.0003 14.4643 11.5331 14.3438 11.1086 14.1429H10.94C9.64812 14.1429 8.6 15.1795 8.6 16.4571V17.0357C8.6 17.5681 9.03672 18 9.575 18H15.425C15.9633 18 16.4 17.5681 16.4 17.0357V16.4571C16.4 15.1795 15.3519 14.1429 14.06 14.1429ZM9.51609 13.8737C9.28047 13.6426 8.9575 13.5 8.6 13.5H7.3C6.58297 13.5 6 14.0766 6 14.7857V15.4286C6 15.7842 6.29047 16.0714 6.65 16.0714H7.98859C8.11656 15.1192 8.6975 14.3176 9.51609 13.8737Z" fill="white"/>
<defs>
<linearGradient id="paint0_linear_417_5024" x1="-2.85415e-07" y1="-10" x2="30" y2="30.5" gradientUnits="userSpaceOnUse">
<stop offset="0.0208333" stop-color="#EC590C"/>
<stop offset="0.932292" stop-color="#C027D2"/>
</linearGradient>
</defs>
</svg>
