<svg width="26" height="26" viewBox="0 0 26 26" fill="none" xmlns="http://www.w3.org/2000/svg">
<circle cx="13" cy="13" r="13" fill="url(#paint0_linear_417_5043)"/>
<path d="M20.566 5.60084C20.4731 5.1925 19.9535 5.04397 19.6564 5.34099L18.7284 6.26906C15.2574 3.1507 9.93033 3.24353 6.5893 6.56594C3.1369 10.0183 3.1369 15.6238 6.5893 19.0762C6.70065 19.1876 6.812 19.2804 6.90482 19.3918C7.09049 19.5588 7.31317 19.6331 7.53588 19.6331C7.79573 19.6331 8.05559 19.5218 8.24124 19.3176C8.59393 18.9277 8.55676 18.3338 8.16705 17.9812L7.9072 17.7398C5.21571 15.0299 5.21571 10.6123 7.92571 7.90235C10.5242 5.30384 14.6635 5.22949 17.392 7.60534L16.3711 8.62624C16.0741 8.92325 16.2226 9.44297 16.6309 9.53578L20.9743 10.5938C21.3641 10.6867 21.7353 10.334 21.6425 9.92563L20.566 5.60084Z" fill="white"/>
<path d="M15.9438 13.6749L13.7721 12.3013V8.83038C13.7721 8.31067 13.3452 7.88379 12.8255 7.88379C12.3058 7.88379 11.8789 8.31067 11.8789 8.83038V12.8025C11.8789 13.118 12.0459 13.4335 12.3244 13.6006L14.9229 15.2525C15.0714 15.3454 15.257 15.401 15.4241 15.401C15.7396 15.401 16.0366 15.2525 16.2222 14.9555C16.5192 14.5288 16.3892 13.9534 15.9437 13.6749L15.9438 13.6749Z" fill="white"/>
<path d="M11.0258 19.5219L10.6731 19.4105C10.172 19.2435 9.63375 19.5219 9.48522 20.0045C9.3182 20.5057 9.59657 21.0439 10.0792 21.1925C10.2278 21.2481 10.3763 21.2853 10.5248 21.3225C10.5989 21.341 10.6918 21.3596 10.7661 21.3596C11.1744 21.3596 11.5642 21.0812 11.6756 20.6543C11.824 20.1715 11.527 19.6517 11.0258 19.5219L11.0258 19.5219Z" fill="white"/>
<path d="M14.2368 19.6146L13.8656 19.6703C13.3458 19.7444 12.9932 20.2271 13.0675 20.7468C13.1417 21.2108 13.5501 21.5635 13.9956 21.5635C14.0327 21.5635 14.0884 21.5635 14.1441 21.545C14.2926 21.5265 14.4596 21.4894 14.6081 21.4708C15.1278 21.3595 15.4433 20.8768 15.3505 20.3571C15.2391 19.8559 14.738 19.5219 14.2367 19.6146L14.2368 19.6146Z" fill="white"/>
<path d="M17.1321 18.2781L16.8351 18.5008C16.4082 18.7978 16.3154 19.3917 16.6124 19.8187C16.7981 20.0786 17.095 20.227 17.392 20.227C17.5776 20.227 17.7632 20.1714 17.9302 20.06C18.0602 19.9672 18.19 19.8744 18.3014 19.7817C18.7097 19.4661 18.7839 18.8536 18.4499 18.4452C18.1529 18.0182 17.5403 17.9625 17.1321 18.2781L17.1321 18.2781Z" fill="white"/>
<defs>
<linearGradient id="paint0_linear_417_5043" x1="-3.5" y1="-10" x2="33.5" y2="31" gradientUnits="userSpaceOnUse">
<stop offset="0.0208333" stop-color="#EC590C"/>
<stop offset="0.932292" stop-color="#C027D2"/>
</linearGradient>
</defs>
</svg>
