<svg width="26" height="26" viewBox="0 0 26 26" fill="none" xmlns="http://www.w3.org/2000/svg">
<circle cx="13" cy="13" r="13" fill="url(#paint0_linear_505_765)"/>
<path d="M17.0728 9.47553C17.0728 7.56226 15.4283 6 13.4143 6C11.4003 6 9.75586 7.56223 9.75586 9.47553C9.75586 11.3888 11.4003 12.9511 13.4143 12.9511C15.4283 12.9512 17.0728 11.389 17.0728 9.47553ZM13.4143 12.2666C11.7883 12.2666 10.4765 11.0202 10.4765 9.47566C10.4765 7.93094 11.7883 6.68461 13.4143 6.68461C15.0403 6.68461 16.3521 7.93094 16.3521 9.47553C16.3521 11.0202 15.0403 12.2666 13.4143 12.2666Z" fill="white" stroke="white" stroke-width="0.4"/>
<path d="M13.5705 9.0184H13.2755C13.0499 9.0184 12.8591 8.81718 12.8765 8.56109C12.8938 8.34162 13.0847 8.19527 13.2929 8.19527H13.6399C13.7787 8.19527 13.8828 8.28676 13.9001 8.41474C13.9001 8.45137 13.9349 8.46961 13.9695 8.46961H14.3685C14.4206 8.46961 14.4553 8.43299 14.4553 8.37812C14.4206 7.95743 14.0909 7.6281 13.6918 7.60984V7.18914C13.6918 7.15252 13.6571 7.09766 13.6225 7.09766H13.2234C13.1887 7.09766 13.1367 7.13428 13.1367 7.18914V7.60984C12.6508 7.68295 12.2691 8.14026 12.3212 8.68906C12.3732 9.20125 12.807 9.58543 13.2928 9.58543H13.553C13.7786 9.58543 13.9695 9.78665 13.9521 10.0427C13.9347 10.2622 13.7439 10.4086 13.5356 10.4086H13.1886C13.0498 10.4086 12.9457 10.3171 12.9284 10.1891C12.9284 10.1525 12.8937 10.1342 12.859 10.1342H12.46C12.408 10.1342 12.3732 10.1708 12.3732 10.2257C12.408 10.6464 12.7376 10.9757 13.1367 10.994V11.4147C13.1367 11.4513 13.1714 11.4878 13.2235 11.4878H13.6225C13.6573 11.4878 13.6919 11.4512 13.6919 11.4147V10.994C14.1083 10.9209 14.4553 10.5733 14.5074 10.116C14.5595 9.53056 14.1083 9.01837 13.5705 9.01837L13.5705 9.0184Z" fill="white" stroke="white" stroke-width="0.4"/>
<path d="M20.8769 10.4527C20.4275 10.3101 19.8882 10.3992 19.5107 10.8446C19.4208 10.9515 19.349 11.0584 19.2951 11.2009C19.2411 11.3078 19.0973 11.6285 18.9356 11.9848L18.8636 12.0917L18.7558 12.0561C18.2164 11.8244 17.803 11.7889 17.4794 11.9313C17.1378 12.0916 16.8143 12.4123 16.5267 12.7686C16.3828 12.9289 16.2571 13.0892 16.1312 13.2497C16.1312 13.2497 15.7536 13.7307 15.6099 13.9088C15.3223 14.2474 15.0527 14.568 14.8729 14.8708C14.5134 15.4588 14.2078 17.0444 14.1539 18.1311C14.136 18.5053 14.1539 19.2002 14.1718 19.8059C14.1718 20.0553 14.1898 20.269 14.1898 20.4295C14.1898 20.7501 14.4594 20.9997 14.783 20.9997H17.3716C17.5333 20.9997 17.6951 20.9284 17.803 20.8214C17.803 20.8214 17.821 20.8037 17.821 20.7858C17.9109 20.6789 17.9648 20.5186 17.9648 20.376L17.8929 19.0399L17.9469 19.0042C18.7737 18.4341 19.5826 17.7393 20.0499 17.1871L20.0679 17.1693C20.751 16.3676 21.3262 14.586 21.8115 11.9136C21.9195 11.2721 21.524 10.6485 20.8769 10.4526L20.8769 10.4527ZM14.9088 20.287L14.8909 19.2537H17.1739L17.2278 20.287H14.9088ZM21.0926 11.7889C20.805 13.3922 20.5173 14.4969 20.2298 15.263C19.9602 16.029 19.7085 16.4744 19.4927 16.706C19.0613 17.2226 18.2704 17.8819 17.5153 18.4164C17.4793 18.4342 17.4434 18.4698 17.4254 18.4876L17.3894 18.5233H14.8728V18.3985V18.1491C14.9447 16.9732 15.2683 15.6015 15.502 15.2095C15.6459 14.9601 15.8975 14.6573 16.1671 14.3365C16.3289 14.1583 16.7243 13.6595 16.7243 13.6595C17.0479 13.2498 17.4614 12.7153 17.803 12.5549C17.9828 12.4837 18.3423 12.6262 18.4501 12.6797L18.558 12.7332L18.504 12.8578C18.3602 13.1607 18.2344 13.428 18.1625 13.5883C18.0007 13.9089 17.5153 14.5325 17.0659 15.0313L16.9941 15.1204C16.9222 15.1916 16.8862 15.2808 16.9042 15.3876C16.9042 15.4767 16.9581 15.5658 17.0301 15.637C17.1739 15.7618 17.4076 15.7618 17.5513 15.6193L17.6231 15.5302C18.0546 15.067 18.6119 14.3543 18.8275 13.9268C19.1331 13.3389 19.3309 12.8935 19.3848 12.7688C19.3848 12.7688 19.906 11.6464 19.9601 11.5218C20.1039 11.2011 20.3735 11.0764 20.6791 11.1655C20.9129 11.2188 21.1465 11.4504 21.0926 11.789L21.0926 11.7889Z" fill="white" stroke="white" stroke-width="0.4"/>
<path d="M11.9372 14.8635C11.7571 14.5611 11.4871 14.2409 11.1989 13.9031C11.0549 13.7252 10.6769 13.245 10.6769 13.245C10.5508 13.0849 10.4248 12.9069 10.2987 12.7469C10.0106 12.4089 9.68656 12.0889 9.34443 11.911C9.03836 11.7687 8.60619 11.8043 8.06601 12.0355L7.958 12.0889L7.90399 11.9822C7.74198 11.6086 7.57997 11.3063 7.54392 11.1996C7.48992 11.0573 7.39987 10.9506 7.3279 10.8439C6.94973 10.3992 6.40968 10.3103 5.95955 10.4526C5.2934 10.6482 4.89729 11.2708 5.02326 11.9111C5.50943 14.5967 6.10362 16.3576 6.76975 17.158L6.78771 17.1757C7.2558 17.727 8.06613 18.4207 8.89429 18.9899L8.9483 19.0255L8.85825 20.3771C8.85825 20.5194 8.89429 20.6794 9.0023 20.7861C9.0023 20.7861 9.02026 20.8039 9.02026 20.8217C9.12827 20.9463 9.29029 20.9997 9.45242 20.9997H12.0452C12.3692 20.9997 12.6393 20.7329 12.6393 20.4304C12.6393 20.2704 12.6393 20.0569 12.6573 19.8079C12.6753 19.2032 12.6933 18.4917 12.6753 18.1359C12.6033 17.0334 12.2972 15.4504 11.9371 14.8633L11.9372 14.8635ZM11.9192 20.2704H9.59664L9.65065 19.2388H11.9373L11.9192 20.2704ZM9.4345 18.5274L9.39845 18.4918C9.36241 18.4562 9.34445 18.4385 9.3084 18.4207C8.53425 17.8871 7.75997 17.2113 7.32779 16.7132C7.12972 16.4642 6.87766 16.0373 6.58955 15.2726C6.31952 14.5078 6.01332 13.3873 5.72534 11.8043C5.67133 11.4663 5.90544 11.2351 6.15749 11.164C6.46356 11.075 6.73372 11.1996 6.87763 11.5197C6.93163 11.6443 7.43575 12.7647 7.45385 12.7647C7.50786 12.8892 7.70592 13.3339 8.01198 13.9207C8.228 14.3297 8.80423 15.059 9.21831 15.5214L9.29028 15.6103C9.41638 15.7526 9.65035 15.7704 9.79442 15.6281C9.86639 15.557 9.90243 15.468 9.92052 15.3791C9.92052 15.2901 9.88447 15.1834 9.83047 15.1123L9.7585 15.0234C9.30837 14.5431 8.82221 13.9028 8.66019 13.5828C8.58823 13.4227 8.46213 13.1559 8.31807 12.8535L8.26419 12.7292L8.3722 12.6758C8.48021 12.6402 8.8403 12.4979 9.02038 12.5513C9.38045 12.7113 9.77659 13.2449 10.1007 13.654C10.1007 13.654 10.4969 14.152 10.6589 14.3299C10.9289 14.65 11.1809 14.9524 11.325 15.2014C11.5591 15.5927 11.8831 16.9623 11.9553 18.136V18.385V18.5096L9.4345 18.5274Z" fill="white" stroke="white" stroke-width="0.4"/>
<defs>
<linearGradient id="paint0_linear_505_765" x1="-3.5" y1="-10" x2="33.5" y2="31" gradientUnits="userSpaceOnUse">
<stop offset="0.0208333" stop-color="#EC590C"/>
<stop offset="0.932292" stop-color="#C027D2"/>
</linearGradient>
</defs>
</svg>
