<svg width="26" height="26" viewBox="0 0 26 26" fill="none" xmlns="http://www.w3.org/2000/svg">
<circle cx="13" cy="13" r="13" fill="url(#paint0_linear_505_764)"/>
<path d="M6.00012 20.2304C6.00012 20.3949 6.12603 20.5294 6.27994 20.5294H10.9508C11.1047 20.5294 11.2306 20.3949 11.2306 20.2304C11.2306 19.0912 10.587 18.1074 9.66901 17.6738C10.1335 17.321 10.4415 16.7408 10.4415 16.086C10.4415 15.0125 9.62427 14.1365 8.61682 14.1365C7.61207 14.1365 6.79485 15.0096 6.79485 16.086C6.79485 16.7409 7.09986 17.321 7.56734 17.6738C6.64364 18.1074 6 19.0882 6 20.2304H6.00012ZM7.3518 16.086C7.3518 15.3415 7.91987 14.7344 8.614 14.7344C9.3108 14.7344 9.87903 15.3414 9.87903 16.086C9.87903 16.8305 9.31095 17.4376 8.614 17.4376C7.9172 17.4376 7.3518 16.8306 7.3518 16.086ZM8.614 18.0356C9.65225 18.0356 10.5143 18.8638 10.6514 19.9313L6.57935 19.9315C6.71639 18.861 7.57567 18.0356 8.61391 18.0356L8.614 18.0356Z" fill="white" stroke="white" stroke-width="0.4"/>
<path d="M18.7902 17.6738C19.3067 17.321 19.649 16.7408 19.649 16.086C19.649 15.0125 18.7405 14.1365 17.6235 14.1365C16.5065 14.1365 15.595 15.0096 15.595 16.086C15.595 16.7409 15.9341 17.321 16.4538 17.6738C15.4333 18.1074 14.7178 19.0882 14.7178 20.2304C14.7178 20.3949 14.8578 20.5294 15.0289 20.5294H20.2185C20.3896 20.5294 20.5295 20.3949 20.5295 20.2304C20.5295 19.0882 19.814 18.1074 18.7904 17.6738H18.7902ZM16.2172 16.086C16.2172 15.3415 16.8487 14.7344 17.6235 14.7344C18.3982 14.7344 19.0267 15.3414 19.0267 16.086C19.0267 16.8305 18.3952 17.4376 17.6235 17.4376C16.8489 17.4376 16.2172 16.8306 16.2172 16.086ZM15.3585 19.9315C15.511 18.861 16.4693 18.0358 17.6235 18.0358C18.7777 18.0358 19.7361 18.864 19.8884 19.9315H15.3585Z" fill="white" stroke="white" stroke-width="0.4"/>
<path d="M14.154 12.1088C14.154 12.2651 14.2918 12.3929 14.4604 12.3929H16.1549C16.3234 12.3929 16.4613 12.2651 16.4613 12.1088L16.4614 9.23338C16.4614 7.44901 14.8955 6 12.9744 6C11.0532 6 9.4873 7.44916 9.4873 9.23338V12.1087C9.4873 12.265 9.62517 12.3928 9.79369 12.3928H11.4882C11.6568 12.3928 11.7946 12.265 11.7946 12.1087L11.7947 9.23326C11.7947 8.63094 12.3249 8.13931 12.9745 8.13931C13.6241 8.13931 14.1543 8.63091 14.1543 9.23326L14.154 12.1088ZM14.7669 11.8247V11.066H15.8485V11.8247H14.7669ZM10.0998 11.8247V11.066H11.1815V11.8247H10.0998ZM12.9742 7.57121C11.9844 7.57121 11.1815 8.31564 11.1815 9.23347V10.5007H10.0998V9.23347C10.0998 7.76434 11.3899 6.56813 12.9742 6.56813C14.5584 6.56813 15.8485 7.76434 15.8485 9.23335V10.5006H14.7668V9.23335C14.7668 8.31564 13.964 7.57121 12.9742 7.57121Z" fill="white" stroke="white" stroke-width="0.4"/>
<path d="M12.5011 16.3847C12.5431 16.4345 12.5918 16.4612 12.6403 16.4612C12.7044 16.4612 12.7685 16.4179 12.8105 16.3382L13.5044 15.0651C13.5509 14.9821 13.5663 14.869 13.5464 14.766C13.5266 14.6629 13.4757 14.5799 13.4072 14.5433L12.9343 14.2873L13.2459 13.4696C13.3056 13.31 13.2703 13.1073 13.1642 13.0176C13.0581 12.9279 12.9233 12.981 12.8637 13.1406L12.4217 14.304C12.3886 14.3904 12.3841 14.4935 12.4062 14.5832C12.4283 14.673 12.477 14.7495 12.5389 14.7794L12.9653 15.0088L12.4703 15.9196C12.3928 16.059 12.4061 16.2684 12.5011 16.3847L12.5011 16.3847Z" fill="white" stroke="white" stroke-width="0.4"/>
<defs>
<linearGradient id="paint0_linear_505_764" x1="13" y1="-7" x2="21" y2="26" gradientUnits="userSpaceOnUse">
<stop stop-color="#C027D2"/>
<stop offset="1" stop-color="#EC590C"/>
</linearGradient>
</defs>
</svg>
