<svg width="26" height="26" viewBox="0 0 26 26" fill="none" xmlns="http://www.w3.org/2000/svg">
<circle cx="13" cy="13" r="13" fill="url(#paint0_linear_417_5029)"/>
<path d="M18.6804 6C16.301 6 14.3604 7.86709 14.3604 10.1928C14.3604 11.2901 14.7991 12.3055 15.5248 13.0426L16.1491 12.7313C16.2503 12.6822 16.3516 12.6494 16.4528 12.6166C15.7609 12.027 15.3222 11.159 15.3222 10.1927C15.3222 8.3911 16.8241 6.93352 18.6634 6.93352C20.5198 6.93352 22.0216 8.39116 22.0216 10.1927C22.0216 11.896 20.6715 13.2882 18.9503 13.4192C19.0009 13.5011 19.0516 13.5666 19.1022 13.6485C19.2204 13.8614 19.2878 14.0907 19.3216 14.32C21.3973 14.0416 23.0004 12.2891 23.0004 10.1928C23.0004 7.86709 21.0598 6 18.6803 6L18.6804 6Z" fill="white"/>
<path d="M16.4563 13.6115L14.2204 14.7788C14.2204 14.7788 11.8522 13.1379 11.6037 12.9687C11.3554 12.7995 11.0737 12.6304 10.8917 12.5797C10.0967 12.326 8.07626 12.1399 7.49659 13.4931C6.90038 14.931 6.99972 18.6355 7.01637 21.2912C7.03289 21.5113 7.18203 21.6804 7.41387 21.6804H11.7198C11.9848 21.6804 12.0677 21.5282 12.1007 21.3251C12.1172 21.1898 12.3657 18.1788 12.3491 16.8593V16.4026L13.4752 17.1808C13.6739 17.3161 13.9057 17.3837 14.1376 17.3837C14.3197 17.3837 14.5019 17.333 14.6841 17.2484L17.5492 15.7598C18.1289 15.4553 18.3772 14.7279 18.0625 14.1189C17.7646 13.544 17.0524 13.2902 16.4562 13.6116L16.4563 13.6115Z" fill="white"/>
<path d="M12.7603 9.19959C12.7603 10.6135 11.5425 11.7596 10.0404 11.7596C8.53809 11.7596 7.32031 10.6135 7.32031 9.19959C7.32031 7.7858 8.53809 6.63965 10.0404 6.63965C11.5425 6.63965 12.7603 7.7858 12.7603 9.19959Z" fill="white"/>
<path d="M20.2877 9.01442C20.0963 8.82391 19.809 8.84119 19.6335 9.0317L18.0697 10.8502L17.3995 10.0709C17.224 9.86309 16.9368 9.86309 16.7453 10.0536C16.5538 10.2441 16.5538 10.5558 16.7293 10.7637L17.7347 11.924C17.8145 12.0279 17.9421 12.0799 18.0698 12.0799C18.1975 12.0799 18.3251 12.0279 18.405 11.924L20.3039 9.70726C20.4952 9.51675 20.4792 9.20496 20.2877 9.01445V9.01442Z" fill="white"/>
<defs>
<linearGradient id="paint0_linear_417_5029" x1="13" y1="-10" x2="34.5" y2="29" gradientUnits="userSpaceOnUse">
<stop offset="0.0208333" stop-color="#EC590C"/>
<stop offset="0.932292" stop-color="#C027D2"/>
</linearGradient>
</defs>
</svg>
