<svg width="29" height="29" viewBox="0 0 29 29" fill="none" xmlns="http://www.w3.org/2000/svg">
<path fill-rule="evenodd" clip-rule="evenodd" d="M2.07471 0.341192L14.5556 12.8083L27.0029 0.375809C27.4599 -0.0806101 28.2001 -0.080829 28.6573 0.37532C29.0565 0.773568 29.107 1.38898 28.8085 1.84222L28.6578 2.02684L16.2086 14.4589L28.574 26.8108C29.0283 27.2646 29.0287 28.0006 28.5749 28.4549C28.5745 28.4553 28.574 28.4558 28.5735 28.4563C28.118 28.9107 27.3805 28.9105 26.9253 28.4558L14.5629 16.1046L1.99706 28.6575C1.54013 29.114 0.799903 29.1142 0.342701 28.658C-0.0564669 28.2598 -0.107014 27.6444 0.191496 27.1911L0.342214 27.0065L12.9074 14.4541L0.42598 1.98612C-0.0282555 1.53239 -0.0286663 0.796341 0.425063 0.342107C0.425531 0.341638 0.426 0.34117 0.426469 0.340702C0.881979 -0.113759 1.61946 -0.113539 2.07471 0.341192Z" fill="#4F4C4C"/>
</svg>
