<svg width="38" height="38" viewBox="0 0 38 38" fill="none" xmlns="http://www.w3.org/2000/svg">
<path d="M14.9789 8.4337V18.4937C14.9789 19.1391 14.7226 19.7582 14.2661 20.2146C13.8097 20.671 13.1906 20.9274 12.5452 20.9274H7.43383C6.7884 20.9274 6.16929 20.671 5.71286 20.2146C5.25644 19.7582 5.00009 19.1391 5.00009 18.4937V8.4337C5.00009 7.78828 5.25645 7.16918 5.71286 6.71276C6.16927 6.25635 6.78841 6 7.43383 6H12.5452C13.1906 6 13.8097 6.25636 14.2661 6.71276C14.7226 7.16917 14.9789 7.78829 14.9789 8.4337V8.4337ZM12.5449 22.7775H7.43374C6.78831 22.7775 6.1692 23.0342 5.71277 23.4906C5.25636 23.947 5 24.5661 5 25.2115V30.5662C5 31.2116 5.25636 31.8307 5.71277 32.2871C6.16919 32.7435 6.78833 32.9999 7.43374 32.9999H12.5451C13.1905 32.9999 13.8096 32.7435 14.2661 32.2871C14.7225 31.8307 14.9788 31.2116 14.9788 30.5662V25.2115C14.9788 24.5661 14.7225 23.947 14.2661 23.4906C13.8096 23.0342 13.1905 22.7775 12.5451 22.7775H12.5449ZM29.5663 16.7902L19.2627 16.7905C18.6173 16.7905 17.9982 17.0469 17.5418 17.5033C17.0853 17.9597 16.829 18.5788 16.829 19.2242V30.5663C16.829 31.2117 17.0854 31.8308 17.5418 32.2872C17.9982 32.7436 18.6173 33 19.2627 33H29.5663C30.2117 33 30.8308 32.7436 31.2872 32.2872C31.7436 31.8308 32 31.2117 32 30.5663V19.2242C32 18.5788 31.7436 17.9597 31.2872 17.5033C30.8308 17.0469 30.2117 16.7905 29.5663 16.7905V16.7902ZM29.5663 6.00013L19.2627 6.00041C18.6173 6.00041 17.9982 6.25677 17.5418 6.71317C17.0853 7.16958 16.829 7.78871 16.829 8.43411V12.507C16.829 13.1524 17.0854 13.7715 17.5418 14.2279C17.9982 14.6843 18.6173 14.9407 19.2627 14.9407H29.5663C30.2117 14.9407 30.8308 14.6843 31.2872 14.2279C31.7436 13.7715 32 13.1524 32 12.507V8.43411C32 7.78869 31.7436 7.16959 31.2872 6.71317C30.8308 6.25677 30.2117 6.00041 29.5663 6.00041V6.00013Z" fill="#1C1B20"/>
</svg>
