<svg width="40" height="40" viewBox="0 0 40 40" fill="none" xmlns="http://www.w3.org/2000/svg">
<path d="M32.5101 4H7.48991C7.21945 4 7 4.23065 7 4.51551V36.4845C7 36.7691 7.2192 37 7.48991 37H32.5101C32.7805 37 33 36.7694 33 36.4845L32.9997 4.51481C32.9997 4.23023 32.7805 4 32.5101 4ZM32.0197 35.969H7.98001V5.03036H32.0203L32.0197 35.969ZM11.1792 22.6054H20.9145C21.185 22.6054 21.4044 22.3748 21.4044 22.0899L21.4042 17.964C21.4042 15.9764 19.8672 14.3592 17.9784 14.3592L14.115 14.359C12.2262 14.359 10.6892 15.9762 10.6892 17.9637V22.0899C10.6892 22.3748 10.9085 22.6054 11.1792 22.6054ZM11.6693 17.9639C11.6693 16.5448 12.7666 15.3905 14.1151 15.3905H17.9787C19.3274 15.3905 20.4244 16.5451 20.4244 17.9639V21.5744H19.017V18.5353C19.017 18.2507 18.7978 18.0197 18.5271 18.0197C18.2566 18.0197 18.0372 18.2504 18.0372 18.5353V21.5744L14.0569 21.5741V18.535C14.0569 18.2504 13.8377 18.0195 13.567 18.0195C13.2965 18.0195 13.077 18.2501 13.077 18.535V21.5741H11.6696L11.6693 17.9639ZM16.0211 14.1353C17.4035 14.1353 18.5279 12.6698 18.5279 10.8682C18.5279 9.16264 17.5689 8.06032 16.0847 8.06032C14.5715 8.06032 13.5146 9.21495 13.5146 10.8682C13.5146 12.6695 14.6389 14.1353 16.0211 14.1353ZM16.0847 9.09138C17.0146 9.09138 17.5483 9.73915 17.5483 10.8685C17.5483 12.1012 16.8633 13.1043 16.0216 13.1043C15.1799 13.1043 14.495 12.1015 14.495 10.8685C14.4945 9.55834 15.3159 9.09138 16.0847 9.09138ZM10.6893 32.7002C10.6893 32.4156 10.9085 32.1847 11.1792 32.1847H28.8207C29.0912 32.1847 29.3106 32.4153 29.3106 32.7002C29.3106 32.9848 29.0914 33.2157 28.8207 33.2157H11.1792C10.9085 33.2157 10.6893 32.9848 10.6893 32.7002ZM10.6893 29.0906C10.6893 28.806 10.9085 28.5751 11.1792 28.5751H28.8207C29.0912 28.5751 29.3106 28.8058 29.3106 29.0906C29.3106 29.3752 29.0914 29.6061 28.8207 29.6061H11.1792C10.9085 29.6061 10.6893 29.3755 10.6893 29.0906ZM10.6893 25.481C10.6893 25.1964 10.9085 24.9655 11.1792 24.9655H28.8207C29.0912 24.9655 29.3106 25.1962 29.3106 25.481C29.3106 25.7656 29.0914 25.9965 28.8207 25.9965H11.1792C10.9085 25.9971 10.6893 25.7661 10.6893 25.481ZM22.7708 21.8719C22.7708 21.5873 22.9899 21.3564 23.2607 21.3564H28.8207C29.0912 21.3564 29.3106 21.587 29.3106 21.8719C29.3106 22.1565 29.0914 22.3874 28.8207 22.3874H23.2604C22.9899 22.3874 22.7708 22.1565 22.7708 21.8719ZM22.7708 18.2623C22.7708 17.9777 22.9899 17.7468 23.2607 17.7468H28.8207C29.0912 17.7468 29.3106 17.9774 29.3106 18.2623C29.3106 18.5469 29.0914 18.7778 28.8207 18.7778H23.2604C22.9899 18.7778 22.7708 18.5469 22.7708 18.2623ZM22.7708 14.6527C22.7708 14.3681 22.9899 14.1372 23.2607 14.1372H28.8207C29.0912 14.1372 29.3106 14.3678 29.3106 14.6527C29.3106 14.9373 29.0914 15.1682 28.8207 15.1682H23.2604C22.9899 15.1685 22.7708 14.9378 22.7708 14.6527ZM22.7708 11.0431C22.7708 10.7585 22.9899 10.5276 23.2607 10.5276H28.8207C29.0912 10.5276 29.3106 10.7582 29.3106 11.0431C29.3106 11.3277 29.0914 11.5586 28.8207 11.5586H23.2604C22.9899 11.5591 22.7708 11.3282 22.7708 11.0431Z" fill="#9E9E9E" stroke="#9E9E9E" stroke-width="0.7"/>
</svg>
