<svg width="104" height="115" viewBox="0 0 104 115" fill="none" xmlns="http://www.w3.org/2000/svg">
<circle cx="5" cy="5" r="5" fill="white" fill-opacity="0.49"/>
<circle cx="27" cy="5" r="5" fill="white" fill-opacity="0.49"/>
<circle cx="51" cy="5" r="5" fill="white" fill-opacity="0.49"/>
<circle cx="74" cy="5" r="5" fill="white" fill-opacity="0.49"/>
<circle cx="99" cy="5" r="5" fill="white" fill-opacity="0.49"/>
<circle cx="5" cy="26" r="5" fill="white" fill-opacity="0.49"/>
<circle cx="27" cy="26" r="5" fill="white" fill-opacity="0.49"/>
<circle cx="51" cy="26" r="5" fill="white" fill-opacity="0.49"/>
<circle cx="74" cy="26" r="5" fill="white" fill-opacity="0.49"/>
<circle cx="99" cy="26" r="5" fill="white" fill-opacity="0.49"/>
<circle cx="5" cy="47" r="5" fill="white" fill-opacity="0.49"/>
<circle cx="27" cy="47" r="5" fill="white" fill-opacity="0.49"/>
<circle cx="51" cy="47" r="5" fill="white" fill-opacity="0.49"/>
<circle cx="74" cy="47" r="5" fill="white" fill-opacity="0.49"/>
<circle cx="99" cy="47" r="5" fill="white" fill-opacity="0.49"/>
<circle cx="5" cy="68" r="5" fill="white" fill-opacity="0.49"/>
<circle cx="27" cy="68" r="5" fill="white" fill-opacity="0.49"/>
<circle cx="51" cy="68" r="5" fill="white" fill-opacity="0.49"/>
<circle cx="74" cy="68" r="5" fill="white" fill-opacity="0.49"/>
<circle cx="99" cy="68" r="5" fill="white" fill-opacity="0.49"/>
<circle cx="5" cy="89" r="5" fill="white" fill-opacity="0.49"/>
<circle cx="27" cy="89" r="5" fill="white" fill-opacity="0.49"/>
<circle cx="51" cy="89" r="5" fill="white" fill-opacity="0.49"/>
<circle cx="74" cy="89" r="5" fill="white" fill-opacity="0.49"/>
<circle cx="99" cy="89" r="5" fill="white" fill-opacity="0.49"/>
<circle cx="5" cy="110" r="5" fill="white" fill-opacity="0.49"/>
<circle cx="27" cy="110" r="5" fill="white" fill-opacity="0.49"/>
<circle cx="51" cy="110" r="5" fill="white" fill-opacity="0.49"/>
<circle cx="74" cy="110" r="5" fill="white" fill-opacity="0.49"/>
<circle cx="99" cy="110" r="5" fill="white" fill-opacity="0.49"/>
</svg>
