<svg width="25" height="14" viewBox="0 0 25 14" fill="none" xmlns="http://www.w3.org/2000/svg">
<path d="M9.44053 6.78463H23.6326L17.6115 0.847565C17.5695 0.806185 17.5695 0.73924 17.6115 0.69786C17.6534 0.65648 17.7214 0.65648 17.7633 0.69786L23.9686 6.81426C23.9888 6.83417 24.0002 6.86087 24.0002 6.88911C24.0002 6.91722 23.9888 6.94405 23.9686 6.96396L17.7633 13.0804C17.7214 13.1217 17.6534 13.1216 17.6115 13.0802C17.5695 13.039 17.5695 12.9719 17.6115 12.9305L23.6326 6.99562H9.44053C9.38135 6.99562 9.3335 6.94831 9.3335 6.89012C9.3335 6.83193 9.38135 6.78463 9.44053 6.78463Z" fill="#636363" stroke="#636363"/>
<circle cx="0.66667" cy="7.11149" r="0.66667" fill="#636363"/>
<circle cx="3.77751" cy="7.11149" r="0.66667" fill="#636363"/>
<circle cx="6.88884" cy="7.11149" r="0.66667" fill="#636363"/>
</svg>
