<svg width="40" height="40" viewBox="0 0 40 40" fill="none" xmlns="http://www.w3.org/2000/svg">
<path d="M37.1876 23.1969C36.6532 22.3841 35.4632 21.9677 34.0144 22.8699C32.3902 23.8814 31.4722 24.4727 30.8016 24.9066C29.3088 25.8698 29.3088 25.8698 25.7698 27.7052L25.4294 27.8819C24.4485 28.3905 20.4773 29.4683 18.544 29.4278C18.506 29.4283 18.4734 29.4007 18.4676 29.3633C18.4623 29.3226 18.4863 29.2836 18.5252 29.2705L24.9626 26.3454C26.4454 25.6715 26.7942 24.4539 26.4844 23.5461C26.1792 22.6504 25.1267 21.8586 23.5422 22.2344H23.5424C22.6391 22.443 21.7556 22.7277 20.9008 23.0863C19.8481 23.5127 19.2121 23.7699 16.3402 23.6495C13.4594 23.5296 11.2717 24.3211 9.24565 26.2172C8.72143 26.7083 7.34251 27.2507 6.24729 27.6566L6.07407 27.2216H6.07432C5.92638 26.8519 5.6381 26.556 5.27242 26.3985C4.90676 26.2412 4.49357 26.2351 4.12334 26.382L2.94545 26.8519C2.57575 26.9996 2.27989 27.2881 2.12258 27.6538C1.96504 28.0194 1.95922 28.4326 2.10589 28.8026L5.23023 36.652C5.3774 37.0222 5.66569 37.3186 6.03161 37.4759C6.39752 37.6334 6.81097 37.639 7.18095 37.4915L8.35935 37.0225V37.0227C8.72881 36.8745 9.0244 36.5862 9.18197 36.2206C9.33926 35.8549 9.34532 35.442 9.19891 35.0717L8.98321 34.5298V34.5301C10.1669 33.9904 11.4599 33.7328 12.76 33.7778C13.3342 33.8455 13.8976 33.9854 14.4368 34.1945C15.8069 34.7043 17.2548 34.9736 18.7165 34.9906C20.7031 34.9906 23.2888 34.4914 26.7911 32.8563C26.8179 32.8436 26.8435 32.8284 26.8675 32.8107C27.2526 32.5349 27.9162 32.0574 28.7272 31.475C31.26 29.6525 35.0873 26.8979 36.5765 25.8616H36.5763C37.0128 25.591 37.3228 25.1571 37.4376 24.6567C37.5527 24.156 37.4624 23.6305 37.1875 23.1965L37.1876 23.1969ZM7.99829 36.1184L6.81989 36.5875C6.5488 36.6944 6.24206 36.5627 6.13309 36.2924L3.01031 28.4424C2.90309 28.171 3.03484 27.8643 3.30542 27.7553L4.48383 27.2862V27.2865C4.54553 27.2614 4.61153 27.2483 4.67829 27.2483C4.8945 27.2483 5.08871 27.38 5.16913 27.5806L8.29469 35.4332C8.40191 35.7042 8.26915 36.011 7.99832 36.1185L7.99829 36.1184ZM36.0197 25.0607C34.5247 26.1012 30.6933 28.8584 28.1587 30.6829C27.3732 31.2476 26.7269 31.7132 26.3372 31.9924C19.9186 34.9789 16.927 33.9911 14.7415 33.2696C14.1202 33.0291 13.4695 32.8729 12.8067 32.8048C11.3673 32.7522 9.93548 33.0332 8.62281 33.6257L6.60787 28.5628C8.06297 28.0214 9.29019 27.5116 9.91172 26.9295C11.7557 25.2031 13.6657 24.5135 16.3 24.6238C19.3826 24.7527 20.1321 24.4493 21.2665 23.9898V23.9901C22.0755 23.6499 22.9123 23.3801 23.7675 23.1834C24.7661 22.9464 25.3885 23.3535 25.5612 23.8623C25.7169 24.318 25.5478 25.0094 24.558 25.4593L18.1225 28.385C17.9045 28.4819 17.7257 28.6493 17.615 28.8607C17.5042 29.0719 17.4678 29.3141 17.5121 29.5485C17.5561 29.7855 17.6807 29.9999 17.8648 30.1557C18.0489 30.3115 18.2811 30.3987 18.522 30.403H18.6411C20.6657 30.403 24.6961 29.3581 25.8774 28.7454L26.2178 28.5687C29.7973 26.712 29.7973 26.712 31.329 25.7242C31.9968 25.2933 32.9112 24.7033 34.5287 23.6957C35.4828 23.1019 36.1178 23.3441 36.3729 23.7338L36.3732 23.7336C36.5059 23.9556 36.5434 24.2219 36.4768 24.4717C36.4103 24.7218 36.2455 24.9342 36.0199 25.0607L36.0197 25.0607Z" fill="#9E9E9E" stroke="#9E9E9E" stroke-width="0.7"/>
<path d="M20.8281 3C16.2242 3 12.4771 6.76394 12.4771 11.3886C12.4771 16.0132 16.2242 19.7772 20.8281 19.7772C25.4321 19.7772 29.1792 16.0132 29.1792 11.3886C29.1792 6.76394 25.4321 3 20.8281 3ZM20.8281 4.39797C24.6798 4.39797 27.7873 7.51947 27.7873 11.3885C27.7873 15.2574 24.6798 18.3789 20.8281 18.3789C16.9764 18.3789 13.8689 15.2574 13.8689 11.3885C13.8689 7.51947 16.9764 4.39797 20.8281 4.39797ZM17.6966 6.84458C17.3124 6.84458 17.0007 7.15763 17.0007 7.54357C17.0007 7.92976 17.3124 8.24255 17.6966 8.24255H21.1C21.4988 8.24255 22.1135 8.67604 22.4048 9.29119H17.6966C17.3124 9.29119 17.0007 9.60424 17.0007 9.99017C17.0007 10.3764 17.3124 10.6892 17.6966 10.6892H22.4048C22.1153 11.3089 21.5004 11.7378 21.1 11.7378C19.9521 11.7193 18.749 11.768 17.6204 11.7268C17.3568 11.7527 17.1092 11.9416 17.0332 12.1964C16.9616 12.4366 17.0157 12.7445 17.2072 12.9283L21.3827 17.1226C21.64 17.3883 22.0992 17.4025 22.3723 17.1226C22.6305 16.8578 22.6288 16.3841 22.3616 16.1285L19.3823 13.1358H21.1002C22.4111 13.1358 23.5864 12.0992 23.8839 10.6892H24.656C25.0403 10.6892 25.3519 10.3761 25.3519 9.99021C25.3519 9.60402 25.0403 9.29123 24.656 9.29123H23.8839C23.8026 8.91015 23.6662 8.55641 23.4708 8.24259H24.656C25.0402 8.24259 25.3519 7.92954 25.3519 7.5436C25.3519 7.15741 25.0402 6.84462 24.656 6.84462L17.6966 6.84458Z" fill="#9E9E9E"/>
</svg>
