<svg width="38" height="38" viewBox="0 0 38 38" fill="none" xmlns="http://www.w3.org/2000/svg">
<g clip-path="url(#clip0_463_764)">
<path d="M13.5202 22.5745C13.4 22.3686 13.2798 22.1624 13.167 21.9524C13.0363 21.7087 13.0639 21.6354 13.3301 21.5533C13.7843 21.4135 14.1896 21.1889 14.5635 20.905C14.8049 20.7216 14.9929 20.4966 15.1044 20.2174C15.3133 19.6986 14.9412 19.2221 14.3706 19.2763C14.1764 19.2947 13.9908 19.3496 13.8081 19.4191C13.3406 19.5964 12.8924 19.8207 12.4014 19.941C11.6055 20.136 10.8808 20.0446 10.3117 19.4177C9.66809 18.7087 9.62861 17.9142 10.0283 17.0783C10.1932 16.7337 10.1981 16.7361 9.92873 16.4706C9.83755 16.3806 9.74425 16.2933 9.65516 16.2013C9.45635 15.9971 9.45635 15.9289 9.65271 15.7254C9.71385 15.6624 9.77849 15.6024 9.84139 15.5407C10.2736 15.1176 10.2736 15.1176 10.7089 15.5386C11.0164 15.8362 11.0174 15.8376 11.3707 15.5863C11.6408 15.3944 11.9325 15.2438 12.2442 15.1262C12.4161 15.0611 12.5443 15.0989 12.6327 15.2567C12.7655 15.4923 12.9028 15.7247 13.0279 15.9637C13.1467 16.19 13.1159 16.2691 12.8665 16.354C12.3651 16.5241 11.9423 16.8036 11.5887 17.1881C11.4961 17.2893 11.4133 17.3954 11.3623 17.5225C11.1806 17.9752 11.4846 18.3733 11.979 18.3201C12.2288 18.2932 12.4685 18.2165 12.7019 18.1221C13.1055 17.9588 13.5073 17.7887 13.9286 17.6704C15.271 17.2941 16.5893 18.1255 16.72 19.4409C16.7671 19.9164 16.6609 20.3708 16.4181 20.7867C16.3126 20.968 16.3234 21.1057 16.4817 21.2468C16.6368 21.3856 16.7787 21.5379 16.9268 21.6838C17.0596 21.8137 17.0627 21.949 16.9352 22.0803C16.779 22.2405 16.6186 22.3969 16.4555 22.5503C16.3122 22.6846 16.1669 22.6717 16.0282 22.5394C15.9181 22.4344 15.8087 22.3294 15.6987 22.2241C15.4569 21.9923 15.4387 21.9899 15.1711 22.1798C14.829 22.4222 14.472 22.6393 14.0705 22.775C13.7567 22.882 13.6819 22.851 13.5202 22.5745L13.5202 22.5745ZM28.4558 13.6781C28.4247 14.4376 34.6785 22.0642 36.1809 23.8852C36.5436 23.7274 36.9824 23.7908 37.2797 24.0812L38.7112 25.4778C39.0963 25.8534 39.0963 26.4629 38.7112 26.8392L33.1862 32.2295C32.8011 32.6051 32.1764 32.6051 31.7907 32.2295L30.3592 30.8329C30.0573 30.5384 29.9955 30.1007 30.1674 29.7439L29.579 29.1699C28.0822 29.1371 26.6482 28.7339 25.5438 28.3163L20.7875 32.9576C19.363 34.3474 17.0455 34.3474 15.6213 32.958L0.507725 18.2149C-0.182686 17.5421 -0.562131 16.6469 -0.562846 15.6949C-0.562846 14.7429 -0.183052 13.8477 0.507009 13.1748L7.39985 6.44809C8.82435 5.05835 11.1419 5.05835 12.566 6.44775L18.0026 11.7507C20.3439 11.6321 24.9926 11.8543 25.4367 11.8001C27.3154 11.5714 28.4555 13.6777 28.4555 13.6777L28.4558 13.6781ZM23.7931 27.5293C23.5876 27.4202 23.4709 27.3514 23.4709 27.3514L16.3164 27.5804C13.7679 27.5116 13.4402 25.9228 13.4402 25.9228C13.5013 23.6901 18.8087 23.5469 18.8087 23.5469C18.8087 23.5469 25.0985 22.2168 24.0929 20.2255C24.0779 20.1962 24.0625 20.1693 24.0479 20.1399L11.2894 7.69453C10.5696 6.99233 9.39842 6.99267 8.67865 7.69487L1.78546 14.4213C1.43677 14.7614 1.24494 15.2138 1.24494 15.6948C1.24494 16.1757 1.43676 16.628 1.78581 16.9683L16.8985 31.7096C17.6183 32.4118 18.7895 32.4114 19.5092 31.7092L23.7931 27.5293ZM6.75196 12.5384C7.0154 12.2814 7.0154 11.8649 6.75196 11.6079C6.48851 11.3509 6.06155 11.3509 5.79811 11.6079C5.53467 11.8649 5.53467 12.2814 5.79811 12.5384C6.06156 12.7955 6.48852 12.7955 6.75196 12.5384ZM-0.443473 9.6196L-0.440328 9.46757C-0.402594 8.46815 0.00794588 7.48094 0.786416 6.71879C1.56767 5.95933 2.57953 5.55811 3.60394 5.52198L3.75978 5.51891C4.18953 5.51891 4.53823 5.17873 4.53823 4.75946C4.53823 4.34019 4.18953 4 3.75978 4L3.60394 4.00307C2.18158 4.0392 0.771031 4.58596 -0.312421 5.64605C-1.39873 6.70306 -1.95947 8.0792 -1.99686 9.46685L-2 9.61888C-2 10.0381 -1.65131 10.3783 -1.22155 10.3783C-0.79214 10.3787 -0.443446 10.0385 -0.443446 9.61956L-0.443473 9.6196ZM1.44955 7.36612C0.848583 7.94901 0.530946 8.70264 0.493915 9.46793L0.490771 9.61996C0.490771 10.0392 0.839464 10.3794 1.26922 10.3794C1.69898 10.3794 2.04767 10.0392 2.04767 9.61996C2.04767 9.56815 2.05361 9.46793 2.05361 9.46793C2.09135 9.09127 2.25312 8.72722 2.54835 8.43779C2.84394 8.14942 3.21745 7.99159 3.6039 7.95785C3.6039 7.95785 3.70662 7.94899 3.75973 7.94899C4.18949 7.94899 4.53818 7.6088 4.53818 7.18953C4.53818 6.77026 4.18949 6.43008 3.75973 6.43008L3.6039 6.43314C2.81951 6.46962 2.04773 6.77947 1.44952 7.36607L1.44955 7.36612Z" fill="#1C1B20"/>
</g>
<defs>
<clipPath id="clip0_463_764">
<rect width="38" height="38" fill="white"/>
</clipPath>
</defs>
</svg>
