<svg width="20" height="20" viewBox="0 0 20 20" fill="none" xmlns="http://www.w3.org/2000/svg">
<path fill-rule="evenodd" clip-rule="evenodd" d="M10 20C4.47714 20 0 15.5229 0 10C0 4.47714 4.47714 0 10 0C15.5229 0 20 4.47714 20 10C20 15.5229 15.5229 20 10 20ZM8.71804 11.5332L6.47614 9.29132C6.13839 8.95357 5.59096 8.95357 5.25321 9.29132C4.9156 9.62893 4.9156 10.1765 5.25321 10.5141L8.10672 13.3676C8.44433 13.7052 8.99189 13.7052 9.3295 13.3676L14.2209 8.47618C14.5585 8.13843 14.5585 7.591 14.2209 7.25325C13.8832 6.91564 13.3358 6.91564 12.998 7.25325L8.71804 11.5332Z" fill="#4CCC0F"/>
</svg>
