<svg width="110" height="110" viewBox="0 0 110 110" fill="none" xmlns="http://www.w3.org/2000/svg">
<g clip-path="url(#clip0_235_678)">
<path fill-rule="evenodd" clip-rule="evenodd" d="M38.6056 11.5677C38.5742 11.2352 38.5684 10.9085 38.5879 10.5878L37.2256 9.89537L37.5662 8.53407L39.1047 8.56928C39.2378 8.27198 39.3964 7.98838 39.5803 7.71846L38.7406 6.43344L39.7213 5.4242L41.0308 6.22807C41.2931 6.04031 41.573 5.87406 41.8705 5.72932L41.7883 4.19786L43.1448 3.81646L43.8729 5.16015C44.2018 5.12886 44.5287 5.12495 44.8536 5.14842L45.5465 3.78125L46.9089 4.12744L46.8678 5.65891C47.1653 5.79582 47.4511 5.95425 47.7251 6.13419L49.0111 5.30098L50.0153 6.28088L49.2167 7.58351C49.4046 7.84951 49.571 8.13116 49.7158 8.42845L51.2485 8.3463L51.6302 9.69587L50.2854 10.4293C50.3167 10.7579 50.3206 11.0826 50.2972 11.4034L51.6654 12.1016L51.3189 13.4629L49.7863 13.4218C49.6493 13.7191 49.4887 14.0027 49.3047 14.2727L50.1445 15.5577L49.1638 16.5669L47.8602 15.763C47.594 15.9547 47.3121 16.1229 47.0146 16.2677L47.0968 17.7991L45.7462 18.1805L45.0122 16.831C44.6833 16.8623 44.3564 16.8681 44.0315 16.8486L43.3386 18.2099L41.9762 17.8695L42.0173 16.3322C41.7198 16.1992 41.436 16.0408 41.1658 15.8569L39.8798 16.696L38.8698 15.7161L39.6684 14.4076C39.4805 14.1455 39.3141 13.8658 39.1693 13.5685L37.6366 13.6507L37.2549 12.2953L38.6056 11.5677ZM40.9662 11.9843C41.5064 13.903 43.5089 15.0237 45.4291 14.478C47.3552 13.9382 48.4709 11.9373 47.9248 10.0186C47.3845 8.09399 45.3821 6.97913 43.4619 7.51896C41.5358 8.06465 40.4201 10.0655 40.9662 11.9843Z" fill="black"/>
<path fill-rule="evenodd" clip-rule="evenodd" d="M43.3386 18.3446C43.3269 18.3446 43.3171 18.3427 43.3092 18.3388L41.9469 17.9926C41.8882 17.9809 41.8471 17.9222 41.8471 17.8635L41.8823 16.4142C41.6357 16.2968 41.3949 16.1619 41.1659 16.0152L39.9503 16.8014C39.8975 16.8367 39.827 16.8308 39.7859 16.7897L38.7759 15.8098C38.7348 15.7629 38.7289 15.6983 38.7583 15.6455L39.5158 14.4133C39.3572 14.1903 39.2163 13.9498 39.093 13.7033L37.6425 13.7796C37.5838 13.7796 37.531 13.7444 37.5134 13.6857L37.1317 12.3303C37.114 12.2716 37.1375 12.2129 37.1963 12.1836L38.4647 11.4912C38.4412 11.2154 38.4412 10.9338 38.4529 10.6639L37.161 10.0067C37.1082 9.98321 37.0788 9.91866 37.0964 9.85999L37.4429 8.49868C37.4546 8.44001 37.5134 8.39893 37.5721 8.39893L39.0225 8.44001C39.14 8.1877 39.275 7.94712 39.4218 7.71828L38.635 6.50367C38.5997 6.45086 38.6056 6.38632 38.6467 6.33938L39.6274 5.33601C39.6685 5.28906 39.7389 5.2832 39.7918 5.31254L41.0249 6.06947C41.2481 5.91691 41.4889 5.77608 41.7355 5.64699L41.6591 4.20354C41.6533 4.139 41.6944 4.08619 41.7531 4.06859L43.1037 3.68719C43.1624 3.66959 43.227 3.69892 43.2564 3.75173L43.9493 5.02502C44.2253 5.00155 44.5013 4.99568 44.7773 5.01328L45.4291 3.72239C45.4585 3.66959 45.5231 3.64025 45.5818 3.65198L46.9442 3.99818C47.0029 4.01578 47.044 4.06859 47.044 4.12726L47.0029 5.57658C47.2495 5.69393 47.4961 5.82889 47.7252 5.98145L48.9407 5.18931C48.9877 5.15411 49.0581 5.15998 49.0993 5.20692L50.1093 6.18682C50.1504 6.22789 50.1621 6.29244 50.1269 6.34525L49.3753 7.57746C49.5279 7.8063 49.6689 8.04101 49.7981 8.29332L51.2426 8.21117C51.3013 8.21117 51.3601 8.25224 51.3777 8.31092L51.7594 9.66048C51.777 9.71916 51.7476 9.78371 51.6948 9.81304L50.4205 10.4996C50.444 10.7812 50.4499 11.057 50.4323 11.3269L51.7241 11.9841C51.777 12.0134 51.8064 12.0721 51.7887 12.1308L51.4481 13.4921C51.4305 13.5508 51.3718 13.5918 51.319 13.5918L49.8685 13.5508C49.7511 13.8031 49.616 14.0436 49.4633 14.2725L50.2561 15.4871C50.2854 15.5399 50.2796 15.6044 50.2385 15.6514L49.2578 16.6548C49.2167 16.7017 49.1462 16.7076 49.0993 16.6782L47.8602 15.9213C47.6371 16.0739 47.4022 16.2205 47.1497 16.3438L47.226 17.7872C47.2319 17.8518 47.1908 17.9046 47.1321 17.9222L45.7814 18.3036C45.7227 18.3212 45.6581 18.2918 45.6288 18.239L44.9417 16.9657C44.6599 16.9892 44.3839 16.9951 44.1137 16.9833L43.456 18.2684C43.4326 18.3153 43.3856 18.3446 43.3386 18.3446ZM42.1113 17.7637L43.2681 18.0571L43.92 16.7838C43.9434 16.7369 43.9904 16.7134 44.0433 16.7134C44.3545 16.7369 44.6775 16.731 45.0004 16.7017C45.0533 16.6958 45.1003 16.7193 45.1296 16.7662L45.8108 18.0219L46.9618 17.6992L46.8854 16.2734C46.8796 16.2205 46.9089 16.1677 46.9559 16.1443C47.2495 16.0034 47.5255 15.8391 47.7839 15.6573C47.825 15.6279 47.8837 15.6279 47.9248 15.6514L49.1462 16.4024L49.9801 15.5458L49.1991 14.3429C49.1697 14.3018 49.1697 14.2431 49.1991 14.2021C49.3753 13.938 49.5338 13.6564 49.663 13.3689C49.6865 13.316 49.7393 13.2867 49.7863 13.2926L51.2191 13.3278L51.5127 12.166L50.2385 11.5205C50.1915 11.4971 50.1621 11.4501 50.168 11.3973C50.1915 11.0863 50.1856 10.7636 50.1504 10.4409C50.1445 10.3881 50.1739 10.3353 50.2209 10.3118L51.4775 9.63115L51.1545 8.48108L49.7217 8.55736C49.6689 8.55736 49.6219 8.52802 49.5984 8.48108C49.4575 8.19357 49.293 7.91778 49.111 7.65961C49.0816 7.61853 49.0758 7.55986 49.1051 7.51878L49.8509 6.29831L48.9936 5.46509L47.7956 6.2455C47.7486 6.27483 47.6958 6.27483 47.6488 6.2455C47.3846 6.06947 47.1086 5.91104 46.815 5.77608C46.768 5.75848 46.7386 5.70567 46.7386 5.65873L46.7797 4.22702L45.617 3.93363L44.9711 5.20692C44.9476 5.25386 44.8947 5.2832 44.8419 5.27733C44.5307 5.25386 44.2077 5.25973 43.8847 5.28906C43.8377 5.29493 43.7849 5.27146 43.7614 5.22452L43.0744 3.96884L41.9234 4.29156L41.9997 5.72327C42.0056 5.77021 41.9762 5.82302 41.9293 5.84649C41.6357 5.98732 41.3597 6.15161 41.1072 6.33351C41.0661 6.36285 41.0073 6.36285 40.9604 6.33938L39.7448 5.59418L38.9109 6.45086L39.692 7.64787C39.7213 7.68895 39.7154 7.74762 39.6861 7.79456C39.5099 8.05274 39.3514 8.33439 39.2222 8.62777C39.1987 8.67471 39.1517 8.70405 39.0989 8.70405L37.6719 8.66298L37.3724 9.82478L38.6467 10.4702C38.6937 10.4937 38.723 10.5406 38.723 10.5934C38.6995 10.9103 38.7054 11.233 38.7348 11.5499C38.7407 11.6027 38.7113 11.6555 38.6702 11.679L37.4077 12.3596L37.7365 13.5097L39.1635 13.4334C39.2163 13.4334 39.2633 13.4627 39.2868 13.5097C39.4277 13.7972 39.5921 14.0788 39.78 14.3312C39.8094 14.3722 39.8094 14.4309 39.78 14.4778L39.0343 15.6925L39.8916 16.5257L41.0954 15.7453C41.1365 15.7159 41.1952 15.7159 41.2363 15.7453C41.5006 15.9272 41.7825 16.0797 42.0702 16.2147C42.1172 16.2382 42.1524 16.2851 42.1465 16.3379L42.1113 17.7637ZM44.4426 14.7419C43.8084 14.7419 43.1859 14.5776 42.6163 14.2607C41.7414 13.7737 41.113 12.9757 40.837 12.0134C40.5669 11.0511 40.6844 10.036 41.1718 9.16173C41.665 8.29332 42.4636 7.65961 43.4267 7.38969C44.3897 7.11391 45.3998 7.23713 46.2747 7.72415C47.1497 8.21117 47.7839 9.00917 48.054 9.97147C48.3241 10.9338 48.2067 11.9489 47.7193 12.8232C47.2319 13.6916 46.4274 14.3253 45.4644 14.5952C45.1296 14.695 44.7832 14.7419 44.4426 14.7419ZM43.4972 7.642C42.5987 7.89431 41.8588 8.48108 41.4008 9.29082C40.9486 10.1064 40.837 11.0453 41.0895 11.943C41.342 12.8349 41.9293 13.5801 42.7455 14.0319C43.5559 14.4896 44.5013 14.6011 45.3939 14.3488C46.2923 14.0906 47.0381 13.5038 47.4903 12.6941C47.9424 11.8785 48.054 10.9396 47.8015 10.0419C47.549 9.15 46.9618 8.4048 46.1455 7.95299C45.3352 7.49531 44.3956 7.38383 43.4972 7.642Z" fill="black"/>
<path fill-rule="evenodd" clip-rule="evenodd" d="M17.2073 25.263C17.1486 24.6997 17.1427 24.1364 17.178 23.5848L14.8408 22.3996L15.428 20.0701L18.0588 20.1405C18.2878 19.63 18.5638 19.143 18.875 18.6795L17.4422 16.4791L19.1158 14.754L21.3531 16.127C21.8053 15.8043 22.2868 15.5168 22.7977 15.2703L22.6568 12.6533L24.9704 11.9962L26.2212 14.3022C26.7849 14.2494 27.3487 14.2376 27.9006 14.2787L29.0868 11.9434L31.4181 12.5301L31.3476 15.153C31.8585 15.3877 32.3459 15.6576 32.8098 15.9686L35.0119 14.5369L36.7325 16.215L35.3642 18.4506C35.6872 18.9024 35.975 19.3836 36.2216 19.8882L38.8406 19.7474L39.4983 22.0592L37.1905 23.3149C37.2434 23.8782 37.2551 24.4356 37.214 24.9872L39.5511 26.1783L38.9639 28.5078L36.339 28.4374C36.1041 28.942 35.834 29.4349 35.5169 29.8985L36.9556 32.0988L35.2762 33.8181L33.0388 32.4509C32.5867 32.7677 32.1052 33.0553 31.6001 33.3017L31.7411 35.9246L29.4274 36.5759L28.1708 34.2699C27.607 34.3286 27.0492 34.3344 26.4972 34.2992L25.3051 36.6345L22.9739 36.0419L23.0443 33.4191C22.5334 33.1902 22.046 32.9144 21.5821 32.6035L19.3801 34.0352L17.6595 32.3629L19.0277 30.1273C18.7047 29.6755 18.4229 29.1943 18.1762 28.6838L15.5514 28.8247L14.8995 26.5128L17.2073 25.263ZM21.2357 25.973C22.1694 29.2589 25.5929 31.1717 28.8813 30.2446C32.1698 29.3117 34.0841 25.8967 33.1563 22.6049C32.2226 19.319 28.805 17.4062 25.5107 18.3391C22.2222 19.2662 20.3079 22.6871 21.2357 25.973Z" fill="white"/>
<path fill-rule="evenodd" clip-rule="evenodd" d="M25.305 36.7636C25.2972 36.7636 25.2874 36.7636 25.2757 36.7636L22.9444 36.1709C22.8857 36.1533 22.8446 36.1005 22.8446 36.0418L22.9092 33.5011C22.4511 33.2899 22.0049 33.0376 21.5821 32.7618L19.4563 34.1466C19.4035 34.1818 19.333 34.1701 19.2919 34.129L17.5655 32.4567C17.5244 32.4097 17.5126 32.3452 17.5478 32.2924L18.875 30.1331C18.5872 29.7224 18.323 29.2823 18.094 28.8187L15.5572 28.9537C15.4984 28.9596 15.4397 28.9185 15.428 28.8598L14.7703 26.5479C14.7527 26.4893 14.782 26.4306 14.8349 26.4012L17.0663 25.1866C17.0193 24.6762 17.0135 24.1657 17.0428 23.6669L14.782 22.5168C14.7292 22.4875 14.6998 22.4288 14.7116 22.3702L15.3046 20.0407C15.3164 19.9761 15.3692 19.9351 15.4338 19.9409L17.9765 20.0055C18.1879 19.5478 18.4404 19.1019 18.7164 18.6794L17.3306 16.5494C17.2953 16.4966 17.3012 16.4321 17.3482 16.3851L19.0218 14.6659C19.0687 14.6189 19.1333 14.6131 19.1862 14.6424L21.3472 15.9685C21.7582 15.681 22.1986 15.4228 22.6625 15.194L22.5216 12.6591C22.5216 12.5946 22.5627 12.5418 22.6214 12.5242L24.9351 11.8729C24.9938 11.8553 25.0525 11.8787 25.0819 11.9374L26.2975 14.1671C26.8083 14.1202 27.3192 14.1143 27.8184 14.1437L28.9693 11.8787C28.9987 11.8259 29.0574 11.7966 29.1161 11.8142L31.4474 12.4068C31.5061 12.4186 31.5472 12.4714 31.5472 12.5359L31.4826 15.0708C31.9407 15.2879 32.387 15.5343 32.8098 15.816L34.9414 14.4312C34.9942 14.396 35.0588 14.4018 35.0999 14.4429L36.8264 16.1211C36.8675 16.1621 36.8792 16.2326 36.844 16.2854L35.5227 18.4447C35.8105 18.8554 36.0688 19.2955 36.2979 19.7532L38.8347 19.6182C38.8934 19.6123 38.9521 19.6534 38.9697 19.7121L39.6215 22.024C39.6391 22.0826 39.6157 22.1472 39.5569 22.1765L37.3255 23.3853C37.3725 23.9016 37.3783 24.4121 37.349 24.9109L39.6098 26.0609C39.6685 26.0844 39.6979 26.1489 39.6803 26.2076L39.0872 28.5371C39.0754 28.5958 39.0167 28.6368 38.958 28.6368L36.4212 28.5664C36.2039 29.03 35.9573 29.4759 35.6754 29.8984L37.0612 32.0225C37.0965 32.0753 37.0906 32.1457 37.0495 32.1868L35.37 33.9119C35.3289 33.953 35.2585 33.9647 35.2056 33.9295L33.0446 32.6034C32.6336 32.8909 32.1932 33.1549 31.7351 33.3838L31.8702 35.9186C31.8702 35.9773 31.835 36.036 31.7762 36.0477L29.4626 36.7049C29.4039 36.7225 29.3393 36.6932 29.3099 36.6403L28.1002 34.4106C27.5835 34.4576 27.0726 34.4634 26.5734 34.4341L25.4225 36.6932C25.399 36.7401 25.3579 36.7636 25.305 36.7636V36.7636ZM23.1088 35.9421L25.2405 36.4819L26.3797 34.2405C26.4032 34.1935 26.4501 34.1642 26.503 34.1642C27.0491 34.2053 27.6011 34.1935 28.1589 34.1407C28.2118 34.1348 28.2588 34.1642 28.2881 34.2111L29.4919 36.4232L31.6001 35.8247L31.465 33.3075C31.465 33.2547 31.4944 33.2078 31.5413 33.1843C32.0405 32.9437 32.522 32.6562 32.9624 32.3393C33.0035 32.31 33.0623 32.31 33.1092 32.3393L35.2526 33.6537L36.7852 32.0812L35.4111 29.9688C35.3818 29.9219 35.3818 29.869 35.4111 29.8221C35.7165 29.3644 35.9925 28.8833 36.2156 28.3845C36.2391 28.3317 36.2861 28.3024 36.339 28.3082L38.864 28.3728L39.3984 26.2428L37.1552 25.1045C37.1082 25.081 37.0789 25.0341 37.0847 24.9813C37.12 24.4356 37.1141 23.884 37.0554 23.3266C37.0554 23.2738 37.0789 23.2268 37.1258 23.1975L39.3397 21.9946L38.7466 19.8823L36.2274 20.0231C36.1745 20.0231 36.1276 19.9937 36.1041 19.9468C35.8574 19.4422 35.5756 18.9669 35.2585 18.5268C35.2291 18.4858 35.2232 18.4271 35.2526 18.3801L36.568 16.2326L34.9942 14.707L32.8802 16.08C32.8391 16.1093 32.7804 16.1093 32.7393 16.08C32.2813 15.7749 31.7939 15.4991 31.2947 15.2761C31.2477 15.2527 31.2184 15.2057 31.2184 15.1529L31.283 12.6298L29.1572 12.09L28.0121 14.3373C27.9887 14.3842 27.9417 14.4136 27.8888 14.4077C27.3486 14.3725 26.7907 14.3784 26.2329 14.4312C26.1859 14.4371 26.133 14.4136 26.1095 14.3666L24.9057 12.1487L22.7917 12.7472L22.9268 15.2644C22.9268 15.3172 22.8974 15.3641 22.8505 15.3876C22.3513 15.6341 21.8698 15.9157 21.4294 16.2326C21.3883 16.2619 21.3296 16.2678 21.2884 16.2384L19.1392 14.9241L17.6066 16.4966L18.9865 18.609C19.01 18.65 19.01 18.7087 18.9807 18.7498C18.6753 19.2075 18.4052 19.6945 18.1762 20.1932C18.1527 20.2402 18.1057 20.2695 18.0529 20.2695L15.5337 20.205L14.9934 22.3291L17.2366 23.4674C17.2836 23.4967 17.313 23.5437 17.3071 23.5965C17.2718 24.1363 17.2836 24.6938 17.3364 25.2453C17.3423 25.2981 17.313 25.3509 17.266 25.3744L15.0521 26.5773L15.6511 28.6896L18.1644 28.5547C18.2231 28.5488 18.2701 28.5782 18.2936 28.631C18.5344 29.1297 18.8221 29.6109 19.1333 30.0509C19.1686 30.092 19.1686 30.1507 19.1392 30.1918L17.8238 32.3393L19.3976 33.8708L21.5116 32.4919C21.5586 32.4626 21.6114 32.4684 21.6584 32.4978C22.1106 32.8029 22.598 33.0728 23.0971 33.3016C23.1441 33.3251 23.1793 33.372 23.1734 33.4249L23.1088 35.9421ZM27.2018 30.6025C24.4418 30.6025 21.8992 28.7835 21.1123 26.0022C20.1669 22.6518 22.1223 19.1547 25.4812 18.2041C27.1019 17.7464 28.8108 17.9459 30.2847 18.7733C31.7586 19.5947 32.8215 20.9443 33.2795 22.5638C33.7434 24.1891 33.5379 25.8966 32.7158 27.3694C31.8937 28.8422 30.5431 29.9043 28.9165 30.3619C28.3469 30.5262 27.7655 30.6025 27.2018 30.6025V30.6025ZM27.2076 18.2276C26.6557 18.2276 26.0978 18.3039 25.5517 18.4564C22.3337 19.3659 20.4546 22.7163 21.3648 25.9318C22.275 29.1473 25.6339 31.0191 28.846 30.1096C30.4021 29.6695 31.6999 28.6544 32.4868 27.2403C33.2795 25.8262 33.4733 24.195 33.0329 22.6342C32.5925 21.0793 31.5707 19.7884 30.1555 18.9962C29.2394 18.4858 28.2294 18.2276 27.2076 18.2276V18.2276Z" fill="black"/>
<path d="M104.48 3.04177V32.8672C104.48 33.9234 103.623 34.78 102.566 34.78H75.5125C74.4555 34.78 73.604 33.9234 73.604 32.8672V3.04177C73.604 1.98559 74.4555 1.12891 75.5125 1.12891H102.566C103.623 1.12891 104.48 1.98559 104.48 3.04177Z" fill="white"/>
<path fill-rule="evenodd" clip-rule="evenodd" d="M102.566 34.9093H75.5128C74.3853 34.9093 73.4692 33.994 73.4692 32.8674V3.04195C73.4692 1.91536 74.3853 1 75.5128 1H102.566C103.694 1 104.61 1.91536 104.61 3.04195V32.8674C104.61 33.994 103.694 34.9093 102.566 34.9093ZM75.5128 1.26405C74.5321 1.26405 73.7335 2.06205 73.7335 3.04195V32.8674C73.7335 33.8473 74.5321 34.6453 75.5128 34.6453H102.566C103.553 34.6453 104.351 33.8473 104.351 32.8674V3.04195C104.351 2.06205 103.553 1.26405 102.566 1.26405H75.5128Z" fill="black"/>
<path d="M102.983 4.39735H75.1194C75.049 4.39735 74.9902 4.33867 74.9902 4.26239C74.9902 4.19198 75.049 4.1333 75.1194 4.1333H102.983C103.059 4.1333 103.118 4.19198 103.118 4.26239C103.118 4.33867 103.059 4.39735 102.983 4.39735Z" fill="black"/>
<path d="M76.0998 2.60177C76.0998 2.87168 75.8825 3.08879 75.6124 3.08879C75.3423 3.08879 75.1191 2.87168 75.1191 2.60177C75.1191 2.33186 75.3423 2.10889 75.6124 2.10889C75.8825 2.10889 76.0998 2.33186 76.0998 2.60177V2.60177Z" fill="black"/>
<path d="M78.0612 2.60177C78.0612 2.87168 77.844 3.08879 77.5738 3.08879C77.3037 3.08879 77.0806 2.87168 77.0806 2.60177C77.0806 2.33186 77.3037 2.10889 77.5738 2.10889C77.844 2.10889 78.0612 2.33186 78.0612 2.60177V2.60177Z" fill="black"/>
<path d="M80.0227 2.60177C80.0227 2.87168 79.8054 3.08879 79.5353 3.08879C79.2593 3.08879 79.042 2.87168 79.042 2.60177C79.042 2.33186 79.2593 2.10889 79.5353 2.10889C79.8054 2.10889 80.0227 2.33186 80.0227 2.60177V2.60177Z" fill="black"/>
<path d="M102.983 2.73084H100.223C100.152 2.73084 100.094 2.67217 100.094 2.60175C100.094 2.52547 100.152 2.4668 100.223 2.4668H102.983C103.059 2.4668 103.118 2.52547 103.118 2.60175C103.118 2.67217 103.059 2.73084 102.983 2.73084Z" fill="black"/>
<path d="M98.9838 2.73084H87.5447C87.4743 2.73084 87.4155 2.67217 87.4155 2.60175C87.4155 2.52547 87.4743 2.4668 87.5447 2.4668H98.9838C99.0543 2.4668 99.113 2.52547 99.113 2.60175C99.113 2.67217 99.0543 2.73084 98.9838 2.73084Z" fill="black"/>
<path d="M84.5383 2.73084H82.1072C82.0309 2.73084 81.9722 2.67217 81.9722 2.60175C81.9722 2.52547 82.0309 2.4668 82.1072 2.4668H84.5383C84.6147 2.4668 84.6734 2.52547 84.6734 2.60175C84.6734 2.67217 84.6147 2.73084 84.5383 2.73084Z" fill="black"/>
<path d="M76.3232 14.3547C78.5488 9.75443 83.4345 6.6387 88.9661 6.62109L88.8311 14.2315C86.905 14.431 85.249 15.5341 84.3564 17.089L76.3232 14.3547Z" fill="white"/>
<path fill-rule="evenodd" clip-rule="evenodd" d="M84.3561 17.2183C84.3404 17.2183 84.3267 17.2164 84.315 17.2124L76.2818 14.4781C76.2466 14.4664 76.2172 14.4429 76.2055 14.4077C76.1878 14.3725 76.1937 14.3314 76.2055 14.3021C78.4897 9.57273 83.4988 6.5098 88.9658 6.48633C89.001 6.49024 89.0324 6.50393 89.0598 6.5274C89.0832 6.55087 89.095 6.58608 89.095 6.62128L88.9599 14.2375C88.9599 14.3021 88.9071 14.3549 88.8425 14.3608C86.9927 14.5544 85.3603 15.5988 84.4677 17.1538C84.4442 17.1948 84.4031 17.2183 84.3561 17.2183V17.2183ZM76.5049 14.2786L84.2974 16.9308C85.2193 15.3876 86.8518 14.3431 88.7016 14.1143L88.8307 6.75037C83.5692 6.81492 78.7599 9.75463 76.5049 14.2786V14.2786Z" fill="black"/>
<path d="M83.9805 8.82147C83.9276 8.82147 83.8748 8.78626 83.8571 8.73932C83.8278 8.66891 83.863 8.59263 83.9276 8.56916C85.1784 8.06454 86.4938 7.74768 87.8385 7.63033C87.9149 7.62446 87.9736 7.67727 87.9794 7.74768C87.9853 7.82396 87.9325 7.88264 87.862 7.89437C86.5408 8.00586 85.2547 8.31685 84.0274 8.80973C84.0118 8.81756 83.9961 8.82147 83.9805 8.82147V8.82147Z" fill="black"/>
<path d="M79.5704 11.7554C79.5352 11.7554 79.5058 11.7437 79.4764 11.7202C79.4295 11.6674 79.4236 11.5853 79.4764 11.5325C80.4219 10.5702 81.5141 9.76041 82.7296 9.1267C82.7942 9.0915 82.8706 9.11497 82.9058 9.17951C82.9352 9.24406 82.9117 9.32034 82.8471 9.35554C81.6609 9.97752 80.5863 10.7755 79.6643 11.7144C79.6409 11.7437 79.6056 11.7554 79.5704 11.7554V11.7554Z" fill="black"/>
<path d="M102.554 20.6448C101.944 26.9525 96.465 32.1924 89.5005 32.5914C87.1047 32.7263 84.8145 32.2804 82.7886 31.365L87.1516 24.6172C87.8739 24.8989 88.6667 25.0455 89.5005 25.0162C92.2957 24.9341 94.5741 22.9625 95.0322 20.4629L102.554 20.6448Z" fill="white"/>
<path fill-rule="evenodd" clip-rule="evenodd" d="M88.6662 32.7441C86.6109 32.7441 84.5733 32.3158 82.7353 31.4884C82.7 31.4708 82.6765 31.4415 82.6648 31.4063C82.6531 31.3652 82.6589 31.33 82.6765 31.2948L87.0396 24.547C87.0748 24.4942 87.1394 24.4766 87.1982 24.5C87.9263 24.7817 88.7015 24.9108 89.4942 24.8873C92.1778 24.8052 94.4504 22.9334 94.9025 20.4396C94.9143 20.3751 94.973 20.334 95.0317 20.334L102.554 20.5159C102.589 20.5159 102.624 20.5276 102.648 20.557C102.671 20.5863 102.683 20.6215 102.683 20.6567C102.055 27.1405 96.3941 32.3275 89.5059 32.7207C89.228 32.7363 88.9481 32.7441 88.6662 32.7441V32.7441ZM82.9819 31.3124C84.9961 32.1926 87.2451 32.5916 89.4942 32.4625C96.2003 32.0752 101.726 27.0642 102.407 20.7741L95.1374 20.598C94.6148 23.1563 92.2659 25.0633 89.5059 25.1513C88.7073 25.1748 87.9322 25.0516 87.204 24.7817L82.9819 31.3124Z" fill="black"/>
<path d="M88.649 31.6525C87.1809 31.6525 85.7481 31.4237 84.3858 30.966C84.3212 30.9425 84.2801 30.8663 84.3036 30.7959C84.327 30.7313 84.4034 30.6902 84.4738 30.7137C85.8068 31.1655 87.2103 31.3944 88.649 31.3944C88.9132 31.3944 89.1716 31.3885 89.43 31.3709C89.5005 31.365 89.5651 31.4237 89.5709 31.4941C89.5709 31.5645 89.5181 31.6291 89.4476 31.6291C89.1834 31.6467 88.9132 31.6525 88.649 31.6525V31.6525Z" fill="black"/>
<path d="M92.1899 31.1836C92.137 31.1836 92.0842 31.1483 92.0666 31.0897C92.049 31.0193 92.0901 30.9488 92.1605 30.9254C96.735 29.6814 100.27 26.0493 101.163 21.6779C101.174 21.6075 101.245 21.5664 101.315 21.5782C101.386 21.5899 101.433 21.6603 101.415 21.7307C100.505 26.196 96.8994 29.9044 92.2251 31.1777C92.2134 31.1816 92.2016 31.1836 92.1899 31.1836Z" fill="black"/>
<path d="M75.0781 19.7884C75.0781 18.386 75.313 17.0365 75.7417 15.769L83.8042 18.474C83.7103 18.8613 83.6633 19.2662 83.6633 19.6828C83.6633 21.402 84.5089 22.9159 85.8243 23.8899L81.426 30.6553C77.6208 28.4022 75.0781 24.418 75.0781 19.7884V19.7884Z" fill="white"/>
<path fill-rule="evenodd" clip-rule="evenodd" d="M81.4258 30.7903C81.4023 30.7903 81.3788 30.7825 81.3553 30.7668C77.3446 28.3904 74.9487 24.2831 74.9487 19.7884C74.9487 18.4036 75.1719 17.0365 75.6182 15.728C75.6416 15.6634 75.718 15.6224 75.7885 15.6458L83.8452 18.345C83.9097 18.3684 83.9509 18.4388 83.9332 18.5034C83.8393 18.8907 83.7923 19.2838 83.7923 19.6828C83.7923 21.2964 84.5616 22.7927 85.9004 23.7843C85.9592 23.8254 85.9709 23.9017 85.9357 23.9603L81.5315 30.7258C81.508 30.7668 81.4669 30.7903 81.4258 30.7903V30.7903ZM75.8237 15.9392C75.4185 17.1832 75.2071 18.4741 75.2071 19.7884C75.2071 24.1481 77.5149 28.1381 81.3847 30.4793L85.6479 23.9193C84.3032 22.8807 83.5339 21.3433 83.5339 19.6828C83.5339 19.3014 83.5692 18.9259 83.6514 18.5562L75.8237 15.9392Z" fill="black"/>
<path d="M91.5498 1.34033C101.174 2.33197 108.368 10.0538 108.368 19.0666C108.368 19.0744 108.368 19.0803 108.368 19.0842L96.0655 18.7263C95.8306 16.2912 93.8752 14.3255 91.3325 13.9441L91.5498 1.34033Z" fill="white"/>
<path fill-rule="evenodd" clip-rule="evenodd" d="M108.362 19.2135L96.0595 18.8614C95.9949 18.8556 95.9361 18.8086 95.9303 18.7441C95.7071 16.3618 93.8045 14.4431 91.3088 14.0734C91.2442 14.0675 91.1973 14.0089 91.1973 13.9443L91.4204 1.34055C91.4204 1.29947 91.438 1.27013 91.4615 1.24079C91.4909 1.21732 91.5261 1.20559 91.5613 1.21146C96.2356 1.69261 100.528 3.78737 103.664 7.10847C106.776 10.412 108.497 14.6602 108.497 19.0668C108.497 19.102 108.479 19.1489 108.456 19.1724C108.432 19.1959 108.397 19.2135 108.362 19.2135V19.2135ZM96.1828 18.6033L108.233 18.9494C108.174 9.99537 101.086 2.52582 91.6788 1.48724L91.4615 13.8328C93.9807 14.2553 95.895 16.1916 96.1828 18.6033V18.6033Z" fill="black"/>
<path d="M78.9712 17.2594V38.6353C78.9712 39.4274 78.3311 40.0729 77.5384 40.0729H61.4367C60.644 40.0729 59.998 39.4274 59.998 38.6353V17.2594C59.998 16.4672 60.644 15.8218 61.4367 15.8218H77.5384C78.3311 15.8218 78.9712 16.4672 78.9712 17.2594V17.2594Z" fill="white"/>
<path fill-rule="evenodd" clip-rule="evenodd" d="M77.5387 40.2022H61.437C60.5738 40.2022 59.8691 39.498 59.8691 38.6355V17.2595C59.8691 16.397 60.5738 15.6929 61.437 15.6929H77.5387C78.4019 15.6929 79.1065 16.397 79.1065 17.2595V38.6355C79.1065 39.498 78.4019 40.2022 77.5387 40.2022ZM61.437 15.951C60.7147 15.951 60.1275 16.5378 60.1275 17.2595V38.6355C60.1275 39.3572 60.7147 39.9381 61.437 39.9381H77.5387C78.2551 39.9381 78.8423 39.3572 78.8423 38.6355V17.2595C78.8423 16.5378 78.2551 15.951 77.5387 15.951H61.437Z" fill="black"/>
<path d="M66.387 36.3234H62.2529V22.7515H66.387V36.3234Z" fill="white"/>
<path fill-rule="evenodd" clip-rule="evenodd" d="M66.3873 36.4527H62.2532C62.1827 36.4527 62.124 36.394 62.124 36.3236V22.7516C62.124 22.6812 62.1827 22.6226 62.2532 22.6226H66.3873C66.4577 22.6226 66.5164 22.6812 66.5164 22.7516V36.3236C66.5164 36.394 66.4577 36.4527 66.3873 36.4527ZM62.3883 36.1945H66.2581V22.8807H62.3883V36.1945Z" fill="black"/>
<path d="M71.5549 36.3233H67.4209V19.0078H71.5549V36.3233Z" fill="white"/>
<path fill-rule="evenodd" clip-rule="evenodd" d="M71.5547 36.4526H67.4207C67.3502 36.4526 67.2915 36.3939 67.2915 36.3235V19.008C67.2915 18.9376 67.3502 18.8789 67.4207 18.8789H71.5547C71.6252 18.8789 71.6839 18.9376 71.6839 19.008V36.3235C71.6839 36.3939 71.6252 36.4526 71.5547 36.4526ZM67.5499 36.1944H71.4197V19.1371H67.5499V36.1944Z" fill="black"/>
<path d="M76.7166 36.3235H72.5825V28.2319H76.7166V36.3235Z" fill="white"/>
<path fill-rule="evenodd" clip-rule="evenodd" d="M76.7164 36.4527H72.5823C72.5118 36.4527 72.4531 36.3941 72.4531 36.3236V28.2321C72.4531 28.1617 72.5118 28.103 72.5823 28.103H76.7164C76.7927 28.103 76.8514 28.1617 76.8514 28.2321V36.3236C76.8514 36.3941 76.7927 36.4527 76.7164 36.4527ZM72.7174 36.1946H76.5872V28.3612H72.7174V36.1946Z" fill="black"/>
<path d="M48.107 88.4458V92.5238L45.7816 92.2481L45.4175 88.8096L48.107 88.4458Z" fill="white"/>
<path fill-rule="evenodd" clip-rule="evenodd" d="M48.1068 92.6531C48.0989 92.6531 48.0931 92.6531 48.0891 92.6531L45.7637 92.3832C45.705 92.3715 45.6522 92.3246 45.6463 92.2659L45.2881 88.8274C45.2822 88.757 45.3292 88.6925 45.3997 88.6807L48.0891 88.3169C48.1244 88.3111 48.1655 88.3228 48.189 88.3463C48.2183 88.3756 48.2359 88.4108 48.2359 88.446V92.5241C48.2359 92.5593 48.2183 92.5945 48.1948 92.6179C48.1655 92.6414 48.1361 92.6531 48.1068 92.6531V92.6531ZM45.8988 92.1309L47.9717 92.3774V88.5986L45.5582 88.9272L45.8988 92.1309Z" fill="black"/>
<path d="M48.4709 98.509C47.502 98.6439 45.9107 98.7671 44.0433 98.509C43.4326 98.421 43.0274 97.8283 43.1742 97.2298C43.5853 95.5575 44.2958 92.3948 45.5113 90.9279L45.8108 91.7201L46.2278 90.9749C46.2865 90.8693 46.3863 90.7988 46.5037 90.7871L47.4198 90.6697C47.6077 90.6463 47.7898 90.7754 47.825 90.9631L47.9718 91.6497L48.2889 90.746L49.3518 97.3472C49.4281 97.9105 49.0347 98.4268 48.4709 98.509V98.509Z" fill="white"/>
<path fill-rule="evenodd" clip-rule="evenodd" d="M46.2747 98.7908C45.5935 98.7908 44.836 98.7498 44.0256 98.6383C43.6968 98.5913 43.4032 98.4094 43.2153 98.1337C43.0332 97.8579 42.9686 97.5176 43.0508 97.2007L43.1389 96.8369C43.5558 95.1177 44.2605 92.2366 45.4115 90.846C45.4408 90.8108 45.4878 90.7932 45.5289 90.7991C45.5759 90.8049 45.617 90.8401 45.6346 90.8812L45.8343 91.4152L46.1161 90.9105C46.1925 90.7697 46.3334 90.6758 46.492 90.6582L47.4021 90.5409C47.6547 90.5115 47.9013 90.6817 47.9541 90.934L48.0011 91.1687L48.1655 90.7052C48.189 90.6465 48.2419 90.6113 48.3006 90.6172C48.3593 90.623 48.4122 90.6641 48.418 90.7228L49.4809 97.3239C49.569 97.9635 49.1227 98.5503 48.4885 98.6383C47.9189 98.7204 47.1614 98.7908 46.2747 98.7908V98.7908ZM45.4702 91.1922C44.4367 92.5946 43.7849 95.2702 43.3914 96.9014L43.3033 97.2594C43.2387 97.5117 43.2857 97.7699 43.4325 97.987C43.5793 98.1982 43.8083 98.339 44.0608 98.3801C45.8989 98.6324 47.4609 98.5209 48.4533 98.3801C48.9407 98.3097 49.2871 97.852 49.2225 97.3591L48.2419 91.2743L48.0951 91.6968C48.0775 91.7496 48.0187 91.7848 47.9659 91.7848C47.9072 91.779 47.8543 91.7379 47.8426 91.6792L47.7016 90.9868C47.6723 90.8695 47.5607 90.7873 47.4374 90.7991L46.5213 90.9164C46.445 90.9282 46.3804 90.9692 46.3451 91.0396L45.9282 91.7848C45.9047 91.8318 45.8519 91.8552 45.8049 91.8552C45.7521 91.8494 45.7109 91.8142 45.6875 91.7672L45.4702 91.1922Z" fill="black"/>
<path d="M45.7757 97.6817C45.1591 97.6817 44.4838 97.6289 43.8143 97.4763C43.7439 97.4587 43.7028 97.3883 43.7204 97.3179C43.7321 97.2475 43.8026 97.2064 43.8731 97.224C46.1515 97.7404 48.5415 97.0715 48.565 97.0656C48.6354 97.048 48.7059 97.0891 48.7294 97.1536C48.747 97.224 48.7059 97.3003 48.6354 97.3179C48.565 97.3355 47.3318 97.6817 45.7757 97.6817V97.6817Z" fill="black"/>
<path d="M45.2239 95.1294C45.1535 95.1294 45.0947 95.0707 45.0889 95.0003C45.0889 94.9299 45.1476 94.8653 45.2181 94.8653L47.3967 94.7949C47.4671 94.7949 47.5317 94.8477 47.5317 94.9181C47.5376 94.9944 47.4789 95.0531 47.4084 95.0531L45.2239 95.1294V95.1294Z" fill="black"/>
<path d="M59.5931 86.979L59.4639 92.0017H56.6629L56.3164 86.979H59.5931Z" fill="white"/>
<path fill-rule="evenodd" clip-rule="evenodd" d="M59.4637 92.131H56.6627C56.5922 92.131 56.5394 92.0782 56.5335 92.0078L56.187 86.9909C56.1812 86.9557 56.1929 86.9205 56.2164 86.8912C56.2458 86.8677 56.281 86.8501 56.3162 86.8501H59.5929C59.6282 86.8501 59.6634 86.8677 59.6869 86.8912C59.7104 86.9146 59.7221 86.9499 59.7221 86.9851L59.5929 92.0019C59.5929 92.0723 59.5342 92.131 59.4637 92.131V92.131ZM56.786 91.867H59.3346L59.4579 87.1141H56.4572L56.786 91.867Z" fill="black"/>
<path d="M56.3166 90.7167L58.3073 91.5558C58.3073 91.5558 59.5228 89.6664 60.1746 89.7544C60.8264 89.8425 62.3826 91.8433 64.0033 92.8585C65.0955 93.5391 67.3916 95.4109 66.681 96.1972C65.9764 96.9834 64.3263 97.3942 62.9815 97.1947C61.948 97.0362 58.3249 96.203 56.71 95.8334C56.252 95.7219 55.9231 95.3053 55.9349 94.83C55.9701 92.4242 56.3166 90.7167 56.3166 90.7167V90.7167Z" fill="white"/>
<path fill-rule="evenodd" clip-rule="evenodd" d="M63.6858 97.3709C63.4391 97.3709 63.1984 97.3592 62.9635 97.324C61.9182 97.1655 58.2246 96.3147 56.6802 95.9568C56.1635 95.8394 55.7935 95.3642 55.7994 94.8302C55.8346 92.4362 56.1811 90.7111 56.187 90.6935C56.1928 90.6583 56.2163 90.6231 56.2515 90.6055C56.2868 90.5879 56.3279 90.582 56.3631 90.5996L58.254 91.3917C58.5652 90.9282 59.5459 89.5376 60.1918 89.6256C60.5618 89.6784 61.0903 90.1771 61.8243 90.8695C62.5055 91.515 63.2747 92.2484 64.0733 92.7472C64.9483 93.2929 66.7981 94.7422 66.939 95.7221C66.9684 95.9451 66.9155 96.1328 66.7804 96.2854C66.1815 96.9484 64.9131 97.3709 63.6858 97.3709V97.3709ZM56.416 90.9047C56.3279 91.38 56.093 92.8821 56.0636 94.8361C56.0578 95.2468 56.3396 95.6106 56.7389 95.7045C58.2775 96.0624 61.9652 96.9074 62.9987 97.0658C64.3435 97.2653 65.9231 96.8428 66.5867 96.1094C66.6689 96.0155 66.6982 95.904 66.6806 95.7573C66.5632 94.9241 64.8367 93.5276 63.9324 92.9702C63.1162 92.4538 62.3352 91.7145 61.6422 91.0573C61.0257 90.4764 60.4443 89.9248 60.1566 89.8838C59.7455 89.8251 58.8706 90.9223 58.4184 91.6265C58.3832 91.6793 58.3127 91.7027 58.254 91.6734L56.416 90.9047Z" fill="black"/>
<path d="M63.6567 96.4556C60.7441 96.4556 56.8332 94.8771 56.6159 94.7833C56.5455 94.7598 56.5161 94.6835 56.5455 94.6131C56.569 94.5486 56.6453 94.5133 56.7158 94.5427C56.7862 94.572 63.874 97.4355 65.9645 95.5519C66.0174 95.505 66.0996 95.505 66.1466 95.5637C66.1935 95.6165 66.1935 95.6986 66.1348 95.7456C65.5652 96.2619 64.6726 96.4556 63.6567 96.4556V96.4556Z" fill="black"/>
<path d="M60.5502 93.4159C60.515 93.4159 60.4797 93.3983 60.4563 93.3689C60.4093 93.3161 60.4093 93.234 60.468 93.187L61.8891 91.902C61.9419 91.8551 62.0241 91.8551 62.0711 91.9138C62.124 91.9666 62.1181 92.0487 62.0652 92.0957L60.6383 93.3807C60.6148 93.4042 60.5854 93.4159 60.5502 93.4159V93.4159Z" fill="black"/>
<path d="M62.1707 53.5039C62.1707 53.5039 61.8301 67.3106 62.1414 72.8672C62.4467 78.4239 60.2975 88.6396 60.2975 88.6396C59.0819 89.4024 55.6937 89.2498 55.6937 89.2498C55.5469 87.0494 54.0494 59.0371 54.0494 59.0371C54.0494 59.0371 52.2114 64.6525 51.6712 68.2024C51.1251 71.7583 49.3047 75.7424 49.3047 75.7424C48.9817 78.6821 48.6822 89.2615 48.6822 89.2615L44.3661 89.4904C44.3661 89.4904 42.8452 80.7886 43.3033 75.3727C43.7554 69.9569 44.6245 54.2726 44.6245 54.2726L62.1707 53.5039Z" fill="black"/>
<path d="M48.5061 75.8715H47.1849C47.1144 75.8715 47.0557 75.8128 47.0557 75.7424C47.0557 75.672 47.1144 75.6133 47.1849 75.6133H48.5061C48.5766 75.6133 48.6353 75.672 48.6353 75.7424C48.6353 75.8128 48.5766 75.8715 48.5061 75.8715Z" fill="white"/>
<path d="M57.9134 84.0217C57.9134 84.0217 57.9134 84.0197 57.9134 84.0158C57.8429 84.0158 57.7842 83.9571 57.7842 83.8867C57.8312 81.2991 60.6733 76.6577 60.7966 76.4582C60.8377 76.3995 60.9141 76.3761 60.9787 76.4172C61.0374 76.4524 61.055 76.5345 61.0198 76.5932C60.9904 76.646 58.0895 81.3753 58.0484 83.8926C58.0426 83.963 57.9838 84.0217 57.9134 84.0217V84.0217Z" fill="white"/>
<path d="M63.5391 29.1884C63.8504 29.1649 65.3948 32.3217 70.2276 32.1926C75.0604 32.0577 78.9361 26.6535 78.9361 26.6535C78.9361 26.6535 80.6097 23.8429 81.8722 22.8278C83.1406 21.8068 83.3403 21.6777 83.3403 21.6777C83.3403 21.6777 83.7337 22.2058 83.3403 22.8278C82.941 23.4498 81.8428 24.6116 81.8428 24.6116C81.8428 24.6116 83.0525 25.2746 82.5064 26.6535C81.884 28.2437 80.1164 28.1146 80.1164 28.1146C80.1164 28.1146 76.5344 43.9632 61.7246 36.4349L63.5391 29.1884Z" fill="white"/>
<path fill-rule="evenodd" clip-rule="evenodd" d="M69.0708 38.594C66.8217 38.594 64.3436 37.9134 61.6659 36.5462C61.6131 36.5227 61.5837 36.4582 61.6013 36.3995L63.41 29.1529C63.4276 29.1001 63.4746 29.059 63.5274 29.059C63.6566 29.0473 63.7623 29.1588 64.0089 29.4346C64.7371 30.2502 66.4518 32.163 70.2276 32.0574C74.9371 31.9283 78.7952 26.6298 78.8304 26.577C78.895 26.4714 80.5216 23.7429 81.79 22.722C83.0467 21.7186 83.2581 21.5719 83.2639 21.566C83.3227 21.5308 83.399 21.5426 83.446 21.5954C83.4636 21.6188 83.8923 22.2056 83.446 22.898C83.1171 23.4143 82.3303 24.2828 82.0425 24.5879C82.3655 24.8285 83.0937 25.5267 82.6297 26.7002C82.0719 28.1202 80.6332 28.2434 80.2163 28.2434C79.9931 29.1236 78.2373 35.3433 73.2459 37.6904C71.9599 38.2889 70.5623 38.594 69.0708 38.594V38.594ZM61.8773 36.3643C66.2228 38.553 70.0103 38.9167 73.1344 37.4498C78.3724 34.9971 79.9755 28.1554 79.9872 28.085C80.0049 28.0205 80.0636 27.9794 80.1282 27.9853C80.1928 27.9911 81.8018 28.085 82.389 26.6064C82.8823 25.3507 81.8253 24.7522 81.7841 24.7287C81.7489 24.7052 81.7196 24.67 81.7137 24.6348C81.7078 24.5937 81.7196 24.5527 81.7489 24.5233C81.7607 24.5116 82.8412 23.3615 83.2287 22.7572C83.4695 22.3758 83.3755 22.0354 83.2992 21.8653C83.1348 21.9885 82.7648 22.276 81.9544 22.9273C80.7213 23.919 79.0653 26.6944 79.0477 26.7237C79.0066 26.7824 75.0722 32.1865 70.2335 32.3215C70.1317 32.3254 70.0319 32.3273 69.934 32.3273C66.2462 32.3273 64.5492 30.4321 63.8093 29.6106C63.7447 29.5343 63.6742 29.4581 63.6214 29.3994L61.8773 36.3643Z" fill="black"/>
<path d="M39.5864 36.435C39.5864 36.435 41.0369 27.0819 46.1633 24.7818C51.2839 22.4758 58.219 22.7985 60.1275 23.9486C62.0359 25.0987 67.0215 30.2916 67.0215 30.2916L62.6173 36.435C62.6173 36.435 63.6214 52.9643 62.8287 57.3239C62.8287 57.3239 57.9313 57.899 55.8525 57.0775C53.7796 56.2619 46.9502 55.1177 43.6852 56.614L44.2783 35.6898L39.5864 36.435Z" fill="black"/>
<path fill-rule="evenodd" clip-rule="evenodd" d="M59.3699 57.6524C58.0721 57.6524 56.698 57.5527 55.8055 57.2006C53.7619 56.3967 47.003 55.2349 43.738 56.7371C43.6969 56.7547 43.6499 56.7488 43.6147 56.7253C43.5736 56.7019 43.5501 56.6549 43.556 56.6139L44.1432 35.8423L39.6099 36.564C39.5688 36.5699 39.5276 36.5523 39.4983 36.5229C39.4689 36.4936 39.4513 36.4525 39.4572 36.4114C39.5218 36.03 40.9781 26.9645 46.1104 24.6585C51.1547 22.3936 58.1367 22.5989 60.192 23.837C62.1005 24.9812 66.9098 29.9863 67.1154 30.2034C67.1565 30.2445 67.1623 30.3149 67.1271 30.3677L62.7523 36.4701C62.811 37.4441 63.7271 53.1343 62.9578 57.3473C62.9461 57.406 62.8991 57.4471 62.8462 57.4588C62.7288 57.4705 61.1198 57.6524 59.3699 57.6524V57.6524ZM48.1187 55.7513C51.2192 55.7513 54.5605 56.432 55.9053 56.96C57.7668 57.6935 62.0183 57.2828 62.7171 57.2065C63.4687 52.7647 62.4998 36.6051 62.488 36.4408C62.488 36.4114 62.4939 36.3821 62.5115 36.3586L66.8511 30.3032C66.2169 29.6519 61.8069 25.1103 60.0569 24.06C58.26 22.9803 51.3426 22.5931 46.2161 24.899C41.6005 26.9703 39.9798 34.9739 39.7508 36.2765L44.2548 35.5606C44.2959 35.5548 44.337 35.5665 44.3664 35.59C44.3957 35.6134 44.4075 35.6545 44.4075 35.6897L43.8202 56.4144C44.9771 55.9332 46.5156 55.7513 48.1187 55.7513V55.7513Z" fill="black"/>
<path d="M48.1832 52.436C48.1245 52.436 48.0658 52.3891 48.054 52.3246C48.0423 52.2541 48.0893 52.1896 48.1597 52.172C55.9463 50.799 58.2189 45.4124 58.2424 45.3596C58.2717 45.2892 58.3481 45.2599 58.4127 45.2833C58.4831 45.3127 58.5125 45.389 58.4831 45.4535C58.4655 45.5122 56.1401 51.0278 48.2067 52.4302C48.1989 52.4341 48.1911 52.436 48.1832 52.436Z" fill="black"/>
<path d="M62.2474 42.9713H52.2764L55.4004 31.8403H65.3714L62.2474 42.9713Z" fill="black"/>
<path d="M40.4671 36.47L45.5113 34.2168C45.5113 34.2168 44.8008 42.7543 55.0126 38.8112C55.0126 38.8112 54.6367 37.7139 54.6896 36.4348C54.7424 35.1498 55.5058 36.3878 55.6174 37.4323C55.7231 38.4767 58.119 38.0543 59.5577 37.6435C61.0022 37.2328 62.8931 37.4968 59.5577 39.3334C56.2281 41.17 55.5 40.3544 55.5 40.3544C55.5 40.3544 51.2485 46.2983 45.9517 45.0368C39.4453 43.4819 40.4671 36.47 40.4671 36.47V36.47Z" fill="white"/>
<path fill-rule="evenodd" clip-rule="evenodd" d="M47.4317 45.3421C46.9384 45.3421 46.4334 45.2834 45.9225 45.166C42.499 44.3446 41.1601 42.0151 40.6434 40.2079C40.0855 38.2539 40.3263 36.5229 40.338 36.4467C40.3439 36.4056 40.3732 36.3645 40.4143 36.3469L45.4586 34.0937C45.4997 34.0761 45.5525 34.082 45.5878 34.1055C45.6289 34.1348 45.6465 34.1817 45.6406 34.2228C45.6406 34.258 45.4116 37.3562 47.4434 38.8759C49.0172 40.0553 51.507 40.0025 54.8483 38.7351C54.7543 38.4123 54.5136 37.4852 54.5547 36.4291C54.5605 36.2648 54.584 35.766 54.8894 35.7543C54.8894 35.7543 54.8913 35.7543 54.8952 35.7543C55.2887 35.7543 55.6763 36.7459 55.7467 37.4207C55.7585 37.5615 55.8289 37.673 55.9523 37.7552C56.5512 38.16 58.2483 37.8784 59.5226 37.5146C60.192 37.3268 61.3253 37.1977 61.5191 37.6671C61.6835 38.072 61.067 38.6529 59.6224 39.4509C56.8918 40.953 55.8583 40.7183 55.5294 40.5364C54.9775 41.2464 51.6538 45.3421 47.4317 45.3421V45.3421ZM40.5905 36.5582C40.5494 36.9043 40.4143 38.4593 40.8959 40.1433C41.624 42.6723 43.3387 44.2742 45.9812 44.9079C46.4745 45.0252 46.9619 45.078 47.4317 45.078C51.9004 45.078 55.3533 40.3311 55.3944 40.2783C55.4179 40.2431 55.4531 40.2255 55.4942 40.2196C55.5353 40.2196 55.5706 40.2372 55.5999 40.2665C55.5999 40.2724 56.3516 40.953 59.4991 39.2221C61.3782 38.1835 61.296 37.808 61.2784 37.7669C61.1961 37.5733 60.4269 37.5322 59.593 37.7669C58.9177 37.9605 56.651 38.5414 55.8054 37.9723C55.6175 37.8432 55.506 37.6671 55.4883 37.4442C55.4061 36.6872 55.0244 36.0418 54.8952 36.0183C54.8952 36.0242 54.8307 36.0887 54.8189 36.4349C54.7661 37.6789 55.1301 38.7585 55.136 38.7703C55.1595 38.8348 55.1243 38.9111 55.0597 38.9346C51.5716 40.2841 48.9526 40.3311 47.2848 39.0871C45.4351 37.7024 45.3529 35.1793 45.3705 34.4223L40.5905 36.5582Z" fill="black"/>
<path d="M53.9321 20.5159C53.4976 20.9149 52.6461 21.4019 51.9826 21.0675C51.4834 20.8151 51.2074 20.1697 51.225 19.4304C50.996 19.448 50.6907 19.4304 50.4793 19.2426C50.1445 18.9492 50.2091 18.4094 50.2209 18.0573C50.2796 16.4261 49.3342 16.1738 49.5632 15.0648C49.7452 14.1964 50.4323 13.6801 50.5615 13.5803C51.2074 13.0933 51.642 13.2517 52.7283 12.9642C54.5546 12.4889 54.6133 11.7026 55.8171 11.6968C55.8876 11.6968 57.5259 11.7144 58.0838 12.8468C58.536 13.7681 58.0075 14.8829 57.4613 15.4697C56.7508 16.2325 56.2458 15.857 55.5352 16.4907C54.2903 17.6114 55.2299 19.3306 53.9321 20.5159Z" fill="black"/>
<path d="M57.5321 18.0514L57.168 18.245C57.3207 19.5242 57.0271 20.5451 56.1345 20.8033C55.9466 20.862 55.7352 20.8737 55.5238 20.8561L55.5297 21.2434C55.5532 22.0649 56.0464 22.7983 56.7922 23.1328L57.215 23.3206C54.0323 25.5679 50.8965 23.5201 50.8965 23.5201L51.5718 23.2501C52.2588 22.9626 52.711 22.2937 52.711 21.5485V19.5594C52.4702 19.489 52.2412 19.3012 52.1179 19.0195C51.9006 18.5677 52.0357 18.0572 52.4115 17.8812C52.4937 17.846 52.5759 17.8284 52.6582 17.8225C53.3922 17.359 53.3804 17.6993 52.8578 16.4378C52.6581 15.9566 54.3435 15.9801 54.3611 15.5165C54.4492 13.6976 56.2696 14.4134 56.6748 16.4026C56.7746 16.872 57.1504 17.2299 57.5086 17.5409L57.5849 17.6054C57.7259 17.7287 57.7024 17.9634 57.5321 18.0514V18.0514Z" fill="white"/>
<path fill-rule="evenodd" clip-rule="evenodd" d="M53.9967 24.4999C52.1881 24.4999 50.8492 23.6432 50.8257 23.6314C50.7846 23.608 50.7611 23.561 50.767 23.5082C50.7729 23.4613 50.8022 23.4202 50.8492 23.4026L51.5187 23.1268C52.1646 22.8628 52.5815 22.2408 52.5815 21.5484V19.6532C52.329 19.5475 52.1235 19.348 51.9943 19.0781C51.7535 18.5559 51.918 17.9691 52.3584 17.7638C52.4367 17.7246 52.5228 17.7012 52.6168 17.6933C52.7342 17.6171 52.834 17.5643 52.9162 17.5232C53.0102 17.4704 53.0983 17.4293 53.0983 17.4C53.1042 17.3413 53.0337 17.177 52.9339 16.9423C52.881 16.8191 52.8164 16.6724 52.7401 16.4905C52.7048 16.4025 52.7048 16.3144 52.7401 16.2323C52.8399 16.0269 53.1687 15.933 53.5446 15.8274C53.8147 15.7511 54.2257 15.6397 54.2316 15.5106C54.2786 14.5072 54.8012 14.3605 55.0302 14.3429C55.6703 14.2901 56.5335 15.0529 56.8037 16.3731C56.8917 16.8073 57.2617 17.1535 57.5964 17.441L57.6669 17.5056C57.7667 17.5936 57.8195 17.7227 57.8078 17.8576C57.7902 17.9867 57.7138 18.1041 57.5964 18.1686L57.3087 18.3212C57.4555 19.7294 57.0444 20.68 56.1753 20.9323C56.0109 20.9793 55.8406 20.9969 55.6527 20.9969L55.6586 21.2433C55.6821 22.0061 56.146 22.6985 56.8448 23.0153L57.2676 23.2031C57.3145 23.2207 57.3439 23.2618 57.3439 23.3087C57.3498 23.3557 57.3322 23.4026 57.291 23.4261C56.146 24.2358 55.0009 24.4999 53.9967 24.4999V24.4999ZM51.1957 23.5434C51.9473 23.9307 54.4254 24.9869 56.9505 23.3439L56.7391 23.25C55.9522 22.898 55.4237 22.1117 55.3943 21.2492V20.856C55.3943 20.8208 55.4061 20.7856 55.4354 20.7621C55.4589 20.7328 55.5 20.7211 55.5353 20.7269C55.7408 20.7445 55.9287 20.7269 56.099 20.68C56.8565 20.4629 57.1971 19.5769 57.0385 18.2625C57.0327 18.2097 57.062 18.1569 57.109 18.1334L57.4731 17.9398C57.5142 17.9163 57.5377 17.8752 57.5436 17.8283C57.5494 17.7814 57.5318 17.7344 57.4966 17.7051L57.4261 17.6405C57.0562 17.3237 56.651 16.9423 56.5453 16.4259C56.3104 15.2817 55.5822 14.56 55.0479 14.6011C54.719 14.6304 54.5194 14.9649 54.4959 15.5223C54.4783 15.8392 54.0613 15.9565 53.615 16.0797C53.3684 16.1502 53.0278 16.244 52.975 16.3497C52.975 16.3555 52.9691 16.3614 52.9808 16.3907C53.0572 16.5726 53.1218 16.7193 53.1746 16.8425C53.4213 17.4058 53.4682 17.5232 53.0396 17.752C52.9573 17.799 52.8516 17.8518 52.7283 17.9339C52.7088 17.9457 52.6872 17.9515 52.6637 17.9515C52.5933 17.9554 52.5287 17.9711 52.47 17.9985C52.1587 18.1452 52.053 18.5794 52.2351 18.9666C52.3408 19.1955 52.5345 19.3715 52.7459 19.4302C52.8047 19.4478 52.8458 19.5006 52.8458 19.5593V21.5484C52.8458 22.3523 52.3643 23.0623 51.6185 23.3674L51.1957 23.5434Z" fill="black"/>
<path d="M55.5235 20.9853C55.5156 20.9853 55.5098 20.9853 55.5059 20.9853C54.2198 20.7917 53.6444 19.8118 53.6209 19.7707C53.5856 19.7062 53.6033 19.624 53.6678 19.5888C53.7324 19.5536 53.8088 19.5771 53.844 19.6357C53.8499 19.6475 54.3901 20.5511 55.5411 20.7271C55.6116 20.7389 55.6644 20.8034 55.6527 20.8738C55.6409 20.9384 55.5881 20.9853 55.5235 20.9853V20.9853Z" fill="black"/>
<path fill-rule="evenodd" clip-rule="evenodd" d="M13.0031 38.213C12.8386 38.213 12.6742 38.1778 12.5215 38.1132C12.2162 37.9841 11.9813 37.7436 11.858 37.4384C11.5996 36.8047 11.905 36.0771 12.5392 35.8248C13.1734 35.5667 13.9015 35.8776 14.154 36.5113C14.4124 37.1451 14.1012 37.8668 13.467 38.125C13.3202 38.1836 13.1616 38.213 13.0031 38.213ZM13.0031 35.995C12.8797 35.995 12.7564 36.0185 12.639 36.0654C12.1398 36.2708 11.8991 36.8399 12.0987 37.3387C12.1986 37.5793 12.3806 37.7729 12.6214 37.8727C12.8621 37.9724 13.1264 37.9783 13.373 37.8785C13.8722 37.679 14.1129 37.1099 13.9133 36.6052C13.7606 36.2297 13.3906 35.995 13.0031 35.995V35.995Z" fill="black"/>
<path d="M104.398 40.9591C104.363 40.9591 104.333 40.9473 104.304 40.9239C104.257 40.8769 104.251 40.7948 104.304 40.742L104.915 40.1024C104.968 40.0496 105.05 40.0496 105.103 40.0965C105.156 40.1493 105.156 40.2315 105.103 40.2843L104.492 40.9239C104.468 40.9473 104.433 40.9591 104.398 40.9591V40.9591Z" fill="black"/>
<path d="M102.255 43.2001C102.22 43.2001 102.184 43.1884 102.161 43.1649C102.108 43.118 102.108 43.0358 102.155 42.983L102.772 42.3434C102.819 42.2906 102.901 42.2848 102.954 42.3376C103.007 42.3845 103.012 42.4667 102.96 42.5195L102.349 43.1591C102.32 43.1884 102.284 43.2001 102.255 43.2001Z" fill="black"/>
<path d="M102.854 40.9939C102.818 40.9939 102.789 40.9822 102.76 40.9587L102.137 40.3485C102.09 40.2957 102.09 40.2135 102.137 40.1607C102.19 40.1079 102.272 40.1079 102.325 40.1607L102.948 40.7709C102.995 40.8237 102.995 40.9059 102.948 40.9587C102.918 40.9822 102.889 40.9939 102.854 40.9939V40.9939Z" fill="black"/>
<path d="M105.032 43.1419C104.997 43.1419 104.962 43.1301 104.938 43.1008L104.316 42.4905C104.263 42.4377 104.263 42.3556 104.316 42.3028C104.369 42.2558 104.451 42.2558 104.498 42.3028L105.12 42.9189C105.173 42.9658 105.173 43.048 105.126 43.1008C105.097 43.1301 105.068 43.1419 105.032 43.1419Z" fill="black"/>
<path d="M59.9864 3.59356C59.957 3.59356 59.9218 3.58183 59.8983 3.55836C59.8455 3.50555 59.8455 3.4234 59.8924 3.37059L60.509 2.73101C60.556 2.6782 60.6382 2.6782 60.6911 2.73101C60.7439 2.77795 60.7439 2.8601 60.6969 2.91291L60.0804 3.55249C60.0569 3.58183 60.0216 3.59356 59.9864 3.59356Z" fill="black"/>
<path d="M57.8432 5.83505C57.8138 5.83505 57.7786 5.82332 57.7551 5.79984C57.7022 5.74704 57.6964 5.66489 57.7492 5.61208L58.3599 4.9725C58.4128 4.91969 58.495 4.91969 58.5478 4.96663C58.6007 5.01944 58.6007 5.10159 58.5537 5.1544L57.9371 5.79398C57.9136 5.82331 57.8784 5.83505 57.8432 5.83505V5.83505Z" fill="black"/>
<path d="M58.4421 3.62895C58.4127 3.62895 58.3775 3.61722 58.354 3.59375L57.7315 2.97764C57.6787 2.92483 57.6787 2.84269 57.7315 2.79574C57.7785 2.74293 57.8607 2.74293 57.9136 2.78988L58.536 3.40598C58.5889 3.45292 58.5889 3.54094 58.536 3.58788C58.5125 3.61722 58.4773 3.62895 58.4421 3.62895Z" fill="black"/>
<path d="M60.6206 5.77028C60.5912 5.77028 60.556 5.75854 60.5325 5.73507L59.91 5.12483C59.8572 5.07202 59.8572 4.98988 59.9042 4.93707C59.957 4.88426 60.0392 4.88426 60.0921 4.93707L60.7145 5.54731C60.7674 5.60012 60.7674 5.68226 60.7145 5.73507C60.691 5.75854 60.6558 5.77028 60.6206 5.77028Z" fill="black"/>
<path d="M41.131 85.6998L39.1462 106.02L37.731 105.961L38.4356 84.5967L41.131 85.6998Z" fill="white"/>
<path fill-rule="evenodd" clip-rule="evenodd" d="M39.1459 106.149C39.1459 106.149 39.1439 106.149 39.14 106.149L37.7248 106.09C37.6543 106.084 37.5956 106.026 37.6015 105.955L38.3061 84.5909C38.3061 84.5498 38.3296 84.5087 38.3649 84.4853C38.4001 84.4618 38.4412 84.4618 38.4823 84.4735L41.1835 85.5767C41.2364 85.6001 41.2716 85.6529 41.2657 85.7116L39.2751 106.031C39.2692 106.096 39.2163 106.149 39.1459 106.149V106.149ZM37.8657 105.832L39.0284 105.879L40.9956 85.782L38.5587 84.7904L37.8657 105.832Z" fill="black"/>
<path d="M17.1954 83.8281L17.9 105.955L16.432 106.067L14.4941 84.9665L17.1954 83.8281Z" fill="white"/>
<path fill-rule="evenodd" clip-rule="evenodd" d="M16.432 106.202C16.3674 106.202 16.3087 106.149 16.3028 106.079L14.365 84.9783C14.3591 84.9197 14.3885 84.8669 14.4413 84.8493L17.1426 83.7051C17.1837 83.6875 17.2306 83.6933 17.2659 83.7168C17.3011 83.7403 17.3246 83.7813 17.3246 83.8224L18.0293 105.955C18.0293 106.026 17.9764 106.084 17.9059 106.09L16.4438 106.196C16.4399 106.2 16.4359 106.202 16.432 106.202V106.202ZM14.6351 85.0488L16.5495 105.926L17.765 105.838L17.0662 84.0219L14.6351 85.0488Z" fill="black"/>
<path d="M10.5129 78.9463L9.46176 101.912L8.31668 102.159L7.74707 80.0025L10.5129 78.9463Z" fill="white"/>
<path fill-rule="evenodd" clip-rule="evenodd" d="M8.31696 102.288C8.2876 102.288 8.25824 102.282 8.24062 102.265C8.20539 102.241 8.18777 102.2 8.18777 102.165L7.61816 80.0027C7.61816 79.9498 7.64753 79.897 7.70038 79.8794L10.4662 78.8233C10.5073 78.8115 10.5543 78.8174 10.5895 78.8409C10.6247 78.8702 10.6424 78.9113 10.6424 78.9523L9.59123 101.918C9.59123 101.977 9.55013 102.024 9.4914 102.042L8.34632 102.288C8.33849 102.288 8.3287 102.288 8.31696 102.288ZM7.88241 80.0907L8.44615 102.001L9.33873 101.807L10.3722 79.1401L7.88241 80.0907Z" fill="black"/>
<path d="M32.8684 78.4531L31.8642 101.672L30.6721 101.666L30.1025 79.5034L32.8684 78.4531Z" fill="white"/>
<path d="M24.3599 62.1998V67.3574C24.3599 72.3978 28.3413 76.4876 33.2505 76.4876C38.1597 76.4876 42.141 80.5715 42.141 85.6177C42.141 86.0636 41.7769 86.4274 41.3248 86.4274H17.7948C10.4369 86.4274 4.4707 80.3015 4.4707 72.744V61.7421C4.4707 58.7378 6.84308 56.2969 9.76745 56.2969H18.611C21.7879 56.2969 24.3599 58.9432 24.3599 62.1998V62.1998Z" fill="white"/>
<path fill-rule="evenodd" clip-rule="evenodd" d="M41.3246 86.5625H17.7946C10.3721 86.5625 4.33545 80.3604 4.33545 72.7442V61.7423C4.33545 58.6676 6.77242 56.168 9.76726 56.168H18.6108C21.8523 56.168 24.4889 58.873 24.4889 62.1999V67.3576C24.4889 72.3158 28.4174 76.3528 33.2503 76.3528C38.2241 76.3528 42.27 80.5071 42.27 85.6178C42.27 86.1342 41.8472 86.5625 41.3246 86.5625ZM9.76726 56.4261C6.91923 56.4261 4.5997 58.8143 4.5997 61.7423V72.7442C4.5997 80.2196 10.5189 86.2985 17.7946 86.2985H41.3246C41.7004 86.2985 42.0058 85.9934 42.0058 85.6178C42.0058 80.6538 38.0773 76.6168 33.2503 76.6168C28.2765 76.6168 24.2305 72.4625 24.2305 67.3576V62.1999C24.2305 59.0197 21.7114 56.4261 18.6108 56.4261H9.76726Z" fill="black"/>
<path d="M2.19197 52.583C1.82789 52.4304 1.51079 52.1723 1.31113 51.8143C1.01752 51.2862 0.858971 50.4413 1.52253 49.2384C3.02582 46.5158 5.53326 47.8008 6.49043 47.484C8.63967 46.7799 8.13466 45.6181 9.00375 44.4856C9.66144 43.6465 11.9164 42.0505 15.3458 45.0196C15.3458 45.0196 16.8843 47.1202 18.6283 46.3163C20.7717 45.3364 25.076 47.5603 23.7195 50.8579C23.3261 51.8085 22.6156 52.5419 21.7582 52.9409C21.6016 53.0113 21.4294 53.0798 21.2415 53.1463C20.7071 53.3282 20.2902 53.8093 20.1551 54.4254C19.7206 56.4381 18.0587 60.3166 11.9046 56.4087C11.4407 56.1153 10.8887 56.0801 10.4072 56.3031C9.81999 56.573 9.17991 57.6351 6.33188 57.1891C4.50562 56.9016 3.92427 54.7775 3.44275 53.8093C3.05518 53.0407 2.50319 52.7121 2.19197 52.583V52.583Z" fill="black"/>
<path d="M36.8733 65.7027L36.4036 67.9793C36.4036 67.9793 31.8467 74.4749 25.7102 70.6667C26.9082 74.4925 28.2647 75.5311 27.5541 77.7842C26.3268 81.6393 21.3296 80.1548 20.3724 80.366C17.6477 80.9587 10.1606 82.6955 9.2269 78.0483C8.56333 74.7506 11.0179 75.9183 10.8476 68.4957C9.81412 66.6415 8.14641 62.6339 10.2076 58.7495C10.3485 58.3916 10.554 58.0512 10.8359 57.7285C11.9164 56.5139 13.5077 56.2557 15.4221 55.9389C17.1133 55.6631 21.0183 55.0235 23.2733 57.0009C23.5904 57.2767 23.8311 57.5701 24.0073 57.8752C24.389 58.3446 25.3696 59.7587 25.998 62.5517C26.7849 66.0724 31.4239 68.173 33.8433 67.4161C35.6343 66.8586 36.8733 65.7027 36.8733 65.7027V65.7027Z" fill="#EC590C"/>
<path fill-rule="evenodd" clip-rule="evenodd" d="M14.5353 81.3107C13.0849 81.3107 11.6873 81.0818 10.6479 80.4071C9.82582 79.8672 9.30319 79.081 9.09766 78.0717C8.79818 76.5931 9.1094 75.9887 9.54395 75.1438C10.0783 74.0993 10.8065 72.6676 10.7184 68.5309C9.5968 66.5007 8.04066 62.5517 10.0901 58.6908C10.2427 58.3094 10.4541 57.9632 10.7419 57.6463C11.8517 56.3907 13.496 56.1207 15.4044 55.8098C17.0956 55.534 21.0594 54.8827 23.3613 56.9011C23.6784 57.1769 23.925 57.4762 24.1188 57.8048C24.5181 58.2977 25.4988 59.7294 26.1212 62.5224C26.4618 64.0421 27.6128 65.4562 29.2688 66.4127C30.8366 67.3163 32.6159 67.6625 33.808 67.2928C35.5462 66.7471 36.7735 65.6146 36.7852 65.6088C36.8263 65.5677 36.8909 65.5618 36.9379 65.5853C36.9849 65.6146 37.0142 65.6733 37.0025 65.7261L36.5268 68.0028C36.5268 68.0224 36.5209 68.04 36.5092 68.0556C36.4975 68.0673 35.3289 69.7162 33.4263 70.8603C31.7116 71.8931 29.0397 72.7263 25.9451 70.9542C26.3209 72.116 26.7202 73.0197 27.0432 73.7531C27.7126 75.2904 28.1589 76.3056 27.6774 77.8253C26.685 80.9586 23.2732 80.677 21.4411 80.5244C20.983 80.4833 20.5837 80.4481 20.4017 80.4892L20.2314 80.5303C18.8749 80.8237 16.6493 81.3107 14.5353 81.3107V81.3107ZM10.3191 58.8257C8.32253 62.5928 9.86692 66.4596 10.965 68.4311C10.9729 68.4468 10.9768 68.4663 10.9768 68.4898C11.0766 72.7204 10.325 74.1873 9.77296 75.267C9.35016 76.0884 9.07417 76.6341 9.35604 78.0248C9.54395 78.9577 10.0255 79.6912 10.7947 80.19C13.2435 81.786 17.9236 80.765 20.1727 80.2721L20.343 80.2369C20.5661 80.19 20.9419 80.2193 21.4646 80.2604C23.3437 80.4188 26.4971 80.6828 27.4249 77.7431C27.877 76.3232 27.4719 75.3961 26.8024 73.8587C26.4442 73.049 26.0038 72.0398 25.5869 70.7019C25.5693 70.6491 25.5869 70.5963 25.6338 70.5611C25.675 70.5259 25.7337 70.5259 25.7807 70.5552C28.2763 72.1043 30.8014 72.1336 33.2795 70.6432C35.0294 69.5929 36.1393 68.1201 36.2802 67.9265L36.6678 66.0489C36.198 66.4244 35.1938 67.1344 33.8843 67.5392C32.6277 67.9324 30.7662 67.5803 29.1396 66.6415C27.419 65.6499 26.2269 64.1712 25.8687 62.5811C25.2522 59.8291 24.2891 58.4326 23.9074 57.9573C23.9035 57.9534 23.8996 57.9495 23.8957 57.9456C23.7136 57.6346 23.4846 57.3588 23.191 57.1006C20.9772 55.1584 17.1015 55.798 15.4455 56.0679C13.5136 56.3848 11.9868 56.6371 10.9357 57.8165C10.6655 58.1216 10.4718 58.4385 10.3308 58.7964C10.3269 58.8081 10.323 58.8179 10.3191 58.8257V58.8257ZM33.8432 67.416H33.8491H33.8432Z" fill="black"/>
<path d="M23.1439 66.8119C23.1439 66.8119 27.5599 65.1983 28.9398 62.2586L31.782 59.6123C31.782 59.6123 31.7409 60.8915 30.8953 61.4254C30.8953 61.4254 31.6234 62.8865 30.5547 63.8898C30.5547 63.8898 29.7502 64.5294 29.2746 64.5412C29.2746 64.5412 27.8711 69.1355 24.0952 70.5027C24.0952 70.5027 23.0324 68.8891 23.1439 66.8119V66.8119Z" fill="white"/>
<path fill-rule="evenodd" clip-rule="evenodd" d="M24.0956 70.632C24.0486 70.632 24.0075 70.6144 23.984 70.5733C23.937 70.5087 22.8977 68.901 23.0151 66.8004C23.0151 66.7476 23.0503 66.7065 23.0973 66.6889C23.1443 66.6713 27.4839 65.0635 28.8227 62.206C28.8306 62.1903 28.8404 62.1767 28.8521 62.1649L31.6943 59.5186C31.7295 59.4834 31.7882 59.4717 31.8352 59.4951C31.8822 59.5127 31.9174 59.5655 31.9115 59.6183C31.9115 59.6712 31.8645 60.8799 31.0601 61.4725C31.2069 61.8422 31.6003 63.0861 30.6431 63.9839C30.602 64.0191 29.8856 64.5824 29.3689 64.6587C29.1516 65.2983 27.6542 69.3528 24.1367 70.6261C24.121 70.63 24.1073 70.632 24.0956 70.632V70.632ZM23.2735 66.9001C23.203 68.6018 23.9429 69.9865 24.1484 70.3445C27.7481 68.9656 29.134 64.5472 29.1457 64.5002C29.1633 64.4474 29.2162 64.4122 29.269 64.4064C29.6272 64.4005 30.2556 63.9604 30.4728 63.7903C31.4476 62.869 30.8075 61.5429 30.7782 61.4843C30.7488 61.4256 30.7723 61.3493 30.8252 61.3141C31.3419 60.9914 31.5357 60.3518 31.612 59.9528L29.0459 62.3409C27.7364 65.0929 23.9018 66.6596 23.2735 66.9001V66.9001Z" fill="black"/>
<path d="M19.1628 71.9635C15.4809 71.9635 13.3728 70.1387 13.3434 70.1152C13.2906 70.0682 13.2847 69.9861 13.3317 69.9333C13.3786 69.8746 13.4608 69.8746 13.5137 69.9216C13.5548 69.9509 17.313 73.184 23.5669 70.8662C23.6374 70.8369 23.7138 70.8721 23.7372 70.9425C23.7607 71.0071 23.7255 71.0834 23.6609 71.1068C21.9756 71.7347 20.4723 71.9635 19.1628 71.9635V71.9635Z" fill="black"/>
<path d="M21.4238 66.988C18.2175 66.988 16.3501 65.1631 15.3284 63.5554C14.1246 61.6601 13.8016 59.6534 13.8016 59.6299C13.7899 59.5595 13.8368 59.495 13.9073 59.4832C13.9836 59.4715 14.0482 59.5184 14.06 59.5947C14.06 59.6123 14.3771 61.578 15.5515 63.4205C17.1194 65.879 19.392 66.9763 22.3105 66.677C22.3809 66.6711 22.4455 66.724 22.4514 66.7944C22.4573 66.8706 22.4103 66.9293 22.3339 66.9411C22.0208 66.9724 21.7174 66.988 21.4238 66.988V66.988Z" fill="black"/>
<path d="M23.9074 64.67C23.8995 64.67 23.8937 64.67 23.8898 64.67C23.8193 64.6582 23.7664 64.5937 23.7782 64.5174C24.3537 60.5802 22.5509 58.3505 22.5333 58.327C22.4863 58.2742 22.4922 58.1921 22.5509 58.1451C22.6037 58.0982 22.6859 58.1099 22.7329 58.1627C22.8093 58.2566 24.6297 60.4981 24.0366 64.5585C24.0248 64.623 23.972 64.67 23.9074 64.67V64.67Z" fill="black"/>
<path d="M22.7154 53.6625C22.5862 54.0849 22.3043 54.5133 21.905 54.9005C21.6114 55.1763 21.1945 55.2115 20.8656 54.9827C20.6953 54.8653 20.5133 54.6658 20.3724 54.4957L19.7499 55.5519C19.5914 55.8628 19.6031 56.2325 19.791 56.5318L20.0494 56.9425L18.7751 58.1336L16.2207 56.2032C17.3717 55.0003 19.2508 52.976 19.3565 52.8527C18.9689 52.53 18.552 52.0313 18.9337 51.644C19.5796 50.9809 19.885 52.043 19.885 52.043C19.885 52.043 19.5385 50.4763 20.5779 50.5174C21.6231 50.5585 22.78 51.1687 23.1323 50.6524C23.1675 50.5995 22.9679 52.7765 23.0912 53.5979L22.7154 53.6625Z" fill="white"/>
<path fill-rule="evenodd" clip-rule="evenodd" d="M18.7754 58.2685C18.746 58.2685 18.7167 58.2568 18.6932 58.2392L16.1446 56.3029C16.1153 56.2853 16.0977 56.2501 16.0918 56.209C16.0918 56.1738 16.1035 56.1386 16.127 56.1092C17.1782 55.012 18.7754 53.2986 19.1688 52.8644C18.9222 52.6414 18.6697 52.3304 18.6521 52.0195C18.6462 51.8434 18.7049 51.6909 18.84 51.5559C19.0455 51.3388 19.2511 51.2625 19.4507 51.3095C19.5505 51.3329 19.6327 51.3857 19.6973 51.4562C19.7032 51.1745 19.7561 50.8635 19.9381 50.6464C20.0908 50.4645 20.3081 50.3765 20.584 50.3882C20.9775 50.4058 21.3885 50.4997 21.7526 50.5819C22.3398 50.7168 22.8507 50.8342 23.021 50.5819C23.0563 50.5349 23.1209 50.5115 23.1737 50.5291C23.2794 50.5643 23.2794 50.5643 23.2442 51.1393C23.2089 51.7965 23.1385 53.0228 23.2207 53.5803C23.2324 53.6507 23.1854 53.7152 23.115 53.727L22.8155 53.7798C22.6687 54.1964 22.3868 54.6188 21.9934 54.9944C21.6528 55.3171 21.1713 55.3523 20.7896 55.0883C20.6721 55.0061 20.539 54.8829 20.3903 54.7186L19.8618 55.6163C19.7267 55.8804 19.7443 56.2031 19.9029 56.4613L20.1612 56.872C20.1965 56.9248 20.1847 56.9952 20.1436 57.0422L18.8635 58.2333C18.84 58.2568 18.8048 58.2685 18.7754 58.2685ZM16.4206 56.1855L18.7637 57.9634L19.8853 56.9248L19.6797 56.5962C19.4742 56.2677 19.4507 55.8393 19.6327 55.4931L20.2611 54.4252C20.2787 54.39 20.3198 54.3665 20.3609 54.3607C20.402 54.3607 20.4431 54.3783 20.4725 54.4076C20.6545 54.6306 20.8131 54.7831 20.9364 54.877C21.2182 55.0707 21.5647 55.0413 21.8113 54.8007C22.1989 54.4369 22.469 54.0262 22.5924 53.6272C22.6041 53.5803 22.6452 53.5451 22.6922 53.5333L22.9506 53.4922C22.886 52.8703 22.9506 51.7495 22.9858 51.1217C22.9858 51.0572 22.9917 50.9867 22.9975 50.9281C22.6804 51.063 22.2165 50.9574 21.6939 50.8342C21.3239 50.752 20.9423 50.664 20.5723 50.6464C20.3844 50.6406 20.2376 50.6934 20.1378 50.8166C19.8853 51.1217 19.9616 51.7848 20.0144 52.0136C20.0321 52.084 19.991 52.1485 19.9205 52.1661C19.85 52.1838 19.7796 52.1485 19.7619 52.0781C19.7267 51.9608 19.5858 51.6146 19.3861 51.5618C19.2863 51.5383 19.163 51.597 19.022 51.7378C18.9457 51.82 18.9105 51.908 18.9163 52.0019C18.9222 52.2131 19.1101 52.4771 19.4448 52.7529C19.4683 52.7764 19.4859 52.8116 19.4859 52.8468C19.4918 52.882 19.4801 52.9172 19.4566 52.9407C19.3568 53.0522 17.5951 54.9474 16.4206 56.1855V56.1855Z" fill="black"/>
<path d="M20.1729 54.2139L20.3725 54.4955L20.1729 54.2139Z" fill="white"/>
<path d="M20.3727 54.6247C20.3316 54.6247 20.2904 54.6071 20.267 54.5718L20.0673 54.2902C20.0262 54.2315 20.0379 54.1494 20.0967 54.1083C20.1554 54.0672 20.2376 54.079 20.2787 54.1376L20.4784 54.4193C20.5195 54.478 20.5077 54.5601 20.449 54.6012C20.4255 54.6188 20.3961 54.6247 20.3727 54.6247Z" fill="black"/>
<path d="M42.3579 95.5518C42.3344 95.6574 43.5559 101.243 43.5559 101.243L40.7431 100.774L39.8975 96.0505L42.3579 95.5518Z" fill="white"/>
<path fill-rule="evenodd" clip-rule="evenodd" d="M43.556 101.379C43.5482 101.379 43.5403 101.377 43.5325 101.373L40.7256 100.903C40.6668 100.897 40.6257 100.85 40.614 100.798L39.7684 96.0741C39.7567 96.0037 39.8036 95.9392 39.8741 95.9216L42.3287 95.4228C42.3757 95.417 42.4226 95.4287 42.452 95.4639C42.4755 95.4874 42.4872 95.5226 42.4872 95.5578C42.5049 95.7925 43.2095 99.0608 43.6852 101.22C43.691 101.261 43.6793 101.302 43.6499 101.337C43.6265 101.361 43.5912 101.379 43.556 101.379V101.379ZM40.8606 100.663L43.3857 101.085C42.5518 97.2653 42.3169 96.0859 42.2524 95.7103L40.0503 96.1504L40.8606 100.663Z" fill="black"/>
<path d="M42.0642 99.4125C42.2345 99.2658 42.4812 99.125 42.7924 99.1132C43.2622 99.0956 43.6909 99.389 43.8905 99.8232C44.3779 100.903 45.658 103.919 46.0221 106.377C46.1513 107.252 45.4936 107.962 44.4719 107.387C42.7924 106.454 40.4611 104.306 39.2397 101.138C39.1046 100.774 39.1516 100.363 39.3806 100.046C39.5685 99.7939 39.8269 99.4829 40.1205 99.2188C40.4024 98.9607 40.8252 98.9607 41.1188 99.2012L41.3831 99.4183C41.5827 99.5826 41.8646 99.5768 42.0642 99.4125V99.4125Z" fill="white"/>
<path fill-rule="evenodd" clip-rule="evenodd" d="M45.1593 107.727C44.9537 107.727 44.7012 107.669 44.4076 107.504C42.6518 106.525 40.3382 104.354 39.1226 101.185C38.9641 100.774 39.0228 100.322 39.2753 99.9704C39.5219 99.6359 39.7803 99.3484 40.0328 99.1196C40.3617 98.8203 40.8549 98.8144 41.2014 99.102L41.4656 99.3191C41.6183 99.4364 41.8297 99.4364 41.9765 99.3132C42.2232 99.1078 42.4991 98.9963 42.7869 98.9846C43.2919 98.9611 43.7852 99.278 44.0083 99.765C44.5309 100.933 45.7935 103.908 46.1517 106.36C46.228 106.865 46.0577 107.323 45.7171 107.557C45.6056 107.639 45.4176 107.727 45.1593 107.727V107.727ZM40.6259 99.1548C40.4791 99.1548 40.3264 99.2076 40.209 99.3132C39.9682 99.5303 39.7216 99.8061 39.4867 100.123C39.287 100.405 39.2401 100.763 39.3634 101.091C40.5554 104.195 42.8162 106.319 44.5309 107.276C44.9361 107.499 45.3061 107.522 45.5703 107.346C45.8287 107.164 45.952 106.8 45.8933 106.401C45.5351 103.978 44.2902 101.027 43.7675 99.8765C43.5914 99.4833 43.2038 99.2252 42.7986 99.2428C42.5637 99.2545 42.3465 99.3425 42.1468 99.5127C41.9002 99.7181 41.5478 99.7181 41.3012 99.5186L41.037 99.3015C40.9195 99.2017 40.7727 99.1548 40.6259 99.1548Z" fill="black"/>
<path d="M45.3825 106.742C45.1652 106.742 42.7928 106.607 39.9213 100.933C39.8861 100.868 39.9155 100.792 39.98 100.757C40.0446 100.727 40.121 100.751 40.1562 100.815C43.0336 106.501 45.3649 106.483 45.3884 106.483C45.4647 106.478 45.5234 106.536 45.5234 106.607C45.5234 106.683 45.4706 106.742 45.4001 106.742C45.3962 106.742 45.3903 106.742 45.3825 106.742V106.742Z" fill="black"/>
<path d="M43.5854 103.62C43.5325 103.62 43.4856 103.591 43.4621 103.538C43.4386 103.473 43.4679 103.397 43.5384 103.368L44.8714 102.845C44.936 102.816 45.0123 102.851 45.0417 102.916C45.0652 102.986 45.0358 103.063 44.9654 103.086L43.6324 103.614C43.6167 103.618 43.601 103.62 43.5854 103.62V103.62Z" fill="black"/>
<path d="M43.1215 102.605C43.0686 102.605 43.0158 102.57 42.9982 102.517C42.9688 102.452 43.004 102.376 43.0745 102.347L44.6365 101.742C44.7011 101.713 44.7775 101.748 44.801 101.819C44.8303 101.883 44.7951 101.959 44.7305 101.983L43.1685 102.593C43.1528 102.601 43.1372 102.605 43.1215 102.605V102.605Z" fill="black"/>
<path d="M30.2673 96.0623C30.2027 96.1445 28.9578 101.731 28.9578 101.731L26.6089 100.123L27.8303 95.4814L30.2673 96.0623Z" fill="white"/>
<path fill-rule="evenodd" clip-rule="evenodd" d="M28.9577 101.859C28.9342 101.859 28.9107 101.852 28.8872 101.836L26.5324 100.228C26.4913 100.199 26.4678 100.14 26.4796 100.087L27.701 95.4461C27.7186 95.3757 27.7891 95.3346 27.8596 95.3522L30.2965 95.9331C30.3435 95.9448 30.3787 95.9742 30.3905 96.0153C30.4022 96.0505 30.4022 96.0915 30.3846 96.1209C30.3024 96.338 29.5684 99.6004 29.0869 101.76C29.0751 101.801 29.0457 101.836 29.0105 101.848C28.9949 101.856 28.9772 101.859 28.9577 101.859ZM26.7556 100.064L28.8755 101.513C29.7211 97.6934 30.0029 96.5257 30.1086 96.1561L27.9242 95.6339L26.7556 100.064Z" fill="black"/>
<path d="M28.3762 99.4362C28.5934 99.3775 28.8753 99.354 29.163 99.4772C29.6035 99.6533 29.8677 100.099 29.8618 100.574C29.8501 101.76 29.7444 105.04 29.0397 107.422C28.7872 108.267 27.8946 108.637 27.2076 107.686C26.0742 106.131 24.8646 103.209 25.0936 99.8176C25.1171 99.4303 25.3344 99.0782 25.6749 98.8905C25.9568 98.7379 26.315 98.5619 26.6967 98.4445C27.0608 98.333 27.4484 98.5091 27.6128 98.8494L27.7596 99.1604C27.8712 99.3892 28.1295 99.5066 28.3762 99.4362V99.4362Z" fill="white"/>
<path fill-rule="evenodd" clip-rule="evenodd" d="M28.1123 108.378C27.8539 108.378 27.4663 108.273 27.1022 107.762C25.916 106.137 24.7357 103.197 24.9647 99.8116C24.9941 99.3716 25.2349 98.9843 25.6166 98.7731C25.9806 98.5736 26.333 98.421 26.6559 98.3213C27.0846 98.1922 27.5368 98.3917 27.7306 98.7965L27.8774 99.1017C27.9596 99.2718 28.1592 99.3657 28.3413 99.3129C28.6466 99.2307 28.952 99.2425 29.2162 99.354C29.686 99.5476 29.9972 100.04 29.9914 100.58C29.9796 101.854 29.8681 105.081 29.1634 107.463C29.0225 107.95 28.676 108.296 28.2649 108.367C28.2219 108.375 28.171 108.378 28.1123 108.378V108.378ZM26.9202 98.5442C26.8576 98.5442 26.7949 98.5521 26.7323 98.5677C26.4269 98.6674 26.0922 98.8083 25.7399 99.0019C25.4404 99.1721 25.2466 99.4772 25.2231 99.8292C25 103.144 26.1568 106.02 27.3136 107.61C27.5838 107.985 27.9067 108.161 28.2238 108.109C28.5351 108.056 28.7993 107.78 28.9168 107.387C29.6097 105.04 29.7154 101.842 29.733 100.574C29.733 100.14 29.4864 99.7471 29.1164 99.5945C28.8991 99.5065 28.6643 99.4948 28.4117 99.5652C28.1064 99.6474 27.7775 99.5007 27.6425 99.2131L27.4957 98.908C27.3841 98.6792 27.161 98.5442 26.9202 98.5442Z" fill="black"/>
<path d="M28.3704 107.504C28.3508 107.504 28.3332 107.5 28.3175 107.492C28.2236 107.451 26.0215 106.454 25.7925 99.9172C25.7925 99.8468 25.8453 99.7881 25.9217 99.7822C25.9921 99.7822 26.0509 99.835 26.0567 99.9113C26.274 106.278 28.3997 107.24 28.4174 107.252C28.4878 107.281 28.5172 107.357 28.4878 107.422C28.4702 107.475 28.4232 107.504 28.3704 107.504V107.504Z" fill="black"/>
<path d="M29.4745 103.996C29.4706 103.996 29.4667 103.994 29.4628 103.99L28.0358 103.908C27.9654 103.908 27.9066 103.843 27.9125 103.773C27.9184 103.702 27.9771 103.643 28.0534 103.649L29.4804 103.731C29.5509 103.737 29.6096 103.796 29.6037 103.872C29.5978 103.937 29.5391 103.996 29.4745 103.996V103.996Z" fill="black"/>
<path d="M29.7211 102.892C29.7172 102.892 29.7153 102.892 29.7153 102.892L28.0417 102.786C27.9712 102.781 27.9125 102.722 27.9184 102.651C27.9242 102.575 27.9888 102.522 28.0593 102.528L29.7329 102.634C29.8034 102.634 29.8562 102.698 29.8503 102.769C29.8503 102.839 29.7916 102.892 29.7211 102.892V102.892Z" fill="black"/>
<path d="M17.1249 74.047C17.1249 74.047 34.2365 73.3076 36.1039 75.0445C38.6407 77.3974 42.9979 96.9955 42.9979 96.9955L38.7934 98.1749C38.7934 98.1749 32.4514 82.0916 30.8835 82.0916C29.3098 82.0916 14.5 81.5635 14.5 81.5635L17.1249 74.047Z" fill="black"/>
<path d="M22.3222 73.9882C25.411 74.4458 35.0473 75.2204 36.304 78.6178C37.0028 80.513 30.5081 97.5058 30.5081 97.5058L26.4328 97.3533C26.4328 93.1227 27.1433 82.1384 27.5896 82.2851C28.0359 82.4376 15.0935 82.5432 13.3025 81.3345C12.1985 80.5952 12.6272 77.808 13.1145 75.7719C13.4375 74.4517 14.6413 73.554 15.9978 73.6185C18.3937 73.7417 21.9111 73.9295 22.3222 73.9882V73.9882Z" fill="black"/>
<path d="M34.1487 87.9651C34.1369 87.9651 34.1232 87.9631 34.1076 87.9592C34.043 87.9416 34.0019 87.8653 34.0254 87.7949C34.1702 87.3372 34.3151 86.8893 34.4599 86.4512C35.5991 82.9306 36.5857 79.8853 36.1746 78.6589C35.3114 76.0478 28.8402 75.0445 26.7086 74.7159C26.6381 74.7041 26.5911 74.6396 26.6029 74.5692C26.6146 74.4988 26.6792 74.446 26.7497 74.4577C30.5079 75.0386 35.605 76.1006 36.4271 78.5768C36.8616 79.8853 35.9103 82.8191 34.7065 86.5275C34.5656 86.9695 34.4208 87.4194 34.272 87.8771C34.2544 87.9299 34.2074 87.9651 34.1487 87.9651Z" fill="white"/>
<path d="M74.3204 81.5811L75.025 102.945L73.6098 103.004L71.625 82.6842L74.3204 81.5811Z" fill="white"/>
<path fill-rule="evenodd" clip-rule="evenodd" d="M73.6099 103.133C73.5453 103.133 73.4865 103.08 73.4807 103.015L71.4959 82.6955C71.49 82.6368 71.5193 82.584 71.5722 82.5605L74.2734 81.4574C74.3145 81.4457 74.3556 81.4457 74.3909 81.4692C74.432 81.4926 74.4496 81.5337 74.4555 81.5748L75.1601 102.939C75.1601 103.009 75.1014 103.068 75.0309 103.074L73.6157 103.133C73.6118 103.133 73.6099 103.133 73.6099 103.133V103.133ZM71.766 82.7659L73.7273 102.869L74.89 102.816L74.1971 81.7743L71.766 82.7659Z" fill="black"/>
<path d="M98.2618 81.9503L96.324 103.051L94.8618 102.945L95.5606 80.812L98.2618 81.9503Z" fill="white"/>
<path fill-rule="evenodd" clip-rule="evenodd" d="M96.3238 103.186C96.3199 103.186 96.316 103.186 96.3121 103.186L94.8499 103.074C94.7794 103.068 94.7266 103.01 94.7266 102.939L95.4312 80.8063C95.4312 80.7652 95.4547 80.7242 95.49 80.7007C95.5311 80.6772 95.5722 80.6713 95.6133 80.6889L98.3145 81.8331C98.3673 81.8507 98.3967 81.9036 98.3908 81.9622L96.453 103.062C96.4471 103.133 96.3943 103.186 96.3238 103.186V103.186ZM94.9967 102.822L96.2064 102.91L98.1207 82.0326L95.6896 81.0058L94.9967 102.822Z" fill="black"/>
<path d="M105.009 76.9864L104.439 99.1427L103.294 98.8963L102.243 75.9302L105.009 76.9864Z" fill="white"/>
<path fill-rule="evenodd" clip-rule="evenodd" d="M104.439 99.272C104.431 99.272 104.422 99.272 104.41 99.272L103.265 99.0255C103.206 99.0138 103.165 98.961 103.165 98.9023L102.114 75.9362C102.114 75.8952 102.131 75.8541 102.167 75.8247C102.202 75.8013 102.249 75.7954 102.29 75.8071L105.056 76.8633C105.109 76.8809 105.138 76.9337 105.138 76.9865L104.568 99.1488C104.568 99.184 104.551 99.225 104.521 99.2485C104.498 99.2661 104.469 99.272 104.439 99.272V99.272ZM103.423 98.7908L104.31 98.9845L104.874 77.0746L102.384 76.124L103.423 98.7908Z" fill="black"/>
<path d="M82.6535 76.4878L82.0839 98.65L80.8918 98.6559L79.8877 75.4375L82.6535 76.4878Z" fill="white"/>
<path fill-rule="evenodd" clip-rule="evenodd" d="M80.8916 98.7848C80.827 98.7848 80.7683 98.732 80.7625 98.6616L79.7583 75.4432C79.7583 75.3962 79.7759 75.3552 79.8112 75.3317C79.8464 75.3024 79.8934 75.2965 79.9345 75.3141L82.7003 76.3703C82.7531 76.3879 82.7884 76.4407 82.7825 76.4935L82.2129 98.6499C82.2129 98.7203 82.1542 98.7789 82.0837 98.7789L80.8975 98.7848C80.8975 98.7848 80.8956 98.7848 80.8916 98.7848V98.7848ZM80.0284 75.631L81.0208 98.5208H81.9545L82.5182 76.5815L80.0284 75.631Z" fill="black"/>
<path d="M94.1452 53.2812H102.989C105.913 53.2812 108.286 55.7222 108.286 58.7265V69.7284C108.286 77.2859 102.319 83.4118 94.9615 83.4118H71.4315C70.9852 83.4118 70.6211 83.048 70.6211 82.602C70.6211 77.5558 74.5966 73.4719 79.5058 73.4719C84.415 73.4719 88.3963 69.3822 88.3963 64.3418V59.1841C88.3963 55.9276 90.9683 53.2812 94.1452 53.2812V53.2812Z" fill="white"/>
<path fill-rule="evenodd" clip-rule="evenodd" d="M94.9613 83.5464H71.4313C70.9086 83.5464 70.4858 83.1181 70.4858 82.6017C70.4858 77.4968 74.5318 73.3425 79.5056 73.3425C84.3384 73.3425 88.2669 69.3056 88.2669 64.3415V59.1838C88.2669 55.8569 90.9036 53.1519 94.145 53.1519H102.989C105.983 53.1519 108.42 55.6515 108.42 58.7261V69.728C108.42 77.3443 102.384 83.5464 94.9613 83.5464V83.5464ZM94.145 53.4159C91.0445 53.4159 88.5253 56.0035 88.5253 59.1838V64.3415C88.5253 69.4464 84.4794 73.6007 79.5056 73.6007C74.6786 73.6007 70.7501 77.6377 70.7501 82.6017C70.7501 82.9773 71.0554 83.2824 71.4313 83.2824H94.9613C102.237 83.2824 108.156 77.2035 108.156 69.728V58.7261C108.156 55.7982 105.837 53.4159 102.989 53.4159H94.145Z" fill="black"/>
<path d="M90.528 61.6603C90.3812 64.553 86.717 71.9815 86.717 71.9815L76.8223 71.8407C85.4368 71.0779 86.717 59.4305 86.717 59.4305C86.717 59.4305 90.6807 58.7734 90.528 61.6603Z" fill="white"/>
<path fill-rule="evenodd" clip-rule="evenodd" d="M86.7167 72.1105L76.822 71.9697C76.7515 71.9697 76.6928 71.9169 76.6928 71.8464C76.687 71.776 76.7398 71.7174 76.8103 71.7115C81.1968 71.3242 83.6162 68.009 84.8787 65.2981C86.2528 62.3467 86.5817 59.4422 86.5875 59.4128C86.5934 59.3542 86.6404 59.3072 86.6932 59.3013C86.7872 59.2837 88.9071 58.9434 90.0169 59.9351C90.4808 60.3458 90.6981 60.9326 90.6629 61.6719C90.5102 64.5529 86.9868 71.735 86.8342 72.0401C86.8107 72.087 86.7696 72.1105 86.7167 72.1105V72.1105ZM78.2666 71.7291L86.6345 71.8523C87.0162 71.066 90.2635 64.3358 90.3986 61.6543C90.4338 61.003 90.2459 60.4866 89.8466 60.1287C88.954 59.3366 87.257 59.4891 86.8342 59.5419C86.7637 60.0876 86.3644 62.7222 85.1195 65.4037C83.5222 68.8363 81.1733 71.0015 78.2666 71.7291V71.7291Z" fill="black"/>
<path d="M101.586 55.816C102.584 58.7557 103.694 63.4381 103.013 69.0593C102.766 71.1365 102.314 72.9731 101.803 74.5339C100.91 76.4233 99.9531 76.9866 99.2367 77.1391C96.5355 77.7259 95.0028 73.0728 90.8276 72.9437C89.248 72.8968 88.2615 73.5305 86.306 72.9437C85.1257 72.5976 84.2449 71.9991 83.6812 71.5414C84.6853 70.7258 85.4193 69.875 85.9596 69.1004C89.7589 63.6435 87.5803 56.6551 87.1105 55.241C87.2867 53.7623 89.0484 51.8964 90.534 51.8436C96.6059 51.6265 97.3047 51.6323 98.9783 52.0255C100.945 52.489 101.292 54.8889 101.586 55.816V55.816Z" fill="#EC590C"/>
<path d="M85.5835 60.7328C85.5835 60.7328 86.57 52.8525 89.4004 52.1836L88.7486 62.5459L85.5835 60.7328Z" fill="#EC590C"/>
<path d="M99.9707 58.6323C101.263 59.178 102.783 59.8235 104.122 60.3985C104.122 60.4141 104.122 60.4298 104.122 60.4454L99.9707 58.6558V58.6323Z" fill="white"/>
<path d="M104.122 60.5806C104.103 60.5806 104.085 60.5766 104.069 60.5688L99.9235 58.7792C99.8765 58.7616 99.8472 58.7146 99.8413 58.6677V58.6383C99.8413 58.5914 99.8589 58.5503 99.8942 58.521C99.9353 58.4975 99.9822 58.4917 100.023 58.5093C101.603 59.1782 103.036 59.7884 104.175 60.2754C104.216 60.2989 104.251 60.3458 104.251 60.3928V60.4456C104.251 60.4867 104.234 60.5336 104.193 60.5571C104.173 60.5727 104.15 60.5806 104.122 60.5806V60.5806Z" fill="black"/>
<path d="M99.248 61.5249L98.3848 51.8433C98.3848 51.8433 103.312 51.8843 104.163 55.6866C104.568 57.4997 104.844 62.1762 104.844 62.1762L99.248 61.5249Z" fill="#EC590C"/>
<path d="M94.1453 51.1979L93.975 48.8333C93.8634 48.8274 93.7871 48.8215 93.7636 48.8215C93.1 48.8098 92.8886 48.5985 92.8299 48.0529C92.7947 47.7184 92.7829 47.2138 92.9474 46.5801C92.965 46.5155 92.9591 46.4451 92.9356 46.3806L92.824 46.1165C92.8006 46.0285 92.8299 45.9346 92.8945 45.8759L92.9591 45.829C93.1705 45.653 93.3525 45.4359 93.4935 45.1953C93.6285 44.9723 93.8517 44.5557 94.0044 44.4853C94.4389 44.2741 96.2006 43.3528 97.1812 44.9665C97.9505 46.2163 96.6938 47.9472 96.2417 48.5105C96.1301 48.6455 96.9875 51.3329 96.9875 51.3329L98.0914 51.5969C98.0914 51.5969 97.2341 53.1108 94.6503 52.483C92.8064 52.037 93.1 51.3505 93.1 51.3505L94.1453 51.1979Z" fill="white"/>
<path fill-rule="evenodd" clip-rule="evenodd" d="M95.8423 52.7707C95.4841 52.7707 95.0789 52.7237 94.6209 52.6123C93.7459 52.401 93.2057 52.1018 93.0236 51.7321C92.9003 51.4974 92.9708 51.3214 92.9825 51.3038C93.0001 51.2627 93.0354 51.2334 93.0823 51.2216L94.0043 51.0867L93.8516 48.9567C93.8046 48.9508 93.7753 48.9508 93.7577 48.9508C93.053 48.945 92.7652 48.7044 92.7007 48.0707C92.6478 47.5602 92.6889 47.0614 92.8181 46.5509C92.8298 46.5099 92.8298 46.4688 92.8122 46.4336L92.7007 46.1637C92.6967 46.1598 92.6948 46.1559 92.6948 46.1519C92.6595 46.0111 92.7065 45.8644 92.8122 45.7764L92.8768 45.7295C93.0706 45.5652 93.2409 45.3657 93.3818 45.1251L93.4406 45.0254C93.6343 44.6968 93.7929 44.4386 93.9514 44.3623L93.9925 44.3447C95.5134 43.6112 96.6233 43.7931 97.2927 44.8963C98.0737 46.1695 96.9169 47.8712 96.3591 48.5694C96.3591 48.7983 96.7231 50.0657 97.0872 51.2216L98.1207 51.4681C98.1618 51.4798 98.1912 51.5091 98.2088 51.5443C98.2264 51.5854 98.2205 51.6265 98.2029 51.6617C98.1736 51.7145 97.557 52.7707 95.8423 52.7707V52.7707ZM93.2115 51.4681C93.2174 51.5091 93.2233 51.5619 93.2585 51.6265C93.3525 51.7908 93.652 52.1076 94.6796 52.3599C96.6585 52.8352 97.5746 52.0255 97.8682 51.6793L96.9521 51.4563C96.911 51.4446 96.8758 51.4153 96.8582 51.3683C95.9832 48.6222 96.0889 48.4931 96.1418 48.4286C96.6527 47.789 97.7743 46.1813 97.0696 45.0312C96.1829 43.576 94.6209 44.333 94.11 44.5794L94.063 44.6029C93.9632 44.644 93.7635 44.9901 93.6696 45.1603L93.605 45.2601C93.4523 45.5241 93.2585 45.7471 93.0412 45.929L92.9825 45.9759C92.9532 45.9994 92.9414 46.0405 92.9473 46.0757L93.053 46.328C93.0941 46.416 93.1 46.5216 93.0765 46.6155C92.9473 47.0966 92.9121 47.5661 92.959 48.0413C93.006 48.4814 93.1352 48.6809 93.7635 48.6868C93.787 48.6868 93.8692 48.6927 93.9867 48.7044C94.0513 48.7044 94.1041 48.7572 94.1041 48.8217L94.2744 51.1923C94.2803 51.2568 94.2274 51.3214 94.1628 51.3272L93.2115 51.4681Z" fill="black"/>
<path d="M98.7431 45.5122C98.5611 46.762 97.1106 48.1526 96.5997 48.4812C96.4764 48.5575 96.3355 48.6162 96.1946 48.5868C95.9597 48.534 95.807 48.3286 95.7894 48.1643C95.7659 47.912 95.9655 47.6656 96.2063 47.6245C96.9932 47.5013 97.1048 46.4334 96.7465 46.2808C96.4647 46.1576 96.0654 46.6681 95.8833 46.938C95.8246 47.0202 95.713 47.0436 95.6308 46.9908C95.5545 46.9497 95.5193 46.8617 95.5427 46.7737C95.7013 46.1165 95.4429 45.653 95.2198 45.4593C94.979 45.254 93.5697 44.5264 93.5697 44.5264C93.3524 44.3562 92.8533 43.8457 93.2467 42.7896C93.278 42.7113 93.3133 42.6409 93.3524 42.5783C93.599 42.2087 93.8574 41.9387 94.4857 42.0913C95.0025 42.2204 95.0084 42.6663 95.3842 42.8013C95.6132 42.8893 96.1652 42.813 96.6408 42.9186C97.275 43.0536 98.9604 44.0042 98.7431 45.5122V45.5122Z" fill="black"/>
<path d="M93.7985 48.9389C93.7281 48.9389 93.6694 48.8861 93.6694 48.8157C93.6635 48.7394 93.7222 48.6807 93.7927 48.6807C93.7985 48.6807 94.3035 48.6572 94.6441 48.3639C94.7029 48.3169 94.7851 48.3228 94.8321 48.3756C94.879 48.4343 94.8732 48.5164 94.8144 48.5634C94.4034 48.9154 93.8279 48.9389 93.8044 48.9389C93.8005 48.9389 93.7985 48.9389 93.7985 48.9389V48.9389Z" fill="black"/>
<path d="M81.1501 97.8752L78.1377 93.8265L80.8859 91.8608C80.8859 91.8608 82.2776 96.1912 82.5184 96.4376L81.1501 97.8752Z" fill="white"/>
<path fill-rule="evenodd" clip-rule="evenodd" d="M81.15 98.0045C81.15 98.0045 81.148 98.0045 81.1441 98.0045C81.103 98.0045 81.0678 97.9869 81.0443 97.9517L78.0319 93.903C78.0142 93.8736 78.0025 93.8384 78.0084 93.8032C78.0142 93.768 78.0319 93.7387 78.0612 93.7211L80.8094 91.7554C80.8446 91.7319 80.8858 91.7261 80.9269 91.7378C80.968 91.7495 80.9973 91.7847 81.0091 91.8258C81.5376 93.4629 82.4419 96.1444 82.6122 96.3439C82.6592 96.3967 82.6592 96.4789 82.6122 96.5258L81.244 97.9634C81.2205 97.9927 81.1852 98.0045 81.15 98.0045V98.0045ZM78.3255 93.856L81.1617 97.6759L82.3538 96.4202C82.0308 95.7924 81.1148 92.9994 80.8153 92.0723L78.3255 93.856Z" fill="black"/>
<path d="M77.0748 101.009C77.3156 100.633 77.6738 100.228 78.1905 99.9524C78.9011 99.571 79.7056 96.2264 79.7056 96.2264L81.3322 96.1618C81.3322 96.1618 81.4849 94.3839 81.8607 94.3487C82.0427 94.3311 82.8355 94.7184 83.5871 95.1233C84.4151 95.5575 84.6911 96.6078 84.192 97.3999L82.3892 100.263C81.7256 101.273 80.604 101.889 79.3944 101.895L77.5681 101.906C77.1042 101.912 76.8164 101.396 77.0748 101.009Z" fill="black"/>
<path d="M77.7501 101.326C77.6855 101.326 77.6327 101.279 77.6209 101.214C77.6092 101.144 77.6562 101.073 77.7325 101.067L80.2282 100.686C80.7567 100.61 81.2089 100.305 81.4849 99.8468L83.6928 96.1561C83.728 96.0915 83.8103 96.0739 83.869 96.1091C83.9336 96.1502 83.9512 96.2265 83.916 96.291L81.708 99.9818C81.3968 100.504 80.8683 100.856 80.2693 100.944L77.7677 101.326C77.7638 101.326 77.7579 101.326 77.7501 101.326V101.326Z" fill="white"/>
<path d="M80.8331 98.5504C80.8253 98.5504 80.8155 98.5484 80.8037 98.5445L79.4061 98.1631C79.3415 98.1455 79.3004 98.0751 79.3181 98.0047C79.3357 97.9343 79.4061 97.8932 79.4766 97.9108L80.8683 98.2922C80.9388 98.3098 80.9799 98.3802 80.9623 98.4506C80.9447 98.5093 80.8918 98.5504 80.8331 98.5504V98.5504Z" fill="white"/>
<path d="M80.1105 99.266C80.0988 99.266 80.089 99.264 80.0812 99.2601L79.1475 99.0313C79.077 99.0137 79.03 98.9433 79.0477 98.8728C79.0653 98.8024 79.1357 98.7614 79.2062 98.779L80.1399 99.0078C80.2104 99.0254 80.2515 99.0958 80.2397 99.1662C80.2221 99.2249 80.1693 99.266 80.1105 99.266V99.266Z" fill="white"/>
<path d="M73.1401 95.6106L69.9515 98.8143L68.2603 98.1923L71.2022 94.0908L73.1401 95.6106Z" fill="white"/>
<path fill-rule="evenodd" clip-rule="evenodd" d="M69.9515 98.949C69.9358 98.949 69.9201 98.9451 69.9045 98.9372L68.2133 98.3153C68.1722 98.3035 68.1428 98.2742 68.1311 98.2331C68.1193 98.192 68.1311 98.151 68.1546 98.1216L71.0907 94.0143C71.1142 93.9849 71.1435 93.9673 71.1788 93.9615C71.214 93.9556 71.2551 93.9673 71.2786 93.9908L73.2223 95.5047C73.2517 95.5281 73.2693 95.5633 73.2693 95.5985C73.2751 95.6396 73.2575 95.6748 73.234 95.7042L70.0454 98.9079C70.0161 98.9314 69.9867 98.949 69.9515 98.949V98.949ZM68.4658 98.1334L69.9162 98.6673L72.9463 95.622L71.2257 94.2783L68.4658 98.1334Z" fill="black"/>
<path d="M91.6202 76.2411L78.1376 80.278L81.4906 92.295L77.9555 95.0587C77.9555 95.0587 66.7748 78.0542 71.1144 74.0994C75.4481 70.1446 90.0288 71.9342 90.0288 71.9342L91.6202 76.2411Z" fill="black"/>
<path fill-rule="evenodd" clip-rule="evenodd" d="M77.9555 95.1881C77.9477 95.1881 77.9418 95.1881 77.9379 95.1881C77.8968 95.1822 77.8674 95.1588 77.8498 95.1294C77.3859 94.4312 66.6574 77.9841 71.0263 73.9999C75.3541 70.051 89.4475 71.7291 90.0464 71.8054C90.0934 71.8113 90.1345 71.8406 90.1521 71.8875L91.7435 76.2003C91.7553 76.2296 91.7552 76.2707 91.7376 76.3C91.72 76.3352 91.6907 76.3587 91.6554 76.3705L78.302 80.3663L81.6198 92.2601C81.6315 92.3129 81.6139 92.3657 81.5728 92.3951L78.0377 95.1588C78.0142 95.1764 77.9849 95.1881 77.9555 95.1881V95.1881ZM82.8412 71.6646C78.5251 71.6646 73.4398 72.1516 71.2025 74.1935C67.18 77.8608 77.0101 93.3456 77.9908 94.8654L81.3438 92.2484L78.0142 80.3135C77.9966 80.2431 78.0319 80.1727 78.1023 80.1492L91.4499 76.1592L89.9349 72.0518C89.4122 71.9932 86.3822 71.6646 82.8412 71.6646V71.6646Z" fill="black"/>
<path d="M98.0562 79.756C95.9363 80.466 92.1488 81.3813 86.852 81.3051C85.3428 81.2875 83.957 82.1617 83.27 83.5759C81.7021 86.8148 78.3079 92.6532 72.7763 96.4378L70.1338 94.9357L76.8751 78.9463C77.4917 77.4852 78.6426 76.3469 80.0696 75.8012L93.4348 70.6376C93.4348 70.6376 97.5747 69.4171 99.6065 73.3133C99.9706 74.0115 100.646 72.7676 100.804 73.325C101.356 75.2496 99.8766 79.1516 98.0562 79.756V79.756Z" fill="black"/>
<path fill-rule="evenodd" clip-rule="evenodd" d="M72.7763 96.567C72.7528 96.567 72.7313 96.5612 72.7117 96.5494L70.0692 95.0473C70.0105 95.018 69.987 94.9475 70.0105 94.883L76.7577 78.8936C77.3801 77.409 78.5722 76.2355 80.0226 75.6781L93.3878 70.5145C93.4348 70.4969 97.6686 69.3058 99.7239 73.2547C99.767 73.3369 99.814 73.3838 99.8649 73.3956C99.9706 73.4249 100.129 73.3193 100.27 73.2254C100.434 73.108 100.593 73.0024 100.746 73.0611C100.836 73.0924 100.898 73.1687 100.934 73.2899C101.491 75.2497 99.9999 79.2456 98.0973 79.8852C95.8541 80.6363 92.0783 81.5106 86.8461 81.4401C86.8305 81.4362 86.8129 81.4343 86.7933 81.4343C85.3487 81.4343 84.0451 82.2734 83.3874 83.6288C81.8489 86.8149 78.4312 92.7296 72.8468 96.5436C72.8233 96.5592 72.7998 96.567 72.7763 96.567V96.567ZM70.2982 94.8771L72.7704 96.2795C78.2609 92.4949 81.6316 86.6624 83.1525 83.5173C83.8513 82.0739 85.3017 81.1526 86.852 81.1761C92.0489 81.2524 95.7895 80.3781 98.0151 79.6329C99.7709 79.0461 101.198 75.1852 100.681 73.3603C100.663 73.3134 100.652 73.3017 100.652 73.3017C100.617 73.3017 100.493 73.3897 100.417 73.4425C100.229 73.5657 100.018 73.7065 99.8003 73.6479C99.6769 73.6185 99.5713 73.5246 99.4949 73.3721C97.5336 69.6226 93.6344 70.714 93.47 70.761L80.1166 75.9187C78.7307 76.4526 77.5974 77.5733 76.9984 78.9933L70.2982 94.8771Z" fill="black"/>
<path d="M70.9559 98.3157C70.9559 98.3157 71.1144 99.677 70.8502 100.886C70.7092 101.525 70.1337 101.977 69.4761 101.977H61.6425C61.0846 101.977 60.8321 101.279 61.2608 100.921C62.6525 99.7533 65.2128 97.9695 68.3603 97.4473L69.2412 98.6795L70.9559 98.3157Z" fill="black"/>
<path d="M70.1338 101.032H62.0184C61.942 101.032 61.8833 100.973 61.8833 100.903C61.8833 100.833 61.942 100.774 62.0184 100.774H70.1338C70.2042 100.774 70.263 100.833 70.263 100.903C70.263 100.973 70.2042 101.032 70.1338 101.032Z" fill="white"/>
<path d="M66.5458 99.5889C66.493 99.5889 66.446 99.5596 66.4225 99.5127L65.9939 98.4682C65.9645 98.4037 65.9997 98.3215 66.0643 98.2981C66.1348 98.2687 66.2111 98.3039 66.2346 98.3685L66.6633 99.4129C66.6927 99.4775 66.6633 99.5537 66.5928 99.5831C66.5772 99.587 66.5615 99.5889 66.5458 99.5889V99.5889Z" fill="white"/>
<path d="M65.1307 99.8643C65.0778 99.8643 65.025 99.8291 65.0074 99.7763L64.6961 98.8316C64.6726 98.767 64.7137 98.6907 64.7783 98.6673C64.8488 98.6438 64.9252 98.6849 64.9486 98.7553L65.254 99.6941C65.2775 99.7587 65.2423 99.8349 65.1718 99.8584C65.16 99.8623 65.1463 99.8643 65.1307 99.8643V99.8643Z" fill="white"/>
<path d="M104.621 62.1414C102.836 69.2354 98.3732 72.932 89.8644 73.2313L88.9248 71.4886C95.0554 69.7518 99.2775 66.4482 100.699 61.2729L104.621 62.1414Z" fill="white"/>
<path fill-rule="evenodd" clip-rule="evenodd" d="M89.8645 73.3661C89.8117 73.3661 89.7706 73.3367 89.7471 73.2957L88.8134 71.553C88.7958 71.5178 88.7899 71.4767 88.8075 71.4356C88.8251 71.4004 88.8545 71.3769 88.8897 71.3652C95.2963 69.5462 99.2248 66.1371 100.575 61.2376C100.593 61.1672 100.658 61.1261 100.728 61.1437L104.651 62.018C104.686 62.0239 104.715 62.0473 104.733 62.0767C104.751 62.106 104.756 62.1412 104.751 62.1764C102.901 69.5169 98.1737 73.0727 89.8645 73.3661V73.3661ZM89.1187 71.5706L89.9408 73.102C98.0152 72.7969 102.631 69.3409 104.463 62.241L100.793 61.4254C99.401 66.319 95.4725 69.7281 89.1187 71.5706Z" fill="black"/>
<path d="M90.4162 71.412C90.5278 71.6349 90.5043 71.9107 90.3457 72.1044L90.3399 72.1102C90.1931 72.2921 89.9758 72.386 89.7468 72.3919C89.5941 72.3919 89.459 72.4212 89.3298 72.4858C89.0597 72.6266 88.9305 72.7674 88.3727 72.7263C87.9675 72.697 86.6874 72.2334 86.5464 72.2686C85.9298 72.4271 84.1917 72.785 84.0096 72.0222C83.8393 71.3122 85.8652 70.5553 86.8459 70.2326C87.1689 70.1269 87.6152 69.769 87.9264 69.9216L89.5941 70.8076C89.7174 70.8721 89.8407 70.9308 89.9699 70.9778C90.1461 71.0423 90.2929 71.1773 90.381 71.3474L90.4162 71.412Z" fill="white"/>
<path fill-rule="evenodd" clip-rule="evenodd" d="M88.5548 72.8671C88.4961 72.8671 88.4315 72.8632 88.361 72.8554C88.1379 72.8436 87.7034 72.7145 87.2806 72.5854C86.9928 72.5033 86.6405 72.3918 86.57 72.3977C85.9241 72.562 84.7379 72.7849 84.1741 72.4446C84.0215 72.3507 83.9216 72.2158 83.8805 72.0515C83.7044 71.2946 85.3721 70.5787 86.8049 70.1093C86.893 70.0799 86.9928 70.0271 87.1044 69.9743C87.3863 69.8335 87.7092 69.6692 87.9852 69.8042L89.6588 70.6902C89.7939 70.7665 89.9113 70.8193 90.017 70.8545C90.2225 70.9308 90.3928 71.0833 90.4985 71.2887L90.5279 71.3474C90.6688 71.6231 90.6336 71.9517 90.4457 72.1864C90.2754 72.3977 90.0229 72.515 89.7469 72.5209C89.6118 72.5209 89.4944 72.5444 89.3946 72.603C89.3515 72.6226 89.3123 72.6441 89.2771 72.6676C89.0951 72.7673 88.9248 72.8671 88.5548 72.8671V72.8671ZM86.57 72.1395C86.6698 72.1395 86.8636 72.1923 87.3569 72.339C87.7445 72.4505 88.1849 72.5854 88.3845 72.5972C88.8132 72.6324 88.9541 72.5502 89.1479 72.4387C89.1871 72.4153 89.2282 72.3918 89.2712 72.3683C89.4122 72.2979 89.5707 72.2569 89.7469 72.2569C89.9407 72.2569 90.1227 72.1747 90.2402 72.028C90.3693 71.8696 90.387 71.6466 90.2989 71.4706L90.2636 71.406C90.1932 71.2593 90.0699 71.1537 89.9231 71.1009C89.8056 71.0598 89.6823 71.0012 89.5355 70.9249L87.8678 70.0389C87.7092 69.9626 87.4508 70.0917 87.2218 70.209C87.1044 70.2677 86.9928 70.3205 86.8871 70.3557C85.0902 70.9484 84.0391 71.5703 84.1389 71.9928C84.1565 72.0867 84.2153 72.163 84.3151 72.2216C84.6557 72.4329 85.4778 72.4035 86.5172 72.1454C86.5289 72.1415 86.5465 72.1395 86.57 72.1395V72.1395Z" fill="black"/>
<path d="M28.1236 73.6831H93.6165C94.832 73.6831 95.7833 74.487 95.6424 75.3965L91.1208 105.38H87.8558L90.6863 77.2448C90.7391 76.746 90.2165 76.3236 89.5588 76.3236H33.3381C32.3575 76.3236 31.5764 76.9573 31.6528 77.6966L34.4538 105.556H31.1889L26.5909 74.9799C26.4852 74.2875 27.2016 73.6831 28.1236 73.6831V73.6831Z" fill="white"/>
<path fill-rule="evenodd" clip-rule="evenodd" d="M34.4541 105.685H31.1891C31.1245 105.685 31.0717 105.638 31.0599 105.574L26.462 74.9972C26.415 74.692 26.509 74.3811 26.7321 74.1287C27.0433 73.765 27.5601 73.5537 28.1238 73.5537H93.6167C94.3449 73.5537 95.0261 73.8295 95.4254 74.2989C95.7131 74.6275 95.8306 75.0265 95.7719 75.4196L91.2502 105.398C91.2444 105.462 91.1856 105.509 91.1211 105.509H87.8561C87.8209 105.509 87.7856 105.491 87.7621 105.468C87.7328 105.439 87.721 105.403 87.7269 105.368L90.5573 77.2269C90.5749 77.0274 90.481 76.8748 90.3988 76.7809C90.2109 76.5756 89.8996 76.4523 89.559 76.4523H33.3384C32.8157 76.4523 32.3342 76.646 32.0406 76.9687C31.8468 77.1799 31.7587 77.4322 31.7822 77.6846L34.5833 105.544C34.5892 105.579 34.5774 105.615 34.5539 105.644C34.5304 105.668 34.4952 105.685 34.4541 105.685V105.685ZM31.3007 105.421H34.3132L31.5239 77.708C31.4886 77.3853 31.6061 77.0567 31.8468 76.7927C32.1874 76.4171 32.7453 76.1942 33.3384 76.1942H89.559C89.9701 76.1942 90.3577 76.3467 90.5926 76.6108C90.7628 76.7927 90.8392 77.0274 90.8157 77.2562L88.0029 105.245H91.0095L95.5135 75.3786C95.5663 75.0558 95.4665 74.7448 95.2316 74.4691C94.8734 74.0583 94.2686 73.8119 93.6167 73.8119H28.1238C27.6364 73.8119 27.1902 73.9938 26.9259 74.2989C26.7556 74.4984 26.6851 74.7272 26.7204 74.9561L31.3007 105.421Z" fill="black"/>
<path d="M90.7861 72.7205C90.7861 73.2955 90.3222 73.7649 89.7467 73.7649H72.4354C71.8658 73.7649 71.4019 73.3072 71.3902 72.7381L68.2074 63.0505C68.1604 62.9039 68.1017 62.7572 68.0489 62.6163C67.9079 62.2525 68.1839 61.8359 68.6067 61.8359H77.9905C78.384 61.8359 78.7539 62.0354 78.9653 62.3582L82.4828 72.7205H90.7861Z" fill="#EC590C"/>
<path fill-rule="evenodd" clip-rule="evenodd" d="M89.7468 73.8942H72.4355C71.8072 73.8942 71.2845 73.3896 71.261 72.7676L68.0842 63.0918C68.0548 62.9862 68.0137 62.8864 67.9726 62.7867L67.9256 62.6635C67.8434 62.4464 67.8728 62.2058 68.0078 62.018C68.1429 61.8185 68.3602 61.707 68.6068 61.707H77.9906C78.431 61.707 78.8362 61.9241 79.0711 62.2879C79.0789 62.2958 79.0848 62.3055 79.0887 62.3173L82.5768 72.5916H90.7862C90.8567 72.5916 90.9154 72.6503 90.9154 72.7207C90.9154 73.3661 90.3927 73.8942 89.7468 73.8942V73.8942ZM71.5077 72.6855C71.5194 72.7011 71.5253 72.7187 71.5253 72.7383C71.5312 73.2312 71.9422 73.636 72.4355 73.636H89.7468C90.2048 73.636 90.5807 73.2957 90.6452 72.8556H82.4829C82.4241 72.8556 82.3772 72.8145 82.3595 72.7617L78.8421 62.417C78.6542 62.1354 78.3371 61.9652 77.9906 61.9652H68.6068C68.4482 61.9652 68.3073 62.0415 68.2192 62.1647C68.137 62.2879 68.1194 62.4346 68.1723 62.5696L68.2192 62.6869C68.2545 62.7926 68.3014 62.8982 68.3367 63.0097L71.5077 72.6855Z" fill="black"/>
<path d="M75.5066 67.1465C75.6417 67.5866 75.442 68.0384 75.0603 68.1499C74.6786 68.2672 74.2617 68.0032 74.1267 67.5631C73.9975 67.1289 74.1971 66.6771 74.5788 66.5597C74.9605 66.4482 75.3774 66.7123 75.5066 67.1465Z" fill="black"/>
<path d="M44.2019 73.9116H26.8905C26.4149 73.9116 26.0332 73.5302 26.0332 73.0549V72.8906H45.0592V73.0549C45.0592 73.5302 44.6716 73.9116 44.2019 73.9116V73.9116Z" fill="white"/>
<path fill-rule="evenodd" clip-rule="evenodd" d="M44.2021 74.0409H26.8908C26.3447 74.0409 25.9043 73.6008 25.9043 73.0551V72.8908C25.9043 72.8204 25.963 72.7617 26.0335 72.7617H45.0595C45.13 72.7617 45.1887 72.8204 45.1887 72.8908V73.0551C45.1887 73.6008 44.7424 74.0409 44.2021 74.0409ZM26.1627 73.0258V73.0551C26.1627 73.46 26.4915 73.7827 26.8908 73.7827H44.2021C44.6015 73.7827 44.9244 73.46 44.9244 73.0551V73.0258H26.1627Z" fill="black"/>
<path d="M45.0595 72.9082H34.1724L37.6311 62.7395C37.8366 62.4226 38.2007 62.229 38.5883 62.229H47.7842C48.207 62.229 48.4712 62.6339 48.3362 62.9918C48.2833 63.1326 48.2246 63.2734 48.1776 63.4143L45.0595 72.9082Z" fill="#EC590C"/>
<path fill-rule="evenodd" clip-rule="evenodd" d="M45.0593 73.0433H34.1722C34.1311 73.0433 34.0899 73.0199 34.0665 72.9847C34.043 72.9553 34.0371 72.9084 34.0488 72.8673L37.5076 62.6986C37.5115 62.6869 37.5154 62.6771 37.5193 62.6693C37.7542 62.3113 38.1535 62.0942 38.5881 62.0942H47.784C48.0306 62.0942 48.2479 62.2116 48.3771 62.4052C48.5063 62.593 48.5415 62.8277 48.4593 63.0331L48.4123 63.1563C48.3712 63.256 48.336 63.3558 48.3007 63.4555L45.1826 72.9494C45.165 73.0023 45.1121 73.0433 45.0593 73.0433V73.0433ZM34.3542 72.7793H44.9594L48.0541 63.3734C48.0893 63.2678 48.1304 63.1622 48.1657 63.0624L48.2126 62.9451C48.2655 62.816 48.242 62.6693 48.1657 62.5519C48.0776 62.4287 47.9425 62.3583 47.784 62.3583H38.5881C38.2475 62.3583 37.9363 62.5226 37.7483 62.7984L34.3542 72.7793Z" fill="black"/>
<path d="M41.9292 66.8588C42.305 66.9703 42.5046 67.4104 42.3696 67.8387C42.2404 68.2729 41.8352 68.5253 41.4594 68.4138C41.0836 68.3023 40.8898 67.8622 41.019 67.4339C41.1482 66.9997 41.5533 66.7474 41.9292 66.8588Z" fill="black"/>
<path d="M104.85 106.037H87.028C85.9593 106.037 85.1548 105.057 85.372 104.013L88.0733 90.8752C88.3023 89.7721 89.2771 88.98 90.4045 88.98H105.696L104.85 106.037Z" fill="white"/>
<path fill-rule="evenodd" clip-rule="evenodd" d="M104.85 106.172H87.028C86.476 106.172 85.9651 105.926 85.6128 105.504C85.2664 105.075 85.1313 104.524 85.2429 103.984L87.95 90.852C88.1848 89.6902 89.2184 88.8511 90.4045 88.8511H105.696C105.731 88.8511 105.766 88.8628 105.79 88.8863C105.813 88.9156 105.825 88.9508 105.825 88.986L104.979 106.049C104.979 106.114 104.921 106.172 104.85 106.172V106.172ZM90.4045 89.1093C89.3417 89.1093 88.4197 89.8662 88.2025 90.9048L85.5012 104.037C85.4073 104.5 85.5189 104.97 85.8183 105.333C86.1178 105.703 86.5582 105.908 87.028 105.908H104.727L105.555 89.1093H90.4045Z" fill="black"/>
<path d="M107.134 106.037H103.676C102.601 106.037 101.802 105.057 102.02 104.013L104.997 89.5433C105.067 89.2147 105.355 88.98 105.69 88.98H106.582C106.946 88.98 107.258 89.2616 107.287 89.6313L108.503 104.553C108.567 105.357 107.939 106.037 107.134 106.037Z" fill="white"/>
<path fill-rule="evenodd" clip-rule="evenodd" d="M107.135 106.172H103.676C103.124 106.172 102.613 105.926 102.261 105.504C101.914 105.075 101.779 104.524 101.891 103.984L104.868 89.52C104.95 89.1327 105.297 88.8511 105.69 88.8511H106.583C107.017 88.8511 107.381 89.1855 107.417 89.6197L108.638 104.541C108.667 104.958 108.526 105.374 108.239 105.685C107.957 105.996 107.552 106.172 107.135 106.172V106.172ZM105.69 89.1093C105.42 89.1093 105.179 89.3029 105.126 89.5728L102.149 104.037C102.055 104.5 102.167 104.97 102.466 105.333C102.766 105.703 103.206 105.908 103.676 105.908H107.135C107.487 105.908 107.81 105.768 108.051 105.509C108.286 105.251 108.403 104.917 108.374 104.565L107.158 89.6373C107.135 89.344 106.876 89.1093 106.583 89.1093H105.69Z" fill="black"/>
<path d="M102.425 96.0035H88.4666C88.3961 96.0035 88.3374 95.9448 88.3374 95.8744C88.3374 95.804 88.3961 95.7453 88.4666 95.7453H102.425C102.777 95.7453 103.083 95.5047 103.165 95.1585L104.392 89.9656C104.41 89.8952 104.48 89.8541 104.551 89.8717C104.621 89.8893 104.662 89.9598 104.65 90.0302L103.417 95.2172C103.306 95.6807 102.901 96.0035 102.425 96.0035V96.0035Z" fill="black"/>
<path d="M97.0343 95.8745L96.6467 97.447C96.5821 97.717 96.3414 97.9047 96.0712 97.9047H93.3054C93.0059 97.9047 92.7887 97.6172 92.865 97.3297L93.2702 95.8745H97.0343Z" fill="white"/>
<path fill-rule="evenodd" clip-rule="evenodd" d="M96.0711 98.034H93.3053C93.1233 98.034 92.953 97.9519 92.8414 97.8052C92.7299 97.6585 92.6887 97.4707 92.7416 97.2947L93.1468 95.8395C93.1585 95.7808 93.2114 95.7456 93.2701 95.7456H97.0342C97.0753 95.7456 97.1164 95.7632 97.1399 95.7925C97.1634 95.8278 97.1751 95.8688 97.1634 95.904L96.7699 97.4824C96.6936 97.8052 96.4059 98.034 96.0711 98.034V98.034ZM93.3699 96.0038L92.9941 97.3651C92.9647 97.459 92.9824 97.5646 93.047 97.6467C93.1115 97.7289 93.2055 97.7758 93.3053 97.7758H96.0711C96.2825 97.7758 96.4705 97.6291 96.5174 97.4179L96.8698 96.0038H93.3699Z" fill="black"/>
<path d="M101.151 104.852H86.3235C86.2531 104.852 86.1943 104.793 86.1943 104.723C86.1943 104.647 86.2531 104.588 86.3235 104.588H101.151C101.221 104.588 101.28 104.647 101.28 104.723C101.28 104.793 101.221 104.852 101.151 104.852Z" fill="black"/>
<path d="M94.4918 88.9505H92.2017C92.2017 88.6337 92.4542 88.3813 92.7713 88.3813H93.9281C94.2393 88.3813 94.4918 88.6337 94.4918 88.9505Z" fill="black"/>
<path fill-rule="evenodd" clip-rule="evenodd" d="M94.4916 89.0798H92.2015C92.131 89.0798 92.0723 89.0211 92.0723 88.9507C92.0723 88.5634 92.3835 88.2524 92.7711 88.2524H93.9279C94.3096 88.2524 94.6208 88.5634 94.6208 88.9507C94.6208 89.0211 94.5621 89.0798 94.4916 89.0798ZM92.3541 88.8157H94.3448C94.2861 88.6397 94.1217 88.5106 93.9279 88.5106H92.7711C92.5773 88.5106 92.407 88.6397 92.3541 88.8157V88.8157Z" fill="black"/>
<path d="M103.77 88.9505H101.479C101.479 88.6337 101.732 88.3813 102.043 88.3813H103.2C103.517 88.3813 103.77 88.6337 103.77 88.9505Z" fill="black"/>
<path fill-rule="evenodd" clip-rule="evenodd" d="M103.77 89.0798H101.48C101.409 89.0798 101.351 89.0211 101.351 88.9507C101.351 88.5634 101.662 88.2524 102.044 88.2524H103.2C103.588 88.2524 103.899 88.5634 103.899 88.9507C103.899 89.0211 103.84 89.0798 103.77 89.0798ZM101.627 88.8157H103.617C103.564 88.6397 103.394 88.5106 103.2 88.5106H102.044C101.85 88.5106 101.685 88.6397 101.627 88.8157V88.8157Z" fill="black"/>
<path d="M102.366 88.3522L102.513 87.4897C102.619 86.8794 102.202 86.3865 101.591 86.3865H95.0849C94.4742 86.3865 93.8928 86.8794 93.793 87.4897L93.6462 88.3522H93.1177L93.2997 87.2432C93.4348 86.4628 94.1805 85.8232 94.9616 85.8232H101.903C102.689 85.8232 103.218 86.4628 103.089 87.2432L102.901 88.3522H102.366Z" fill="white"/>
<path fill-rule="evenodd" clip-rule="evenodd" d="M102.901 88.481H102.366C102.331 88.481 102.296 88.4634 102.266 88.4341C102.243 88.4047 102.231 88.3695 102.237 88.3284L102.384 87.4659C102.431 87.2077 102.366 86.9671 102.22 86.7852C102.067 86.6092 101.85 86.5153 101.591 86.5153H95.0848C94.5328 86.5153 94.0101 86.9613 93.9221 87.5128L93.7753 88.3754C93.7635 88.4341 93.7107 88.481 93.6461 88.481H93.1176C93.0765 88.481 93.0412 88.4634 93.0177 88.4341C92.9884 88.4047 92.9825 88.3695 92.9884 88.3284L93.1704 87.2253C93.3172 86.3804 94.1158 85.6938 94.9614 85.6938H101.902C102.319 85.6938 102.683 85.8523 102.93 86.1457C103.188 86.4449 103.288 86.8439 103.218 87.2664L103.03 88.3754C103.018 88.4341 102.965 88.481 102.901 88.481V88.481ZM102.525 88.2228H102.789L102.959 87.2253C103.018 86.8791 102.936 86.5564 102.73 86.3158C102.537 86.0811 102.243 85.952 101.902 85.952H94.9614C94.2392 85.952 93.5521 86.5447 93.4288 87.2664L93.2702 88.2228H93.5345L93.6637 87.4659C93.7753 86.797 94.4153 86.2513 95.0848 86.2513H101.591C101.926 86.2513 102.22 86.3804 102.419 86.6209C102.619 86.8556 102.701 87.1725 102.642 87.5128L102.525 88.2228Z" fill="black"/>
<path d="M101.926 85.8112L101.838 86.3393C101.797 86.5857 101.568 86.7852 101.321 86.7852H95.2259C94.9792 86.7852 94.8148 86.5857 94.8559 86.3393L94.944 85.8112C94.9851 85.5647 95.22 85.3652 95.4607 85.3652H101.556C101.803 85.3652 101.967 85.5647 101.926 85.8112Z" fill="black"/>
<path fill-rule="evenodd" clip-rule="evenodd" d="M101.321 86.9145H95.2258C95.0672 86.9145 94.9263 86.8558 94.8323 86.7443C94.7384 86.627 94.6973 86.4803 94.7266 86.3218L94.8147 85.7879C94.8676 85.4769 95.1494 85.2363 95.4607 85.2363H101.556C101.715 85.2363 101.856 85.295 101.949 85.4065C102.043 85.5238 102.085 85.6705 102.055 85.829L101.967 86.3629C101.914 86.6739 101.632 86.9145 101.321 86.9145ZM95.4607 85.4945C95.2786 85.4945 95.1024 85.6471 95.0731 85.829L94.985 86.3629C94.9674 86.4451 94.985 86.5214 95.032 86.5742C95.079 86.627 95.1436 86.6563 95.2258 86.6563H101.321C101.503 86.6563 101.679 86.5037 101.709 86.3218L101.797 85.7879C101.814 85.7057 101.797 85.6295 101.75 85.5767C101.703 85.5238 101.638 85.4945 101.556 85.4945H95.4607Z" fill="black"/>
<path d="M103.641 104.852C103.594 104.852 103.553 104.829 103.529 104.788C103.494 104.723 103.511 104.641 103.576 104.606L105.901 103.286V90.0012C105.901 89.9249 105.96 89.8662 106.031 89.8662C106.101 89.8662 106.16 89.9249 106.16 90.0012V103.362C106.16 103.409 106.136 103.45 106.095 103.473L103.705 104.835C103.686 104.846 103.664 104.852 103.641 104.852V104.852Z" fill="black"/>
</g>
<defs>
<clipPath id="clip0_235_678">
<rect width="107.638" height="107.379" fill="white" transform="translate(1 1)"/>
</clipPath>
</defs>
</svg>
