<svg width="110" height="110" viewBox="0 0 110 110" fill="none" xmlns="http://www.w3.org/2000/svg">
<g clip-path="url(#clip0_235_678)">
<g clip-path="url(#clip1_235_678)">
<path d="M101.062 18.3275C100.989 18.3275 100.929 18.2734 100.929 18.1953V17.1674C100.929 17.0953 100.989 17.0352 101.062 17.0352C101.135 17.0352 101.195 17.0953 101.195 17.1674V18.1953C101.195 18.2734 101.135 18.3275 101.062 18.3275Z" fill="black"/>
<path d="M101.062 20.7255C100.989 20.7255 100.929 20.6653 100.929 20.5932V19.5653C100.929 19.4872 100.989 19.4331 101.062 19.4331C101.135 19.4331 101.195 19.4872 101.195 19.5653V20.5932C101.195 20.6653 101.135 20.7255 101.062 20.7255Z" fill="black"/>
<path d="M100.372 19.0125H99.3422C99.2635 19.0125 99.209 18.9524 99.209 18.8803C99.209 18.8082 99.2635 18.748 99.3422 18.748H100.372C100.45 18.748 100.511 18.8082 100.511 18.8803C100.511 18.9524 100.45 19.0125 100.372 19.0125Z" fill="black"/>
<path d="M102.788 19.0125H101.752C101.68 19.0125 101.619 18.9524 101.619 18.8803C101.619 18.8082 101.68 18.748 101.752 18.748H102.788C102.861 18.748 102.921 18.8082 102.921 18.8803C102.921 18.9524 102.861 19.0125 102.788 19.0125Z" fill="black"/>
<path fill-rule="evenodd" clip-rule="evenodd" d="M104.059 25.1439C103.872 25.1439 103.69 25.0898 103.52 24.9876C103.042 24.6931 102.891 24.068 103.175 23.5991C103.314 23.3707 103.532 23.2084 103.793 23.1483C104.059 23.0822 104.332 23.1303 104.568 23.2745C105.046 23.5691 105.198 24.1942 104.913 24.6691C104.774 24.8915 104.556 25.0538 104.295 25.1139C104.219 25.1339 104.14 25.1439 104.059 25.1439ZM104.029 23.3827C103.972 23.3827 103.914 23.3907 103.853 23.4068C103.666 23.4488 103.502 23.5691 103.405 23.7314C103.193 24.08 103.308 24.5428 103.666 24.7652C103.835 24.8734 104.041 24.9035 104.235 24.8614C104.423 24.8133 104.586 24.6991 104.683 24.5308C104.895 24.1822 104.78 23.7193 104.429 23.4969C104.301 23.4248 104.168 23.3827 104.029 23.3827Z" fill="black"/>
<path d="M81.3142 104.001H31.6579C29.5203 104.001 28.0003 102.288 28.2728 100.178L40.4992 4.4842C40.7717 2.37437 42.7216 0.661252 44.8592 0.661252L92.0206 0.114258C97.4344 0.114258 98.1731 2.37437 97.9006 4.4842L85.6743 100.178C85.4018 102.288 83.4519 104.001 81.3142 104.001V104.001Z" fill="black"/>
<path d="M78.3229 104.001H28.6727C26.529 104.001 25.0151 102.282 25.2876 100.154L37.5139 3.97932C37.7804 1.85145 39.7363 0.132324 41.874 0.132324H91.5303C93.6679 0.132324 95.1818 1.85145 94.9154 3.97932L82.689 100.154C82.4165 102.282 80.4606 104.001 78.3229 104.001Z" fill="white"/>
<path fill-rule="evenodd" clip-rule="evenodd" d="M78.3228 104.133H28.6726C27.6007 104.133 26.65 103.725 25.9838 102.973C25.3117 102.216 25.0149 101.212 25.1542 100.142L37.3806 3.9612C37.6591 1.77924 39.6757 0 41.8739 0H91.5302C92.5959 0 93.5467 0.414754 94.2128 1.16011C94.885 1.91749 95.1817 2.92131 95.0424 3.99727L82.8161 100.172C82.5436 102.354 80.5271 104.133 78.3228 104.133V104.133ZM41.8739 0.264481C39.8028 0.264481 37.9074 1.93552 37.641 3.99727L25.4146 100.172C25.2935 101.17 25.566 102.102 26.1837 102.799C26.7953 103.49 27.6794 103.869 28.6726 103.869H78.3228C80.3938 103.869 82.2953 102.198 82.5557 100.142L94.782 3.9612C94.9092 2.9694 94.6367 2.03169 94.013 1.33443C93.4013 0.643169 92.5172 0.264481 91.5302 0.264481H41.8739Z" fill="black"/>
<path d="M28.1158 100.286L39.7911 8.45749C39.8516 7.96459 40.2997 7.56787 40.7963 7.56787H90.7191C91.2096 7.56787 91.5608 7.96459 91.5002 8.45749L79.8249 100.286C79.7644 100.779 79.3102 101.176 78.8137 101.176H28.897C28.4004 101.176 28.0552 100.779 28.1158 100.286V100.286Z" fill="white"/>
<path d="M87.3155 41.4213C87.3074 41.4213 87.3014 41.4213 87.2973 41.4213C87.2247 41.4153 87.1702 41.3492 87.1823 41.2771L91.3667 8.43937C91.3909 8.24101 91.3364 8.04866 91.2153 7.91041C91.0882 7.77216 90.9125 7.70003 90.7188 7.70003H40.796C40.3661 7.70003 39.9724 8.04866 39.9179 8.46943L37.9862 23.6891C37.9801 23.7612 37.9075 23.8153 37.8348 23.8033C37.7621 23.7973 37.7137 23.7312 37.7197 23.653L39.6576 8.43937C39.7242 7.88637 40.2389 7.43555 40.796 7.43555H90.7188C90.9913 7.43555 91.2395 7.54374 91.4152 7.73609C91.5908 7.93445 91.6634 8.19292 91.6271 8.46943L87.4487 41.3071C87.4366 41.3733 87.3821 41.4213 87.3155 41.4213V41.4213Z" fill="black"/>
<path d="M32.3002 66.3727C32.2962 66.3727 32.2921 66.3727 32.2881 66.3727C32.2154 66.3606 32.1609 66.2945 32.167 66.2224L32.5485 63.1388C32.5545 63.0606 32.6211 63.0126 32.6938 63.0186C32.7665 63.0306 32.821 63.0967 32.8149 63.1688L32.4334 66.2585C32.4274 66.3246 32.3668 66.3727 32.3002 66.3727V66.3727Z" fill="black"/>
<path d="M29.9567 85.9443C29.9486 85.9443 29.9426 85.9443 29.9385 85.9443C29.8659 85.9383 29.8114 85.8661 29.8235 85.794L31.8279 70.0153C31.84 69.9432 31.9066 69.8891 31.9793 69.9011C32.0519 69.9071 32.1004 69.9732 32.0943 70.0454L30.0899 85.8301C30.0778 85.8962 30.0233 85.9443 29.9567 85.9443V85.9443Z" fill="black"/>
<path d="M42.2918 101.35L28.8967 101.308C28.6182 101.308 28.3699 101.2 28.2003 101.008C28.0247 100.809 27.946 100.551 27.9823 100.274L29.1813 90.8491C29.1874 90.777 29.254 90.7289 29.3267 90.7349C29.4054 90.7409 29.4538 90.807 29.4478 90.8852L28.2488 100.304C28.2245 100.503 28.273 100.695 28.4002 100.833C28.5213 100.965 28.6969 101.044 28.8967 101.044L42.2918 101.086C42.3645 101.086 42.425 101.146 42.425 101.218C42.425 101.296 42.3645 101.35 42.2918 101.35V101.35Z" fill="black"/>
<path fill-rule="evenodd" clip-rule="evenodd" d="M84.1423 17.5338H57.2916C56.7526 17.5338 56.2318 17.3054 55.8685 16.9086C55.5112 16.5119 55.3295 15.9769 55.384 15.442C55.487 14.4682 56.3045 13.7349 57.2916 13.7349H84.1423C84.6813 13.7349 85.202 13.9633 85.5654 14.36C85.9227 14.7567 86.1043 15.2917 86.0498 15.8267C85.9469 16.8004 85.1294 17.5338 84.1423 17.5338ZM57.2916 13.9993C56.4438 13.9993 55.7353 14.6305 55.6505 15.466C55.602 15.9289 55.7595 16.3857 56.0683 16.7283C56.3772 17.0709 56.8253 17.2693 57.2916 17.2693H84.1423C84.9901 17.2693 85.6986 16.6381 85.7834 15.7966C85.8318 15.3398 85.6744 14.8769 85.3655 14.5403C85.0506 14.1977 84.6086 13.9993 84.1423 13.9993H57.2916Z" fill="black"/>
<path fill-rule="evenodd" clip-rule="evenodd" d="M83.4338 24.4644H61.9241C61.3791 24.4644 60.8644 24.236 60.501 23.8393C60.1377 23.4426 59.9621 22.9076 60.0166 22.3726C60.1195 21.3989 60.937 20.6655 61.9241 20.6655H83.4338C83.9788 20.6655 84.4935 20.8939 84.8569 21.2907C85.2202 21.6874 85.3958 22.2224 85.3413 22.7573C85.2384 23.7311 84.4208 24.4644 83.4338 24.4644ZM61.9241 20.93C61.0763 20.93 60.3678 21.5612 60.283 22.4027C60.2346 22.8595 60.386 23.3224 60.7009 23.665C61.0097 24.0016 61.4578 24.2 61.9241 24.2H83.4338C84.2876 24.2 84.9901 23.5688 85.0749 22.7333C85.1233 22.2704 84.9719 21.8136 84.657 21.471C84.3482 21.1284 83.9001 20.93 83.4338 20.93H61.9241Z" fill="black"/>
<path d="M49.7222 72.4376C48.3052 72.636 46.9669 71.4638 46.7368 69.8168L43.8604 49.4638L48.9592 48.7485L51.8417 69.1376C52.0718 70.7666 51.1211 72.2392 49.7222 72.4376V72.4376Z" fill="white"/>
<path fill-rule="evenodd" clip-rule="evenodd" d="M49.4135 72.594C48.8745 72.594 48.3416 72.4077 47.8754 72.0651C47.1971 71.5541 46.7308 70.7427 46.6037 69.835L43.7333 49.482C43.7212 49.4099 43.7696 49.3437 43.8423 49.3317L48.9412 48.6164C48.9775 48.6104 49.0138 48.6164 49.0441 48.6405C49.0683 48.6585 49.0865 48.6946 49.0925 48.7246L51.975 69.1197C52.2112 70.8148 51.212 72.3596 49.7405 72.57C49.6315 72.586 49.5225 72.594 49.4135 72.594V72.594ZM44.0119 49.5782L46.8701 69.7989C46.9852 70.6405 47.4151 71.3858 48.0389 71.8547C48.5354 72.2274 49.1289 72.3897 49.7042 72.3055C51.0243 72.1192 51.9266 70.7066 51.7086 69.1558L48.8503 48.8929L44.0119 49.5782Z" fill="black"/>
<path d="M56.9465 34.6408L69.9238 23.4604L69.9299 23.4665C66.6416 26.3397 64.6554 34.19 65.2609 43.2725C65.8665 52.367 68.8883 59.9167 72.5398 62.3572L72.4248 62.3031L57.8852 52.8118L43.2547 51.814L36.8842 50.173L33.8443 48.4539H33.8685C33.2871 48.1413 32.7906 46.9692 32.6937 45.5326C32.5968 44.09 32.9238 42.8457 33.4749 42.485L33.493 42.467L36.43 40.279L42.5644 37.7605L56.777 34.785L56.9465 34.6408Z" fill="white"/>
<path d="M82.5258 42.2086C83.2767 53.4911 80.0248 62.8802 75.259 63.1747C70.4871 63.4693 66.012 54.5611 65.2611 43.2725C64.5102 31.99 67.7621 22.601 72.5279 22.3064C77.2937 22.0119 81.7749 30.9201 82.5258 42.2086Z" fill="black"/>
<path d="M75.0225 63.3131C72.7455 63.3131 70.4807 61.3054 68.6338 57.6267C66.7383 53.8519 65.4909 48.7606 65.1275 43.2846C64.5765 34.9896 66.1752 27.4218 69.1969 24.0076C70.2082 22.8655 71.3285 22.2464 72.5215 22.1743C74.3866 22.0601 76.2518 23.2923 77.9171 25.7387C79.5339 28.1071 80.8359 31.4251 81.6958 35.3382C81.714 35.4103 81.6655 35.4825 81.5928 35.4945C81.5202 35.5125 81.4536 35.4644 81.4354 35.3923C79.7217 27.5841 76.2578 22.4327 72.7577 22.4327C72.685 22.4327 72.6123 22.4347 72.5397 22.4387C71.4194 22.5049 70.3596 23.0939 69.4028 24.1819C66.4174 27.548 64.8429 35.0377 65.394 43.2666C66.1388 54.459 70.5595 63.3311 75.2465 63.0426C76.3668 62.9765 77.4205 62.3874 78.3834 61.2994C81.3688 57.9333 82.9433 50.4437 82.3922 42.2147C82.2771 40.4896 82.0712 38.7825 81.7806 37.1415C81.7685 37.0694 81.8169 36.9972 81.8896 36.9852C81.9622 36.9732 82.0289 37.0213 82.047 37.0934C82.3377 38.7464 82.5436 40.4655 82.6586 42.1967C83.2097 50.4918 81.611 58.0595 78.5892 61.4737C77.578 62.6158 76.4577 63.2349 75.2647 63.3071C75.184 63.3111 75.1032 63.3131 75.0225 63.3131V63.3131Z" fill="black"/>
<path d="M74.8954 60.939C72.8729 60.939 70.8684 59.1658 69.2334 55.9018C67.556 52.5658 66.4539 48.0636 66.1329 43.2188C65.6424 35.8854 67.0534 29.1953 69.736 26.1718C70.6323 25.1619 71.6193 24.6149 72.6791 24.5488C75.5071 24.3745 78.3532 27.8067 80.1033 33.5051C80.1215 33.5712 80.0851 33.6494 80.0125 33.6674C79.9398 33.6914 79.8671 33.6494 79.8429 33.5832C78.1352 28.0051 75.3981 24.645 72.6972 24.8133C71.7102 24.8734 70.7837 25.3903 69.9359 26.3461C67.3017 29.3215 65.9149 35.9395 66.3994 43.2067C67.0473 52.9324 70.8321 60.6745 74.8954 60.6745C74.96 60.6745 75.0246 60.6725 75.0892 60.6685C78.8377 60.4401 81.5809 53.5455 81.484 44.6373C81.4779 44.5652 81.5385 44.5051 81.6111 44.5051C81.6838 44.5051 81.7504 44.5652 81.7504 44.6373C81.7989 48.9772 81.1691 53.0166 79.9701 56.01C78.7529 59.0696 77.027 60.8128 75.1074 60.933C75.0347 60.937 74.9641 60.939 74.8954 60.939V60.939Z" fill="black"/>
<path d="M73.2906 42.7916C73.4662 45.4004 72.7153 47.5763 71.6071 47.6424C70.505 47.7146 69.4695 45.6528 69.2939 43.0381C69.1183 40.4233 69.8752 38.2474 70.9773 38.1812C72.0795 38.1151 73.115 40.1769 73.2906 42.7916V42.7916Z" fill="white"/>
<path fill-rule="evenodd" clip-rule="evenodd" d="M71.5527 47.7807C70.3839 47.7807 69.3424 45.725 69.1607 43.0441C69.0335 41.1026 69.409 39.3173 70.1296 38.5058C70.3839 38.2233 70.6625 38.067 70.9713 38.049C72.1582 37.9709 73.2422 40.0567 73.4239 42.7796C73.5571 44.7271 73.1756 46.5064 72.455 47.3179C72.2067 47.6064 71.9221 47.7566 71.6193 47.7747C71.5991 47.7787 71.5769 47.7807 71.5527 47.7807V47.7807ZM71.0319 38.3135C71.0157 38.3135 70.9996 38.3135 70.9834 38.3135C70.7533 38.3255 70.5353 38.4517 70.3294 38.6801C69.6573 39.4435 69.3 41.1506 69.4271 43.026C69.5967 45.5206 70.5898 47.5823 71.6011 47.5102C71.8312 47.4982 72.0492 47.372 72.2551 47.1435C72.9273 46.3862 73.2846 44.6791 73.1574 42.7976C72.9939 40.3452 72.025 38.3135 71.0319 38.3135V38.3135Z" fill="black"/>
<path fill-rule="evenodd" clip-rule="evenodd" d="M72.5339 62.4895C72.5178 62.4895 72.4996 62.4855 72.4794 62.4774L72.3704 62.4233C72.3664 62.4193 72.3603 62.4173 72.3522 62.4173L57.8368 52.9381L43.2488 51.9463C43.2407 51.9463 43.2326 51.9443 43.2246 51.9403L36.848 50.3053C36.8359 50.3013 36.8258 50.2953 36.8177 50.2873L33.7778 48.5682C33.7616 48.5561 33.7475 48.5421 33.7354 48.5261C33.1237 48.1414 32.6575 46.9572 32.5606 45.5447C32.4637 44.0479 32.7967 42.7796 33.3902 42.3769L33.4084 42.3649L36.3514 40.1709C36.3595 40.1629 36.3676 40.1569 36.3756 40.1529L42.5161 37.6403C42.5201 37.6363 42.5261 37.6323 42.5342 37.6283L56.7165 34.6649L69.8391 23.3583C69.8936 23.3162 69.9784 23.3162 70.0269 23.3703C70.0511 23.4004 70.0632 23.4365 70.0632 23.4725C70.0571 23.5026 70.045 23.5386 70.0147 23.5627C66.6599 26.502 64.8008 34.4184 65.3943 43.2665C65.9877 52.1266 68.8884 59.7545 72.6126 62.243C72.6671 62.2851 72.6853 62.3632 72.655 62.4233C72.6308 62.4654 72.5823 62.4895 72.5339 62.4895V62.4895ZM43.2791 51.6818L57.8913 52.6796C57.9156 52.6796 57.9378 52.6856 57.958 52.6977L71.0563 61.2512C67.9558 57.9452 65.6486 51.0807 65.1278 43.2845C64.6131 35.5425 65.9696 28.4917 68.5614 24.813L56.8679 34.8873C56.8518 34.8993 56.8316 34.9073 56.8074 34.9113L42.6069 37.8867L36.4967 40.3933L33.5598 42.5873C33.5557 42.5913 33.5517 42.5933 33.5476 42.5933C33.039 42.9299 32.7362 44.1621 32.827 45.5266C32.9179 46.8611 33.3841 48.0452 33.9291 48.3337C33.9493 48.3457 33.9655 48.3598 33.9776 48.3758L36.9327 50.0529L43.2791 51.6818Z" fill="black"/>
<path d="M56.8193 34.749L69.9237 23.4604L69.9298 23.4665C66.6416 26.3397 64.6553 34.19 65.2609 43.2725C65.8664 52.367 68.8882 59.9167 72.5398 62.3572L72.4247 62.3031L57.9093 52.8238L57.5702 52.6074C55.8867 51.4954 54.4879 48.0812 54.2214 43.9697C53.9489 39.7501 55.148 36.1736 56.6558 34.8872L56.8193 34.749Z" fill="white"/>
<path fill-rule="evenodd" clip-rule="evenodd" d="M72.5336 62.4895C72.5175 62.4895 72.4993 62.4855 72.4791 62.4774L72.3701 62.4233C72.3661 62.4193 72.36 62.4173 72.3519 62.4173L57.8365 52.9381L57.4974 52.7217C55.7171 51.5436 54.3485 48.0332 54.0881 43.9818C53.7914 39.3714 55.166 35.9813 56.5709 34.7851L56.7344 34.6529L69.8388 23.3583C69.8933 23.3162 69.9781 23.3162 70.0266 23.3703C70.0508 23.4004 70.0629 23.4365 70.0629 23.4725C70.0568 23.5026 70.0447 23.5386 70.0145 23.5627C66.6596 26.502 64.8005 34.4184 65.394 43.2665C65.9875 52.1266 68.8881 59.7545 72.6123 62.243C72.6668 62.2851 72.685 62.3632 72.6547 62.4233C72.6305 62.4654 72.5821 62.4895 72.5336 62.4895V62.4895ZM68.5611 24.813L56.904 34.8512L56.7405 34.9895C55.3477 36.1796 54.076 39.6479 54.3545 43.9638C54.6089 47.937 55.9351 51.3692 57.6428 52.4993L57.9819 52.7157L71.056 61.2512C67.9555 57.9452 65.6483 51.0807 65.1275 43.2845C64.6128 35.5425 65.9693 28.4917 68.5611 24.813V24.813Z" fill="black"/>
<path d="M36.7147 50.2151C36.6946 50.2151 36.6744 50.2091 36.6542 50.197L33.7778 48.5681C33.7616 48.5561 33.7475 48.542 33.7354 48.526C33.1237 48.1413 32.6575 46.9571 32.5606 45.5446C32.4637 44.0479 32.7967 42.7796 33.3902 42.3768L33.4084 42.3648L36.3514 40.1708C36.4059 40.1287 36.4907 40.1408 36.5391 40.1949C36.5815 40.255 36.5694 40.3391 36.5089 40.3812L33.5598 42.5872C33.5557 42.5912 33.5517 42.5932 33.5476 42.5932C33.039 42.9298 32.7362 44.1621 32.827 45.5265C32.9179 46.861 33.3841 48.0451 33.9291 48.3337C33.9493 48.3457 33.9655 48.3597 33.9776 48.3757L36.7814 49.9686C36.848 50.0047 36.8722 50.0828 36.8359 50.149C36.8116 50.191 36.7632 50.2151 36.7147 50.2151V50.2151Z" fill="black"/>
<path d="M33.8443 48.4541H33.8685C33.2871 48.1415 32.7906 46.9694 32.6937 45.5328C32.5968 44.0902 32.9238 42.8459 33.4749 42.4852L33.493 42.4672L36.5269 40.2432C35.558 40.706 34.8858 42.9 35.0493 45.3705C35.2068 47.7027 35.9698 49.6743 36.9145 50.1672L33.8443 48.4541Z" fill="white"/>
<path fill-rule="evenodd" clip-rule="evenodd" d="M36.9146 50.3057C36.8944 50.3057 36.8742 50.2997 36.854 50.2876C36.8298 50.2756 36.8056 50.2616 36.7814 50.2456L33.7778 48.5685C33.7616 48.5605 33.7475 48.5465 33.7354 48.5264C33.1237 48.1417 32.6575 46.9576 32.5606 45.545C32.4637 44.0483 32.7967 42.78 33.3902 42.3773L33.4084 42.3652L36.0728 40.4117C36.198 40.2835 36.3292 40.1873 36.4665 40.1232C36.5331 40.0931 36.6057 40.1111 36.6421 40.1713C36.6784 40.2314 36.6602 40.3095 36.6057 40.3456L36.2363 40.6161C35.4976 41.3794 35.0434 43.309 35.1827 45.3647C35.3341 47.6008 36.0426 49.4942 36.9146 50.0172L36.9812 50.0532C37.0478 50.0893 37.066 50.1674 37.0357 50.2335C37.0115 50.2756 36.963 50.3057 36.9146 50.3057V50.3057ZM33.9776 48.3762L36.0971 49.5603C35.4794 48.6587 35.0313 47.1379 34.9162 45.3767C34.8012 43.6816 35.0737 42.0887 35.5944 41.0909L33.5598 42.5876C33.5557 42.5917 33.5517 42.5937 33.5476 42.5937C33.039 42.9303 32.7362 44.1625 32.827 45.527C32.9179 46.8614 33.3841 48.0456 33.9291 48.3341C33.9493 48.3461 33.9655 48.3601 33.9776 48.3762V48.3762Z" fill="black"/>
<path d="M37.0234 50.2094C36.0424 49.7886 35.2067 47.7689 35.0492 45.3706C34.8857 42.8821 35.564 40.676 36.545 40.2312L42.3584 37.8449L42.5643 37.7607C41.0746 38.1575 40.0573 41.2651 40.3055 44.9258C40.5417 48.5143 41.8013 51.5017 43.297 51.8143L43.0245 51.7542L37.0234 50.2094Z" fill="white"/>
<path fill-rule="evenodd" clip-rule="evenodd" d="M43.2971 51.9465C43.289 51.9465 43.2809 51.9465 43.2728 51.9465C43.2648 51.9425 43.2567 51.9405 43.2486 51.9405L42.9943 51.8864C42.9943 51.8864 42.9923 51.8864 42.9882 51.8864L36.9931 50.3356C36.9851 50.3356 36.979 50.3336 36.975 50.3296C35.9274 49.8848 35.0796 47.8471 34.9161 45.3766C34.7465 42.864 35.4247 40.5979 36.4845 40.111L42.1889 37.7668C42.3019 37.7066 42.415 37.6626 42.528 37.6345C42.6007 37.6165 42.6673 37.6525 42.6915 37.7187C42.7157 37.7848 42.6794 37.8569 42.6128 37.881L42.2858 38.0192C41.0141 38.7345 40.2147 41.6258 40.4388 44.9137C40.675 48.4662 41.9043 51.3635 43.3092 51.6821L43.3274 51.6881C43.4 51.7001 43.4424 51.7722 43.4303 51.8443C43.4182 51.9045 43.3576 51.9465 43.2971 51.9465V51.9465ZM37.0719 50.0831L42.3827 51.4536C41.2442 50.4137 40.3722 47.9252 40.1724 44.9318C39.9786 42.0886 40.5599 39.528 41.5591 38.3198L36.5935 40.3575C35.6427 40.7842 35.0251 42.9842 35.1825 45.3646C35.34 47.6908 36.1332 49.6684 37.0719 50.0831V50.0831Z" fill="black"/>
<path d="M70.9773 38.1816C69.8752 38.2477 69.0698 40.4296 69.2939 43.0384C69.6633 47.4143 71.3831 47.6608 71.595 47.6728V47.6788L67.1139 48.887C66.7384 47.1138 66.4719 45.2023 66.3387 43.2067C66.2116 41.2952 66.2176 39.4439 66.3387 37.7007L70.9773 38.1816Z" fill="black"/>
<path fill-rule="evenodd" clip-rule="evenodd" d="M66.2599 92.3457C66.3204 92.9649 66.3204 93.578 66.278 94.1851L68.8517 95.5075L68.1795 98.0621L65.2728 97.9599C65.0124 98.519 64.7036 99.0479 64.3584 99.5528L65.9207 101.981L64.0496 103.857L61.591 102.336C61.0883 102.685 60.5554 102.991 59.9923 103.256L60.1194 106.135L57.5579 106.832L56.1954 104.289C55.5716 104.344 54.9479 104.35 54.3424 104.301L53.0041 106.856L50.4304 106.189L50.5334 103.31C49.9702 103.051 49.4373 102.745 48.9226 102.402L46.4761 103.953L44.5867 102.095L46.1248 99.655C45.7736 99.1621 45.4587 98.6272 45.1923 98.0681L42.2916 98.2004L41.5892 95.6578L44.1507 94.3053C44.0962 93.6862 44.0901 93.0731 44.1386 92.466L41.5649 91.1436L42.2371 88.5889L45.1378 88.6911C45.3982 88.1321 45.707 87.6031 46.0582 87.0982L44.4898 84.6698L46.361 82.7944L48.8196 84.3151C49.3222 83.9665 49.8612 83.66 50.4244 83.3955L50.2911 80.5162L52.8587 79.819L54.2212 82.3616C54.845 82.3075 55.4626 82.3015 56.0743 82.3496L57.4065 79.7949L59.9802 80.4621L59.8833 83.3414C60.4404 83.5998 60.9793 83.9064 61.488 84.249L63.9345 82.6982L65.8239 84.5556L64.2918 86.996C64.643 87.4889 64.9518 88.0239 65.2243 88.5829L68.125 88.4507L68.8275 90.9933L66.2599 92.3457ZM61.8029 91.5343C60.8098 87.9157 57.0432 85.7878 53.3977 86.7796C49.7461 87.7654 47.6024 91.5042 48.6016 95.1168C49.6008 98.7354 53.3674 100.863 57.0129 99.8714C60.6584 98.8796 62.8021 95.1468 61.8029 91.5343Z" fill="#EC590C"/>
<path fill-rule="evenodd" clip-rule="evenodd" d="M53.0041 106.988C52.992 106.988 52.9819 106.986 52.9738 106.982L50.4002 106.315C50.3396 106.303 50.2972 106.243 50.2972 106.183L50.3941 103.394C49.8854 103.154 49.3889 102.871 48.9226 102.558L46.5488 104.061C46.4943 104.097 46.4277 104.091 46.3853 104.049L44.4959 102.192C44.4475 102.15 44.4414 102.078 44.4717 102.029L45.9614 99.6612C45.6465 99.2043 45.3619 98.7175 45.1075 98.2065L42.2977 98.3328C42.2372 98.3388 42.1766 98.2967 42.1584 98.2366L41.456 95.694C41.4439 95.6338 41.4681 95.5677 41.5226 95.5377L44.0115 94.2273C43.963 93.6623 43.957 93.0972 43.9994 92.5442L41.4984 91.2579C41.4439 91.2338 41.4197 91.1677 41.4318 91.1076L42.11 88.559C42.1221 88.4989 42.1827 88.4568 42.2432 88.4568L45.0591 88.553C45.3013 88.048 45.5799 87.5612 45.8948 87.0923L44.3809 84.742C44.3445 84.6879 44.3506 84.6218 44.399 84.5737L46.2642 82.7043C46.3126 82.6562 46.3792 82.6502 46.4337 82.6803L48.8197 84.159C49.2799 83.8464 49.7704 83.5579 50.2851 83.3114L50.158 80.5224C50.158 80.4623 50.1943 80.4022 50.2548 80.3901L52.8224 79.6929C52.883 79.6748 52.9435 79.7049 52.9738 79.759L54.3 82.2235C54.8692 82.1754 55.4385 82.1694 55.9956 82.2114L57.2915 79.7349C57.3218 79.6808 57.3823 79.6508 57.4429 79.6688L60.0165 80.336C60.0771 80.3541 60.1134 80.4082 60.1134 80.4683L60.0165 83.2573C60.5252 83.4978 61.0218 83.7803 61.4881 84.0929L63.8619 82.5901C63.9164 82.5541 63.983 82.5601 64.0314 82.6082L65.9208 84.4595C65.9632 84.5016 65.9753 84.5737 65.939 84.6218L64.4493 86.9901C64.7702 87.447 65.0548 87.9338 65.3031 88.4448L68.119 88.3185C68.1796 88.3185 68.2341 88.3546 68.2522 88.4147L68.9547 90.9573C68.9728 91.0174 68.9426 91.0836 68.8881 91.1136L66.4052 92.424C66.4476 92.989 66.4537 93.5541 66.4174 94.1071L68.9123 95.3934C68.9668 95.4175 68.9971 95.4836 68.9789 95.5437L68.3067 98.0923C68.2886 98.1524 68.2401 98.1945 68.1796 98.1945C68.1755 98.1945 68.1735 98.1945 68.1735 98.1945L65.3576 98.0983C65.1154 98.6032 64.8308 99.0901 64.5159 99.559L66.0359 101.909C66.0661 101.963 66.0601 102.029 66.0177 102.078L64.1465 103.953C64.1041 103.995 64.0375 104.001 63.983 103.971L61.5971 102.492C61.1368 102.805 60.6463 103.093 60.1255 103.34L60.2527 106.129C60.2588 106.189 60.2164 106.249 60.1558 106.261L57.5943 106.958C57.5337 106.976 57.4671 106.946 57.4368 106.892L56.1167 104.428C55.5475 104.476 54.9722 104.482 54.4151 104.44L53.1252 106.916C53.101 106.964 53.0526 106.988 53.0041 106.988ZM50.5697 106.087L52.9375 106.7L54.2213 104.241C54.2455 104.193 54.3 104.163 54.3485 104.169C54.948 104.217 55.5656 104.211 56.1833 104.157C56.2318 104.151 56.2863 104.181 56.3105 104.229L57.6246 106.676L59.9863 106.033L59.8591 103.262C59.853 103.214 59.8833 103.16 59.9318 103.141C60.4889 102.877 61.0218 102.564 61.5123 102.228C61.5607 102.192 61.6152 102.192 61.6637 102.222L64.0314 103.688L65.7512 101.963L64.2434 99.6251C64.2131 99.583 64.2192 99.5229 64.2494 99.4808C64.5886 98.9819 64.8974 98.453 65.1517 97.906C65.176 97.8579 65.2244 97.8218 65.2789 97.8278L68.0766 97.924L68.6943 95.5797L66.2115 94.3054C66.1691 94.2814 66.1388 94.2273 66.1449 94.1732C66.1873 93.5841 66.1872 92.971 66.1267 92.3579C66.1267 92.3098 66.1509 92.2557 66.1994 92.2317L68.6701 90.9273L68.0221 88.589L65.2305 88.7153C65.176 88.7153 65.1275 88.6852 65.1033 88.6371C64.8368 88.0841 64.528 87.5552 64.1828 87.0683C64.1526 87.0262 64.1465 86.9721 64.1768 86.924L65.6543 84.5737L63.9164 82.8666L61.5607 84.3634C61.5123 84.3934 61.4578 84.3934 61.4154 84.3634C60.9128 84.0207 60.3738 83.7202 59.8228 83.4617C59.7743 83.4437 59.744 83.3896 59.7501 83.3355L59.8409 80.5644L57.4792 79.9513L56.1894 82.4098C56.1652 82.4579 56.1167 82.4879 56.0622 82.4819C55.4627 82.4338 54.8511 82.4399 54.2334 82.494C54.1789 82.5 54.1305 82.4699 54.1002 82.4218L52.7861 79.9754L50.4305 80.6185L50.5576 83.3896C50.5576 83.4377 50.5273 83.4918 50.4789 83.5158C49.9218 83.7743 49.3889 84.0808 48.8984 84.4235C48.856 84.4595 48.7954 84.4595 48.753 84.4295L46.3792 82.9628L44.6594 84.6879L46.1673 87.0262C46.1976 87.0683 46.1976 87.1284 46.1673 87.1705C45.8221 87.6694 45.5193 88.1983 45.2589 88.7453C45.2408 88.7934 45.1863 88.8295 45.1378 88.8235L42.3401 88.7273L41.7164 91.0715L44.1992 92.3459C44.2476 92.3759 44.2779 92.424 44.2719 92.4781C44.2234 93.0672 44.2295 93.6803 44.284 94.2934C44.29 94.3475 44.2598 94.3956 44.2113 94.4196L41.7467 95.724L42.3886 98.0623L45.1863 97.936C45.2347 97.936 45.2892 97.9661 45.3134 98.0142C45.5799 98.5672 45.8887 99.0961 46.2339 99.583C46.2642 99.6251 46.2642 99.6852 46.2339 99.7273L44.7563 102.078L46.4943 103.785L48.856 102.288C48.8984 102.258 48.9589 102.258 49.0013 102.288C49.5039 102.631 50.0368 102.931 50.5879 103.19C50.6364 103.214 50.6666 103.262 50.6666 103.316L50.5697 106.087ZM55.2084 100.244C52.1442 100.244 49.3223 98.2246 48.4745 95.153C47.984 93.3677 48.2201 91.5043 49.1406 89.8934C50.0671 88.2885 51.5629 87.1344 53.3614 86.6475C57.0735 85.6377 60.9188 87.8136 61.9362 91.4983C62.4328 93.2776 62.1905 95.147 61.2701 96.7519C60.3436 98.3568 58.8478 99.5109 57.0493 99.9978C56.4377 100.166 55.8139 100.244 55.2084 100.244ZM55.2023 86.6655C54.621 86.6655 54.0275 86.7437 53.4341 86.906C51.7021 87.3748 50.2609 88.4808 49.3768 90.0256C48.4866 91.5705 48.2565 93.3677 48.7349 95.0808C49.7098 98.6213 53.4098 100.713 56.9766 99.7453C58.7085 99.2765 60.1498 98.1644 61.0399 96.6196C61.9241 95.0748 62.1542 93.2776 61.6818 91.5644C60.8643 88.6131 58.1514 86.6655 55.2023 86.6655V86.6655Z" fill="black"/>
<path fill-rule="evenodd" clip-rule="evenodd" d="M87.6062 89.4305C87.4972 89.8693 87.3579 90.2961 87.1823 90.7048L88.6477 92.2135L87.5819 93.8245L85.5957 93.0791C85.2868 93.4037 84.9477 93.6982 84.5844 93.9687L85.0931 96.0125L83.3611 96.872L82.0168 95.2491C81.5929 95.3753 81.1448 95.4594 80.6967 95.5135L80.1032 97.5332L78.1715 97.419L77.8263 95.3452C77.3842 95.243 76.9543 95.0988 76.5425 94.9245L75.0165 96.3791L73.3996 95.3212L74.1445 93.3556C73.8175 93.0491 73.5207 92.7124 73.2482 92.3518L71.1893 92.8567L70.3233 91.1376L71.9584 89.8092C71.8373 89.3824 71.7464 88.9436 71.6919 88.4928L69.6572 87.9097L69.7723 85.9922L71.8615 85.6496C71.9705 85.2108 72.1098 84.784 72.2854 84.3813L70.8199 82.8665L71.8918 81.2616L73.872 82.001C74.1808 81.6764 74.5199 81.3819 74.8832 81.1114L74.3746 79.0737L76.1125 78.2081L77.4508 79.831C77.8808 79.7108 78.3229 79.6206 78.777 79.5665L79.3644 77.5469L81.3022 77.6611L81.6413 79.7349C82.0895 79.8431 82.5194 79.9813 82.9251 80.1556L84.4512 78.701L86.0741 79.7589L85.3232 81.7245C85.6502 82.037 85.9469 82.3676 86.2194 82.7283L88.2783 82.2234L89.1443 83.9425L87.5093 85.2709C87.6364 85.6977 87.7273 86.1365 87.7757 86.5873L89.8165 87.1704L89.7014 89.0879L87.6062 89.4305ZM84.7176 87.8376C84.8811 85.1026 82.7859 82.7583 80.0305 82.5961C77.2752 82.4338 74.9075 84.5196 74.744 87.2485C74.5805 89.9835 76.6818 92.3277 79.431 92.49C82.1864 92.6523 84.5541 90.5665 84.7176 87.8376Z" fill="white"/>
<path fill-rule="evenodd" clip-rule="evenodd" d="M80.1032 97.6654C80.1032 97.6654 80.1012 97.6654 80.0972 97.6654L78.1594 97.5512C78.0988 97.5512 78.0443 97.5031 78.0383 97.443L77.7113 95.4533C77.3176 95.3572 76.9361 95.2309 76.5728 95.0807L75.1073 96.4752C75.0649 96.5173 74.9923 96.5293 74.9438 96.4932L73.3209 95.4353C73.2725 95.3992 73.2482 95.3331 73.2725 95.273L73.9931 93.3916C73.7024 93.1151 73.436 92.8145 73.1937 92.502L71.2256 92.9889C71.1651 93.0009 71.0985 92.9768 71.0743 92.9167L70.2022 91.1976C70.178 91.1435 70.1901 91.0774 70.2386 91.0353L71.807 89.761C71.7041 89.3883 71.6193 88.9976 71.5708 88.6009L69.6209 88.0419C69.5603 88.0238 69.518 87.9637 69.524 87.9036L69.6391 85.9861C69.6391 85.92 69.6875 85.8719 69.7481 85.8599L71.7525 85.5353C71.8554 85.1446 71.9826 84.7659 72.1279 84.4053L70.723 82.9566C70.6806 82.9145 70.6746 82.8424 70.7109 82.7943L71.7767 81.1834C71.8131 81.1353 71.8797 81.1113 71.9342 81.1353L73.8356 81.8446C74.1142 81.5621 74.417 81.2976 74.7319 81.0572L74.2474 79.1036C74.2292 79.0435 74.2595 78.9834 74.314 78.9533L76.052 78.0938C76.1065 78.0637 76.1731 78.0757 76.2155 78.1238L77.4993 79.6807C77.8748 79.5785 78.2744 79.4943 78.6741 79.4462L79.2373 77.5107C79.2554 77.4506 79.3099 77.4146 79.3705 77.4146L81.3083 77.5288C81.3689 77.5348 81.4234 77.5768 81.4355 77.637L81.7625 79.6266C82.15 79.7227 82.5315 79.849 82.9009 79.9992L84.3603 78.6047C84.4088 78.5626 84.4754 78.5566 84.5239 78.5867L86.1468 79.6506C86.2013 79.6807 86.2194 79.7468 86.1952 79.8069L85.4806 81.6883C85.7653 81.9648 86.0317 82.2654 86.2739 82.5779L88.2481 82.091C88.3086 82.079 88.3692 82.1091 88.3995 82.1632L89.2654 83.8823C89.2957 83.9364 89.2775 84.0025 89.2291 84.0446L87.6607 85.3189C87.7697 85.6976 87.8484 86.0883 87.8968 86.485L89.8528 87.0441C89.9134 87.0561 89.9497 87.1162 89.9497 87.1763L89.8347 89.0998C89.8286 89.1599 89.7801 89.208 89.7196 89.22L87.7152 89.5446C87.6183 89.9353 87.4911 90.314 87.3397 90.6747L88.7446 92.1233C88.787 92.1654 88.7931 92.2375 88.7628 92.2856L87.691 93.8965C87.6546 93.9446 87.5941 93.9686 87.5335 93.9446L85.632 93.2353C85.3535 93.5178 85.0568 93.7823 84.7358 94.0227L85.2263 95.9763C85.2384 96.0364 85.2142 96.1025 85.1536 96.1266L83.4217 96.9921C83.3672 97.0162 83.2946 97.0042 83.2582 96.9561L81.9744 95.3992C81.5929 95.5074 81.1993 95.5856 80.7996 95.6337L80.2365 97.5692C80.2183 97.6293 80.1638 97.6654 80.1032 97.6654V97.6654ZM78.2805 97.2927L80.0063 97.3949L80.5635 95.4774C80.5816 95.4293 80.624 95.3872 80.6785 95.3812C81.1266 95.3331 81.5626 95.243 81.9805 95.1227C82.035 95.1047 82.0895 95.1227 82.1198 95.1648L83.3975 96.7036L84.9417 95.9402L84.4572 93.9987C84.4451 93.9506 84.4633 93.8965 84.5057 93.8604C84.863 93.602 85.196 93.3074 85.4988 92.9889C85.5351 92.9468 85.5957 92.9348 85.6441 92.9528L87.5275 93.6621L88.4782 92.2315L87.0854 90.7949C87.0491 90.7588 87.0369 90.6987 87.0612 90.6506C87.2307 90.2539 87.37 89.8331 87.479 89.4003C87.4911 89.3462 87.5335 89.3102 87.588 89.2982L89.5743 88.9736L89.6772 87.2665L87.7394 86.7135C87.691 86.6954 87.6546 86.6533 87.6425 86.5992C87.5941 86.1604 87.5032 85.7216 87.3821 85.3069C87.3639 85.2588 87.3821 85.2047 87.4245 85.1686L88.9808 83.9064L88.2057 82.3736L86.2497 82.8544C86.2013 82.8665 86.1468 82.8484 86.1104 82.8064C85.85 82.4577 85.5533 82.1211 85.2324 81.8206C85.19 81.7845 85.1779 81.7304 85.196 81.6763L85.9106 79.8129L84.4694 78.8692L83.0221 80.2517C82.9797 80.2878 82.9252 80.2998 82.8767 80.2758C82.471 80.1074 82.0471 79.9692 81.6111 79.861C81.5626 79.849 81.5202 79.8069 81.5142 79.7588L81.1872 77.7872L79.4613 77.685L78.9042 79.6025C78.886 79.6566 78.8437 79.6927 78.7892 79.6987C78.3471 79.7528 77.905 79.837 77.4872 79.9632C77.4387 79.9752 77.3782 79.9572 77.3479 79.9151L76.0762 78.3763L74.532 79.1457L75.0104 81.0812C75.0225 81.1293 75.0044 81.1894 74.962 81.2195C74.6108 81.4839 74.2716 81.7785 73.9689 82.091C73.9325 82.1331 73.878 82.1452 73.8235 82.1271L71.9402 81.4178L70.9895 82.8484L72.3823 84.285C72.4186 84.3271 72.4307 84.3812 72.4126 84.4293C72.2369 84.826 72.0977 85.2468 71.9947 85.6796C71.9826 85.7337 71.9402 85.7757 71.8857 85.7818L69.8995 86.1064L69.7965 87.8135L71.7283 88.3665C71.7828 88.3845 71.8191 88.4266 71.8252 88.4807C71.8797 88.9195 71.9644 89.3583 72.0916 89.773C72.1037 89.8211 72.0855 89.8752 72.0432 89.9113L70.4929 91.1736L71.262 92.7064L73.218 92.2255C73.2725 92.2135 73.327 92.2315 73.3572 92.2736C73.6237 92.6282 73.9204 92.9588 74.2353 93.2594C74.2777 93.2954 74.2898 93.3555 74.2716 93.4036L73.5571 95.273L74.9983 96.2107L76.4517 94.8282C76.488 94.7921 76.5486 94.7801 76.597 94.8042C76.9967 94.9725 77.4206 95.1107 77.8566 95.2189C77.9111 95.2309 77.9474 95.273 77.9595 95.3271L78.2805 97.2927ZM79.7338 92.6222C79.6289 92.6222 79.5259 92.6202 79.425 92.6162C78.0564 92.532 76.8029 91.9309 75.8946 90.9151C74.9862 89.8992 74.526 88.5949 74.6108 87.2364C74.7803 84.4353 77.2147 82.2954 80.0366 82.4577C81.4052 82.5419 82.6587 83.143 83.5671 84.1588C84.4754 85.1747 84.9296 86.479 84.8509 87.8375C84.6874 90.5364 82.4225 92.6222 79.7338 92.6222ZM79.4432 92.3517C82.1137 92.508 84.427 90.4763 84.5844 87.8195C84.6631 86.5391 84.2271 85.3009 83.3672 84.3331C82.5073 83.3714 81.3144 82.8003 80.0185 82.7222C77.3419 82.5659 75.0347 84.5976 74.8772 87.2544C74.7985 88.5348 75.2345 89.773 76.0944 90.7408C76.9543 91.7025 78.1473 92.2736 79.4432 92.3517Z" fill="black"/>
<path d="M97.7311 101.008L98.3428 106.754L96.1991 107.836L95.3149 102.072L97.7311 101.008Z" fill="white"/>
<path fill-rule="evenodd" clip-rule="evenodd" d="M96.1993 107.968C96.1791 107.968 96.1589 107.962 96.1387 107.95C96.1024 107.932 96.0782 107.896 96.066 107.854L95.1819 102.096C95.1759 102.036 95.2061 101.975 95.2606 101.951L97.6768 100.881C97.7132 100.869 97.7616 100.869 97.798 100.893C97.8343 100.911 97.8585 100.948 97.8646 100.99L98.4762 106.736C98.4822 106.79 98.452 106.844 98.4035 106.868L96.2598 107.95C96.2396 107.962 96.2194 107.968 96.1993 107.968V107.968ZM95.4605 102.156L96.3022 107.632L98.1976 106.676L97.6163 101.2L95.4605 102.156Z" fill="black"/>
<path d="M97.4465 106.171L98.2398 105.059C100.317 105.955 102.715 107.481 104.283 108.858C104.689 109.213 104.435 109.868 103.89 109.868H96.0113C95.3392 109.868 94.8244 109.279 94.9395 108.63C95.1696 107.259 95.4058 106.207 95.648 105.654C95.7146 105.498 97.4465 106.171 97.4465 106.171Z" fill="white"/>
<path fill-rule="evenodd" clip-rule="evenodd" d="M103.89 110H96.0113C95.648 110 95.3028 109.844 95.0727 109.567C94.8426 109.303 94.7457 108.948 94.8062 108.605C95.0666 107.079 95.2967 106.123 95.5268 105.6C95.5753 105.492 95.6419 105.336 97.398 106.009L98.1308 104.981C98.1671 104.933 98.2337 104.915 98.2943 104.939C100.329 105.816 102.769 107.355 104.374 108.756C104.598 108.96 104.677 109.255 104.568 109.537C104.459 109.82 104.192 110 103.89 110V110ZM95.7448 105.762C95.5329 106.273 95.3149 107.199 95.0666 108.648C95.0242 108.918 95.0969 109.189 95.2725 109.399C95.4542 109.609 95.7267 109.736 96.0113 109.736H103.89C104.126 109.736 104.265 109.585 104.32 109.447C104.368 109.309 104.368 109.104 104.192 108.954C102.642 107.59 100.281 106.099 98.2882 105.227L97.5555 106.243C97.5252 106.297 97.4586 106.315 97.398 106.291C96.744 106.039 95.9628 105.78 95.7448 105.762V105.762Z" fill="black"/>
<path d="M103.745 109.327H95.4423C95.3696 109.327 95.3091 109.273 95.3091 109.195C95.3091 109.123 95.3696 109.062 95.4423 109.062H103.745C103.817 109.062 103.878 109.123 103.878 109.195C103.878 109.273 103.817 109.327 103.745 109.327Z" fill="black"/>
<path d="M99.2151 107.674C99.1909 107.674 99.1687 107.668 99.1485 107.656C99.088 107.62 99.0637 107.536 99.1001 107.476L99.9115 106.111C99.9479 106.051 100.033 106.027 100.093 106.069C100.16 106.105 100.178 106.183 100.142 106.249L99.3302 107.608C99.306 107.65 99.2636 107.674 99.2151 107.674V107.674Z" fill="black"/>
<path d="M100.402 107.872C100.381 107.872 100.359 107.866 100.335 107.854C100.274 107.818 100.25 107.74 100.287 107.674L100.807 106.742C100.844 106.682 100.928 106.658 100.989 106.694C101.056 106.73 101.08 106.808 101.044 106.875L100.517 107.806C100.492 107.848 100.45 107.872 100.402 107.872Z" fill="black"/>
<path d="M100.62 64.978C100.62 64.978 106.591 73.9523 108.632 79.6507C109.019 80.7387 108.716 81.9469 107.869 82.7283C105.495 84.9043 100.426 89.5146 97.1743 92.0873L96.1994 89.6349C96.1994 89.6349 97.3742 83.9605 101.783 81.4059L96.3145 73.3152L95.1094 67.0157L100.62 64.978Z" fill="#EC590C"/>
<path d="M99.7415 65.6992L98.9119 71.5358L98.3427 103.045L95.2604 103.586C95.2604 103.586 92.063 97.0823 92.1962 94.2872C92.3294 91.4861 92.5777 87.6752 92.3052 84.2489C92.0388 80.8227 90.2705 67.4063 90.2705 67.4063L99.7415 65.6992Z" fill="#EC590C"/>
<path d="M98.555 91.6368C98.555 91.6368 98.553 91.6368 98.549 91.6368C98.4763 91.6368 98.4157 91.5767 98.4218 91.5045L98.4339 86.6537C98.4339 86.5816 98.4945 86.5215 98.5671 86.5215C98.6398 86.5215 98.7004 86.5816 98.7004 86.6537L98.6882 91.5045C98.6882 91.5827 98.6277 91.6368 98.555 91.6368V91.6368Z" fill="white"/>
<path d="M98.8695 76.6394C98.7969 76.6394 98.7363 76.5792 98.7363 76.5071V74.0006C98.7363 73.9585 98.7606 73.9164 98.7969 73.8924L100.281 72.9126C100.341 72.8705 100.426 72.8885 100.468 72.9486C100.511 73.0088 100.492 73.0929 100.432 73.129L99.0028 74.0727V76.5071C99.0028 76.5792 98.9422 76.6394 98.8695 76.6394Z" fill="white"/>
<path d="M91.4937 74.6138C91.4513 74.6138 91.415 74.5958 91.3908 74.5658C91.3423 74.5056 91.3484 74.4215 91.4029 74.3794C91.421 74.3614 93.0258 72.9789 93.5708 69.5827C93.5829 69.5106 93.6495 69.4625 93.7222 69.4745C93.7948 69.4865 93.8433 69.5526 93.8312 69.6248C93.2741 73.1291 91.6451 74.5237 91.5785 74.5778C91.5543 74.6018 91.524 74.6138 91.4937 74.6138V74.6138Z" fill="white"/>
<path d="M106.215 56.2022C106.215 56.2022 106.779 55.7274 107.221 55.4869C107.669 55.2465 109.055 53.1968 109.055 53.1968C109.055 53.1968 109.013 56.4307 107.584 56.9236L106.215 56.2022Z" fill="white"/>
<path fill-rule="evenodd" clip-rule="evenodd" d="M107.584 57.0557C107.564 57.0557 107.544 57.0497 107.523 57.0377L106.149 56.3163C106.112 56.2983 106.088 56.2562 106.082 56.2142C106.076 56.1721 106.094 56.13 106.125 56.0999C106.149 56.0819 106.706 55.6131 107.16 55.3726C107.463 55.2043 108.395 53.936 108.94 53.1245C108.977 53.0764 109.037 53.0524 109.092 53.0704C109.146 53.0885 109.189 53.1426 109.189 53.1967C109.183 53.3349 109.128 56.5267 107.626 57.0497C107.614 57.0537 107.6 57.0557 107.584 57.0557V57.0557ZM106.452 56.1781L107.59 56.7792C108.559 56.3825 108.819 54.5431 108.892 53.6655C108.456 54.2846 107.639 55.4147 107.287 55.601C106.997 55.7633 106.651 56.0218 106.452 56.1781V56.1781Z" fill="black"/>
<path d="M107.935 52.1987H109.515L106.445 56.6047H104.822L107.935 52.1987Z" fill="black"/>
<path fill-rule="evenodd" clip-rule="evenodd" d="M106.445 56.7371H104.823C104.774 56.7371 104.726 56.707 104.701 56.6649C104.677 56.6228 104.683 56.5687 104.714 56.5267L107.826 52.1207C107.85 52.0846 107.887 52.0605 107.935 52.0605H109.516C109.564 52.0605 109.607 52.0906 109.631 52.1327C109.655 52.1808 109.649 52.2289 109.625 52.2709L106.554 56.6769C106.53 56.713 106.488 56.7371 106.445 56.7371V56.7371ZM105.077 56.4726H106.373L109.261 52.331H108.002L105.077 56.4726Z" fill="black"/>
<path d="M108.286 52.1987H109.867L106.797 56.6047H105.174L108.286 52.1987Z" fill="white"/>
<path fill-rule="evenodd" clip-rule="evenodd" d="M106.796 56.7371H105.173C105.125 56.7371 105.083 56.707 105.058 56.6649C105.034 56.6228 105.04 56.5687 105.064 56.5267L108.177 52.1207C108.201 52.0846 108.244 52.0605 108.286 52.0605H109.867C109.915 52.0605 109.963 52.0906 109.988 52.1327C110.012 52.1808 110.006 52.2289 109.976 52.2709L106.905 56.6769C106.881 56.713 106.839 56.7371 106.796 56.7371V56.7371ZM105.434 56.4726H106.724L109.612 52.331H108.359L105.434 56.4726Z" fill="black"/>
<path d="M107.432 57.0196C107.432 57.0196 106.718 63.7158 102.788 64.6895C102.231 64.8278 101.631 64.7977 101.013 64.6595C101.074 65.495 100.82 66.1322 99.7659 66.2464C98.1975 66.4267 95.7631 67.9655 93.2985 68.4223C92.0994 68.6447 91.2335 68.6507 90.6643 68.5966C90.1616 68.5485 89.7559 68.1639 89.6893 67.671L89.1927 64.1125C89.1927 64.1125 88.5932 66.4267 88.8597 67.9835C89.5864 72.2393 92.699 72.4436 92.699 72.4436L91.5666 74.2048C91.5666 74.2048 84.6086 75.2808 83.6276 67.0218C83.1129 62.6879 83.7003 59.5502 84.5057 57.3983C85.5472 54.6332 88.1572 52.7819 91.1305 52.6557C94.1523 52.5294 96.623 53.3589 96.623 53.3589C96.623 53.3589 98.0098 54.2005 99.1482 55.7994C100.293 57.4043 100.983 58.8289 102.309 59.0633C104.193 59.3999 106.215 56.2021 106.215 56.2021L107.432 57.0196Z" fill="white"/>
<path fill-rule="evenodd" clip-rule="evenodd" d="M90.7732 74.3852C89.78 74.3852 88.03 74.1868 86.4676 73.0147C84.8205 71.7704 83.8213 69.7567 83.4943 67.0338C83.0522 63.3491 83.355 60.0912 84.3784 57.3502C85.4321 54.5491 88.0784 52.6556 91.1244 52.5234C94.1341 52.3972 96.6411 53.2207 96.6653 53.2327C96.6774 53.2367 96.6875 53.2407 96.6956 53.2447C96.7501 53.2808 98.1126 54.1223 99.2571 55.7272C99.4751 56.0278 99.675 56.3223 99.8687 56.6108C100.674 57.807 101.31 58.7507 102.333 58.9371C102.422 58.9491 102.509 58.9551 102.594 58.9551C104.295 58.9551 106.082 56.16 106.1 56.13C106.118 56.0999 106.148 56.0759 106.185 56.0699C106.221 56.0638 106.257 56.0699 106.288 56.0939L107.505 56.9114C107.547 56.9354 107.572 56.9835 107.565 57.0316C107.535 57.3081 106.79 63.83 102.818 64.8158C102.327 64.936 101.77 64.942 101.153 64.8218C101.165 65.7655 100.717 66.2764 99.7779 66.3786C99.0512 66.4628 98.1308 66.8475 97.071 67.2923C95.9205 67.7671 94.6246 68.3141 93.3226 68.5546C92.3113 68.7409 91.409 68.801 90.6521 68.7289C90.0828 68.6748 89.6347 68.248 89.556 67.689L89.1624 64.8759C89.011 65.6753 88.8233 66.9797 88.9868 67.9595C89.6892 72.0649 92.6746 72.3114 92.7049 72.3114C92.7534 72.3174 92.7958 72.3414 92.8139 72.3835C92.8381 72.4256 92.8381 72.4737 92.8079 72.5158L91.6815 74.277C91.6633 74.307 91.627 74.3311 91.5907 74.3371C91.5543 74.3431 91.2455 74.3852 90.7732 74.3852V74.3852ZM91.7663 52.7759C91.5604 52.7759 91.3505 52.7799 91.1365 52.7879C88.1995 52.9141 85.644 54.7414 84.6327 57.4464C83.6154 60.1393 83.3247 63.3551 83.7607 67.0037C84.0756 69.6546 85.0385 71.6021 86.6311 72.8043C88.6597 74.3311 91.082 74.1267 91.4877 74.0846L92.4748 72.5458C91.7421 72.4015 89.3501 71.6622 88.7264 68.0076C88.4599 66.4387 89.0352 64.1786 89.0594 64.0824C89.0776 64.0223 89.1321 63.9802 89.1987 63.9802C89.2593 63.9863 89.3138 64.0343 89.3259 64.0944L89.8164 67.6529C89.883 68.0917 90.2342 68.4223 90.6763 68.4644C91.185 68.5125 92.0388 68.5185 93.2742 68.2901C94.5458 68.0556 95.8296 67.5207 96.9681 67.0458C98.046 66.595 98.9786 66.2043 99.7476 66.1201C100.601 66.024 100.941 65.5852 100.88 64.6655C100.88 64.6234 100.898 64.5873 100.928 64.5573C100.959 64.5332 101.001 64.5212 101.044 64.5272C101.685 64.6715 102.261 64.6835 102.751 64.5573C106.318 63.6737 107.19 57.8311 107.287 57.0857L106.251 56.3884C105.858 56.9715 104.053 59.5081 102.291 59.1955C101.153 58.9912 100.486 58.0054 99.6447 56.7551C99.4509 56.4726 99.2571 56.1781 99.0391 55.8775C97.9854 54.3988 96.7077 53.5693 96.5684 53.4791C96.3746 53.413 94.3218 52.7759 91.7663 52.7759Z" fill="black"/>
<path d="M89.4409 63.8121C89.4288 63.8121 89.4167 63.8101 89.4045 63.8061C89.3319 63.7821 89.2955 63.7099 89.3137 63.6378L90.5491 59.7668C90.5733 59.7006 90.646 59.6586 90.7186 59.6826C90.7913 59.7067 90.8276 59.7788 90.8034 59.8509L89.568 63.722C89.5499 63.7761 89.5014 63.8121 89.4409 63.8121V63.8121Z" fill="black"/>
<path d="M100.965 63.8481C100.898 63.8481 100.838 63.794 100.832 63.7279C100.632 61.6661 98.4701 56.9055 98.4458 56.8574C98.4156 56.7913 98.4459 56.7131 98.5125 56.6831C98.5791 56.653 98.6578 56.6831 98.6881 56.7492C98.7789 56.9475 100.892 61.6 101.098 63.7038C101.104 63.776 101.05 63.8421 100.977 63.8481C100.973 63.8481 100.969 63.8481 100.965 63.8481V63.8481Z" fill="black"/>
<path d="M94.9094 50.1912L93.7891 52.7218C93.7891 52.7218 95.521 54.2125 94.104 53.9961C92.687 53.7857 90.3677 52.7939 90.3677 52.7939L93.1412 48.6885L94.9094 50.1912Z" fill="white"/>
<path fill-rule="evenodd" clip-rule="evenodd" d="M94.3462 54.1524C94.2614 54.1524 94.1645 54.1404 94.0858 54.1284C92.6687 53.918 90.41 52.9622 90.3192 52.9202C90.2828 52.9021 90.2525 52.8721 90.2404 52.836C90.2283 52.7939 90.2344 52.7579 90.2586 52.7218L93.026 48.6103C93.0502 48.5803 93.0805 48.5622 93.1229 48.5562C93.1593 48.5502 93.1956 48.5622 93.2259 48.5863L95.0002 50.089C95.0426 50.1311 95.0547 50.1912 95.0365 50.2453L93.9525 52.6857C94.3038 52.9983 94.9275 53.6174 94.7701 53.96C94.6974 54.1103 94.5278 54.1524 94.3462 54.1524V54.1524ZM90.5735 52.7398C91.1003 52.9562 92.9413 53.6896 94.1221 53.8699C94.4733 53.918 94.5278 53.8518 94.5278 53.8458C94.5823 53.7316 94.1887 53.2387 93.7043 52.824C93.6619 52.7819 93.6437 52.7218 93.6679 52.6677L94.7519 50.2273L93.1653 48.8808L90.5735 52.7398Z" fill="black"/>
<path d="M98.7849 49.2775C98.3065 49.56 97.5859 48.5382 96.95 48.8387C96.5322 49.0311 96.7562 49.6622 96.2415 51.2732C96.1325 51.6098 95.9932 51.9524 95.8782 52.2229C95.7873 52.4333 95.5572 52.5475 95.3332 52.4994C93.9525 52.1988 93.3953 51.6158 93.2803 51.213C93.1047 50.5699 93.7829 49.8846 93.4377 49.4218C93.1773 49.0671 92.6384 49.2896 92.4204 48.9469C92.2084 48.6043 92.6263 48.2076 92.9472 47.2699C93.4135 45.9355 93.0562 45.3223 93.5831 44.9557C93.9949 44.6671 94.5944 44.7814 94.9274 44.9256C95.43 45.142 95.4543 45.4846 95.866 45.8633C96.7623 46.6928 97.7251 46.0497 98.4942 46.7289C99.2875 47.4202 99.2814 48.983 98.7849 49.2775V49.2775Z" fill="black"/>
<path d="M97.4042 48.2317C97.0409 49.0492 96.9198 50.1793 96.8834 50.6962C96.8774 50.7623 96.8471 50.8224 96.7866 50.8645C96.7321 50.9006 96.6654 50.9126 96.5988 50.8946L96.3869 50.8345L96.1083 51.0268C96.1083 51.0268 94.3825 50.4918 94.5096 49.9268C94.6429 49.3618 95.4543 47.5164 95.4543 47.5164L95.1757 47.4022C96.617 47.2159 97.4042 48.2317 97.4042 48.2317V48.2317Z" fill="white"/>
<path fill-rule="evenodd" clip-rule="evenodd" d="M95.0425 47.3843C95.0667 47.3602 95.1091 47.3181 95.1697 47.2881C95.1999 47.2761 95.2302 47.264 95.2605 47.258C95.2726 47.258 95.2908 47.258 95.2968 47.258L95.315 47.252C95.3695 47.252 95.424 47.246 95.4785 47.246C95.5875 47.24 95.6965 47.246 95.8055 47.258C96.0235 47.2821 96.2415 47.3302 96.4413 47.4083C96.6472 47.4864 96.841 47.5886 97.0227 47.7149C97.1983 47.8411 97.3618 47.9733 97.5071 48.1537C97.5374 48.1897 97.5435 48.2438 97.5253 48.2859C97.4163 48.5143 97.3376 48.7608 97.271 49.0072C97.1983 49.2557 97.1398 49.5081 97.0954 49.7646C97.0509 50.0211 97.0166 50.2775 96.9924 50.534L96.9864 50.6302C96.9803 50.6662 96.9803 50.6903 96.9742 50.7384C96.9561 50.8285 96.8955 50.9127 96.8168 50.9548C96.7724 50.9788 96.728 50.9948 96.6836 51.0028C96.6593 51.0028 96.6351 51.0028 96.6109 51.0028C96.5867 51.0028 96.5625 50.9968 96.5443 50.9968C96.5039 50.9888 96.4615 50.9808 96.4171 50.9728C96.3384 51.0269 96.2597 51.081 96.181 51.1351C96.1507 51.1591 96.1022 51.1651 96.0659 51.1531C95.6844 51.0329 95.3211 50.8886 94.9698 50.6903C94.7942 50.5881 94.6186 50.4799 94.4733 50.2936C94.4369 50.2455 94.4066 50.1914 94.3824 50.1252C94.3643 50.0591 94.3521 49.987 94.3703 49.9149C94.3945 49.8007 94.4248 49.7105 94.4551 49.6143C94.5823 49.2477 94.7276 48.887 94.8729 48.5263C95.0001 48.2078 95.1394 47.8952 95.2787 47.5826C95.2504 47.5666 95.2242 47.5486 95.1999 47.5285C95.1333 47.4804 95.0849 47.4263 95.0425 47.3843V47.3843ZM96.4171 50.9728C96.4333 50.9608 96.4474 50.9507 96.4595 50.9427L96.3505 50.9608C96.3747 50.9648 96.3969 50.9688 96.4171 50.9728ZM95.2787 47.5826C95.3211 47.6067 95.3634 47.6247 95.4058 47.6427L95.3574 47.5225C95.3998 47.5165 95.4422 47.5165 95.4846 47.5165C95.5209 47.5165 95.5572 47.5165 95.5936 47.5165C95.5936 47.4624 95.5633 47.4083 95.5088 47.3903C95.4785 47.3783 95.4603 47.3783 95.4301 47.3903C95.3998 47.4023 95.3574 47.4203 95.3029 47.4203C95.3211 47.4324 95.3271 47.4444 95.3332 47.4624C95.313 47.5025 95.2948 47.5425 95.2787 47.5826V47.5826ZM95.3332 47.4624C95.3332 47.4744 95.3332 47.4925 95.3332 47.4985C95.3271 47.5105 95.321 47.5165 95.321 47.5225C95.321 47.5225 95.315 47.5225 95.321 47.5225H95.3392C95.3433 47.5225 95.3493 47.5225 95.3574 47.5225L95.3332 47.4624ZM95.5875 47.5646H95.5814V47.5706C95.4301 47.9192 95.2847 48.2799 95.1394 48.6345C94.994 48.9892 94.8487 49.3498 94.7276 49.7045C94.6973 49.7946 94.667 49.8908 94.6489 49.963C94.6428 50.005 94.661 50.0651 94.7034 50.1252C94.7942 50.2455 94.9517 50.3537 95.1091 50.4498C95.4119 50.6242 95.751 50.7624 96.0841 50.8766C96.1628 50.8285 96.2355 50.7744 96.3142 50.7263L96.3263 50.7203C96.3566 50.7023 96.3929 50.6963 96.4232 50.7083C96.4837 50.7323 96.5443 50.7564 96.6109 50.7864L96.6412 50.7985C96.6493 50.8025 96.6593 50.8045 96.6715 50.8045C96.6876 50.8045 96.7058 50.8005 96.726 50.7925C96.7562 50.7744 96.7805 50.7384 96.7865 50.7023L96.8047 50.516C96.8249 50.2555 96.8531 49.993 96.8895 49.7285C96.9561 49.2356 97.059 48.7367 97.2467 48.2558C97.1377 48.1416 97.0045 48.0274 96.8652 47.9313C96.7078 47.8231 96.5322 47.7269 96.3505 47.6608C96.1628 47.5946 95.9751 47.5526 95.7813 47.5285C95.7167 47.5205 95.6541 47.5165 95.5936 47.5165C95.5936 47.5325 95.5915 47.5486 95.5875 47.5646V47.5646ZM96.0841 50.8766C96.0679 50.8886 96.0497 50.9007 96.0296 50.9127L96.1446 50.9007C96.1244 50.8926 96.1042 50.8846 96.0841 50.8766ZM97.2467 48.2558C97.2669 48.2759 97.2831 48.2959 97.2952 48.316L97.2831 48.1777C97.271 48.2058 97.2589 48.2318 97.2467 48.2558Z" fill="black"/>
<path d="M94.5341 48.7065C94.5341 48.7065 94.7279 47.6126 94.2071 47.6306C93.6923 47.6486 93.5107 48.8568 94.5341 48.7065Z" fill="white"/>
<path d="M10.4271 63.8541C10.3545 64.0465 10.2515 64.2208 10.1122 64.3831C9.74889 64.7798 9.19782 64.9541 8.67704 65.1104C8.24709 65.2366 7.81108 65.3629 7.36296 65.3689C6.47278 65.3749 5.64921 64.894 4.75903 64.8519C4.15952 64.8219 3.57213 64.9962 2.97867 65.0984C1.85838 65.2847 0.962143 64.8399 0.132519 64.1126C-1.339 62.8202 -1.26634 59.2017 0.162797 56.9055C1.67065 54.4831 4.01419 54.6093 4.34119 52.5355C4.52892 51.3394 3.73563 50.8405 4.1353 49.5661C4.34725 48.8989 4.95281 48.3219 6.16394 47.1738C7.82319 45.5989 8.51959 45.3645 8.76182 45.2864C9.1736 45.1601 9.99717 44.9197 10.8752 45.2743C11.1417 45.3825 11.7896 45.647 12.0258 46.2902C12.2741 46.9634 11.9108 47.6366 11.717 47.9973C11.2749 48.8148 10.7178 49.0372 10.4029 49.4219C8.99193 51.141 11.6504 53.5694 11.0145 57.4585C10.8813 58.288 10.5422 59.0454 10.3242 59.8508C10.0456 60.9028 10.4816 61.1793 10.5543 62.123C10.5967 62.7 10.627 63.3252 10.4271 63.8541V63.8541Z" fill="black"/>
<path d="M24.7063 99.541C25.6086 99.547 26.1596 99.8355 26.4806 100.124C26.7107 100.328 26.8318 100.557 26.9045 100.701C26.305 100.683 25.3785 100.719 24.349 101.08C22.8472 101.603 22.6353 102.288 20.97 102.847C20.5158 102.997 18.6204 103.628 17.9179 102.835C17.7907 102.685 17.7241 102.565 17.6938 102.444L18.3539 101.014C18.3539 101.014 22.9078 99.541 24.7063 99.541Z" fill="white"/>
<path fill-rule="evenodd" clip-rule="evenodd" d="M19.0562 103.358C18.3901 103.358 18.0207 103.153 17.8209 102.925C17.6755 102.763 17.5968 102.625 17.5605 102.474C17.5544 102.444 17.5605 102.414 17.5726 102.39L18.2327 100.96C18.2448 100.923 18.275 100.899 18.3114 100.887C18.4991 100.827 22.8955 99.4087 24.7001 99.4087C24.7041 99.4087 24.7061 99.4087 24.7061 99.4087C25.6811 99.4147 26.2564 99.7453 26.5713 100.028C26.8135 100.244 26.9467 100.485 27.0255 100.647C27.0436 100.689 27.0436 100.737 27.0133 100.773C26.9891 100.815 26.9467 100.839 26.8983 100.833C26.0202 100.803 25.1785 100.929 24.3912 101.206C23.6888 101.452 23.2831 101.729 22.8471 102.023C22.3808 102.342 21.8963 102.679 21.0122 102.973C20.1705 103.25 19.5346 103.358 19.0562 103.358V103.358ZM17.833 102.456C17.8633 102.546 17.9238 102.637 18.0207 102.745C18.2629 103.021 18.9593 103.376 20.9274 102.721C21.7752 102.438 22.2415 102.114 22.6957 101.807C23.1256 101.513 23.5677 101.212 24.3004 100.953C25.0392 100.695 25.8204 100.569 26.6379 100.569C26.65 100.569 26.6621 100.569 26.6742 100.569C26.6076 100.455 26.5168 100.334 26.3896 100.226C25.996 99.8655 25.4086 99.6792 24.7061 99.6792C24.7061 99.6792 24.7041 99.6792 24.7001 99.6792C23.0408 99.6792 18.9714 100.954 18.4507 101.122L17.833 102.456Z" fill="black"/>
<path d="M20.9941 100.677L24.5912 98.7476C24.5912 98.7476 27.1043 106.796 27.1043 106.862C27.1103 108.852 24.0522 107.686 24.0522 107.686L20.9941 100.677Z" fill="white"/>
<path fill-rule="evenodd" clip-rule="evenodd" d="M25.7597 108.155C24.93 108.155 24.052 107.83 24.0035 107.806C23.9672 107.794 23.943 107.77 23.9248 107.74L20.8667 100.731C20.8425 100.671 20.8667 100.593 20.9273 100.563L24.5304 98.6272C24.5667 98.6092 24.603 98.6091 24.6454 98.6212C24.6818 98.6392 24.706 98.6693 24.7181 98.7053C27.2372 106.778 27.2372 106.838 27.2372 106.862C27.2372 107.337 27.0798 107.686 26.7588 107.908C26.4863 108.094 26.123 108.155 25.7597 108.155V108.155ZM24.1489 107.577C24.4456 107.686 25.9111 108.161 26.6075 107.686C26.8497 107.523 26.9708 107.253 26.9708 106.874C26.8921 106.574 25.366 101.663 24.5122 98.9398L21.1634 100.737L24.1489 107.577Z" fill="black"/>
<path d="M23.4224 109.525C23.3921 108.347 23.7131 107.289 23.7131 107.289C24.5367 106.694 25.4329 107.541 25.4329 107.541C25.3178 106.165 26.644 105.882 26.644 105.882L30.7498 108.076C31.1131 108.269 31.3917 108.581 31.5309 108.96L31.5854 109.387C31.6157 109.591 31.4583 109.765 31.2524 109.765H23.6707C23.5375 109.765 23.4224 109.657 23.4224 109.525V109.525Z" fill="white"/>
<path fill-rule="evenodd" clip-rule="evenodd" d="M31.2523 109.898H23.6706C23.4647 109.898 23.2891 109.729 23.2831 109.525C23.2588 108.347 23.5737 107.295 23.5858 107.253C23.5919 107.223 23.6101 107.199 23.6343 107.181C24.2277 106.754 24.8878 106.989 25.2935 107.265C25.3662 106.033 26.6016 105.756 26.6137 105.756C26.644 105.75 26.6742 105.756 26.7045 105.768L30.8163 107.956C31.2039 108.167 31.5006 108.503 31.658 108.912C31.6621 108.924 31.6641 108.934 31.6641 108.942L31.7186 109.369C31.7367 109.507 31.6944 109.639 31.6096 109.742C31.5187 109.844 31.3855 109.898 31.2523 109.898V109.898ZM23.8281 107.373C23.7736 107.578 23.5313 108.515 23.5556 109.519C23.5556 109.585 23.6101 109.633 23.6706 109.633H31.2523C31.3129 109.633 31.3674 109.609 31.4097 109.567C31.4461 109.519 31.4642 109.465 31.4582 109.405L31.4037 108.996C31.2705 108.648 31.0161 108.365 30.6891 108.191L26.6258 106.027C26.4017 106.087 25.4692 106.411 25.56 107.535C25.566 107.59 25.5358 107.638 25.4873 107.662C25.4389 107.686 25.3783 107.68 25.3359 107.638C25.3057 107.608 24.5426 106.898 23.8281 107.373V107.373Z" fill="black"/>
<path d="M29.1328 108.359C29.1247 108.359 29.1186 108.359 29.1146 108.359C27.1162 108.047 25.9293 107.007 25.8809 106.959C25.8264 106.911 25.8203 106.826 25.8688 106.772C25.9233 106.718 26.002 106.718 26.0626 106.766C26.0686 106.772 27.2374 107.794 29.1509 108.095C29.2236 108.107 29.2781 108.173 29.266 108.245C29.2539 108.311 29.1994 108.359 29.1328 108.359V108.359Z" fill="black"/>
<path d="M31.3129 109.411H23.6889C23.6162 109.411 23.5557 109.357 23.5557 109.279C23.5557 109.207 23.6162 109.146 23.6889 109.146H31.3129C31.3856 109.146 31.4462 109.207 31.4462 109.279C31.4462 109.357 31.3856 109.411 31.3129 109.411Z" fill="black"/>
<path d="M7.88376 103.136C7.21764 102.991 5.93384 102.709 5.64923 101.837C5.43123 101.176 5.89145 100.491 5.9944 100.335C7.29031 98.4051 11.5838 97.8582 14.0121 99.7516C15.2898 100.749 16.1618 102.505 15.7077 103.064C15.4291 103.406 14.8478 103.082 13.4307 102.955C10.7784 102.721 10.1001 103.623 7.88376 103.136Z" fill="white"/>
<path fill-rule="evenodd" clip-rule="evenodd" d="M9.15516 103.418C8.77365 103.418 8.34975 103.376 7.85319 103.268L7.88347 103.136L7.85319 103.268C7.14468 103.112 5.82455 102.823 5.52177 101.879C5.36432 101.405 5.49149 100.846 5.88511 100.262C6.46645 99.3969 7.62913 98.7718 9.08249 98.5373C10.9476 98.2428 12.8188 98.6576 14.0905 99.6433C15.0534 100.389 15.8466 101.609 15.9496 102.481C15.9859 102.763 15.9375 102.991 15.8103 103.148C15.5863 103.424 15.235 103.364 14.6476 103.262C14.3267 103.202 13.927 103.13 13.4183 103.088C12.183 102.979 11.3715 103.124 10.6509 103.25C10.1664 103.334 9.70016 103.418 9.15516 103.418ZM7.91375 103.009C9.05827 103.262 9.77283 103.136 10.6025 102.991C11.3412 102.859 12.1709 102.715 13.4426 102.823C13.9633 102.871 14.3691 102.943 14.6961 102.997C15.2532 103.1 15.4833 103.13 15.6044 102.979C15.6831 102.883 15.7074 102.721 15.6831 102.511C15.6044 101.813 14.9262 100.629 13.927 99.8537C12.7159 98.91 10.9173 98.5133 9.12488 98.8018C7.74419 99.0182 6.64812 99.6073 6.10917 100.407C5.76399 100.924 5.64894 101.405 5.77611 101.795C6.0365 102.595 7.25368 102.865 7.91375 103.009L7.88347 103.136L7.91375 103.009Z" fill="black"/>
<path d="M12.177 100.25L12.2982 108.323L9.53678 107.992C9.53678 107.992 8.15003 99.6131 8.25903 99.541L12.177 100.25Z" fill="white"/>
<path fill-rule="evenodd" clip-rule="evenodd" d="M12.2982 108.455C12.2941 108.455 12.2901 108.455 12.2861 108.455L9.51862 108.125C9.45806 108.113 9.40962 108.071 9.40356 108.01C9.39751 107.992 9.05234 105.895 8.72533 103.815C8.0471 99.523 8.07738 99.499 8.18638 99.4329C8.2106 99.4148 8.24694 99.4088 8.27721 99.4149L12.2013 100.124C12.2679 100.13 12.3103 100.184 12.3103 100.25L12.4314 108.323C12.4374 108.359 12.4193 108.401 12.389 108.425C12.3648 108.443 12.3345 108.455 12.2982 108.455V108.455ZM9.65185 107.872L12.1649 108.173L12.0499 100.365L8.39227 99.7034C8.46494 100.545 9.15528 104.891 9.65185 107.872Z" fill="black"/>
<path d="M16.7857 109.766H9.16766C9.16766 109.766 8.8891 107.89 9.33116 107.061L9.56733 107.325C9.68844 107.457 9.90039 107.469 10.0397 107.349C10.3425 107.079 10.8693 106.64 11.3295 106.429C12.2197 106.027 15.2051 108.028 16.3497 108.708C16.6161 108.87 16.7857 109.158 16.7857 109.471V109.766Z" fill="white"/>
<path fill-rule="evenodd" clip-rule="evenodd" d="M16.7855 109.898H9.16748C9.10086 109.898 9.04636 109.85 9.04031 109.79C9.0282 109.712 8.75569 107.86 9.20987 106.995C9.22803 106.959 9.27042 106.935 9.31281 106.929C9.3552 106.923 9.39759 106.941 9.42787 106.971L9.66404 107.235C9.70037 107.271 9.74882 107.295 9.80332 107.301C9.85782 107.301 9.90627 107.283 9.94866 107.247C10.2999 106.935 10.8146 106.514 11.2748 106.309C12.0379 105.967 13.9454 107.073 15.8287 108.233C16.0527 108.371 16.2526 108.497 16.4161 108.594C16.7249 108.774 16.9187 109.11 16.9187 109.471V109.766C16.9187 109.844 16.8581 109.898 16.7855 109.898V109.898ZM9.28859 109.633H16.6523V109.471C16.6523 109.207 16.5069 108.954 16.2768 108.822C16.1133 108.72 15.9135 108.6 15.6834 108.455C14.4298 107.68 12.0863 106.231 11.3838 106.55C10.9357 106.754 10.4028 107.199 10.1243 107.445C10.0334 107.53 9.91232 107.572 9.78515 107.566C9.66404 107.56 9.54898 107.506 9.4642 107.409L9.36731 107.301C9.11298 108.023 9.24014 109.261 9.28859 109.633V109.633Z" fill="black"/>
<path d="M16.4282 109.309H9.33098C9.25831 109.309 9.19775 109.255 9.19775 109.177C9.19775 109.105 9.25831 109.044 9.33098 109.044H16.4282C16.5009 109.044 16.5614 109.105 16.5614 109.177C16.5614 109.255 16.5009 109.309 16.4282 109.309Z" fill="black"/>
<path d="M13.2309 108.407C13.2107 108.407 13.1906 108.403 13.1704 108.395L10.9782 107.295C10.9116 107.259 10.8874 107.181 10.9177 107.115C10.954 107.049 11.0327 107.025 11.0993 107.061L13.2915 108.155C13.3581 108.191 13.3823 108.269 13.352 108.335C13.3278 108.383 13.2794 108.407 13.2309 108.407Z" fill="black"/>
<path d="M22.9321 100.695C20.9519 101.056 19.4925 101.909 17.8332 102.396C17.2701 99.8896 16.7311 97.2929 16.2406 94.606C15.5684 90.9454 15.0234 87.417 14.5813 84.0388C14.5813 84.0388 14.4966 87.5312 15.6532 102.751C15.2414 102.763 14.8115 102.739 14.3452 102.679C12.9463 102.486 12.7707 102.132 11.2084 101.783C9.24027 101.344 7.38118 101.428 5.75221 101.747C5.74414 101.274 5.74212 100.789 5.74616 100.292C5.77038 96.7279 6.06711 95.6639 6.22456 91.288C6.25483 90.4164 6.273 89.6951 6.28511 89.0219C6.35172 84.8803 6.30933 81.8568 6.29722 80.847C6.28511 79.7109 6.76351 76.459 7.07235 71.9148C7.10868 71.3377 7.14501 70.9891 6.77562 69.4262C6.03077 66.2765 13.1704 68.6809 16.3678 68.3082C18.4267 74.4955 20.4614 80.6887 22.4719 86.888C23.9615 91.4884 25.4391 96.0927 26.9046 100.701C25.2938 100.425 23.9676 100.503 22.9321 100.695V100.695Z" fill="#EC590C"/>
<path d="M14.5811 83.9128C14.5145 83.9128 14.4539 83.8587 14.4479 83.7866L14.248 76.321C14.248 76.2729 14.2662 76.2308 14.3025 76.2068L15.2836 75.5396C15.3441 75.4975 15.4289 75.5095 15.4713 75.5696C15.5137 75.6297 15.4955 75.7139 15.435 75.756L14.5145 76.3871L14.7204 83.7805C14.7204 83.8527 14.6598 83.9128 14.5872 83.9128C14.5872 83.9128 14.5851 83.9128 14.5811 83.9128Z" fill="white"/>
<path d="M20.3887 63.9202C19.3956 64.0885 18.1965 63.854 17.1368 63.301C17.373 64.4792 17.6152 65.6573 17.8635 66.8174C17.815 67.3404 17.6515 68.0797 17.1368 68.7169C16.2042 69.877 14.872 69.7508 11.7109 70.2797C7.8535 70.9289 7.18738 71.5601 6.27903 70.9409C5.20113 70.2016 5.09818 68.6207 4.98312 66.8174C4.94073 66.1382 4.95284 65.495 5.00129 64.906C3.99 68.0316 4.24433 69.8109 4.81356 70.8868C4.92257 71.0912 5.1769 71.524 6.4607 73.8081C7.13288 74.9983 7.68394 75.9781 8.04728 76.6333C7.83533 77.0601 7.57494 77.4628 7.2661 77.8054C6.01258 76.4169 1.36185 73.724 0.762337 69.4562C-0.0248974 63.8781 1.75546 59.1836 2.37314 57.2601C3.42682 56.8393 4.65612 56.4125 6.08525 56.0579C6.67265 55.9076 8.10178 55.577 9.98509 55.3786C11.4324 55.2284 13.346 55.1382 15.5926 55.3366C17.3124 56.8393 18.2995 59.6885 19.6499 59.6524C20.9579 59.6103 22.0419 57.9453 22.5445 57.1639C23.0956 56.3163 23.3802 55.5229 23.5316 54.9699L24.8093 54.8857C25.7298 59.6464 23.1925 63.4573 20.3887 63.9202V63.9202Z" fill="white"/>
<path fill-rule="evenodd" clip-rule="evenodd" d="M7.26618 77.9376C7.22985 77.9376 7.19352 77.9196 7.16324 77.8955C6.87862 77.5769 6.40023 77.1802 5.84311 76.7174C3.95375 75.1545 1.09548 72.7982 0.629195 69.4742C-0.0974822 64.3288 1.36798 59.8868 2.07044 57.7529C2.13503 57.5565 2.19357 57.3802 2.24605 57.2239C2.25816 57.1819 2.28844 57.1518 2.32478 57.1398C3.59646 56.6288 4.8197 56.2321 6.05506 55.9256C7.2783 55.625 8.63476 55.3846 9.97306 55.2463C11.8321 55.054 13.7215 55.042 15.6048 55.2043C15.6351 55.2043 15.6593 55.2163 15.6835 55.2343C16.4042 55.8715 17.0037 56.7431 17.5366 57.5185C18.2753 58.5884 18.9112 59.5201 19.6197 59.5201C19.6278 59.5201 19.6359 59.5201 19.6439 59.5201C20.8853 59.478 21.933 57.8671 22.4356 57.0917C22.8655 56.4305 23.1865 55.7032 23.4045 54.9338C23.4166 54.8797 23.465 54.8436 23.5195 54.8376L24.8033 54.7534C24.8699 54.7474 24.9305 54.7955 24.9426 54.8616C25.4331 57.4163 24.9729 59.9469 23.6709 61.8043C22.7929 63.0545 21.6362 63.854 20.413 64.0523C19.4683 64.2086 18.3541 64.0223 17.3186 63.5414C17.5729 64.7737 17.7848 65.8075 17.9968 66.7933C18.0008 66.8053 18.0008 66.8174 17.9968 66.8294C17.9181 67.6108 17.6637 68.272 17.2398 68.801C16.4889 69.7327 15.4837 69.8709 13.6488 70.1234C13.0917 70.2015 12.4619 70.2857 11.7353 70.4119C10.3425 70.6463 9.36144 70.8747 8.64687 71.0491C7.36307 71.3556 6.83018 71.4819 6.20039 71.0491C5.07404 70.2797 4.97109 68.6808 4.84998 66.8294C4.83383 66.5489 4.82576 66.2684 4.82576 65.9879C4.29286 68.0556 4.32314 69.6786 4.9287 70.8206C4.98321 70.9168 5.06798 71.0731 5.28599 71.4518C5.52216 71.8665 5.90972 72.5578 6.57584 73.742C7.24802 74.9321 7.79908 75.9119 8.16242 76.5671C8.18664 76.6092 8.18664 76.6512 8.16848 76.6933C7.93231 77.1562 7.66586 77.5589 7.36308 77.8895C7.33885 77.9196 7.30252 77.9376 7.26618 77.9376V77.9376ZM2.48222 57.3622C2.43378 57.5064 2.3813 57.6647 2.32478 57.837C1.62838 59.9529 0.175022 64.3529 0.889588 69.4381C1.34982 72.66 4.15358 74.9802 6.01267 76.513C6.51528 76.9338 6.95735 77.3004 7.26013 77.607C7.4963 77.3305 7.70825 76.9999 7.89597 76.6332C7.53263 75.984 6.99368 75.0283 6.34573 73.8682C5.67355 72.684 5.28599 71.9988 5.04982 71.584C4.83181 71.1933 4.74704 71.0491 4.69253 70.9469C3.95375 69.5523 4.0143 67.5086 4.8742 64.8638C4.89237 64.7977 4.95898 64.7616 5.0256 64.7737C5.09221 64.7857 5.14065 64.8458 5.1346 64.9179C5.0801 65.5491 5.07404 66.1862 5.11643 66.8114C5.23149 68.5906 5.33443 70.1294 6.35178 70.8327C6.88468 71.1933 7.31463 71.0911 8.58632 70.7906C9.30088 70.6163 10.288 70.3819 11.6868 70.1474C12.4256 70.0272 13.0554 69.937 13.6125 69.8589C15.4353 69.6064 16.3497 69.4802 17.0339 68.6327C17.4215 68.1518 17.6577 67.5447 17.7303 66.8234C17.5063 65.7775 17.2762 64.6655 17.0037 63.325C16.9916 63.2769 17.0158 63.2228 17.0582 63.1928C17.0945 63.1627 17.149 63.1627 17.1974 63.1808C18.2451 63.7278 19.4017 63.9502 20.3706 63.7939C21.5212 63.6015 22.6112 62.8441 23.4469 61.648C24.6943 59.8808 25.1425 57.4704 24.7004 55.0239L23.6346 55.0961C23.4105 55.8594 23.0835 56.5747 22.6596 57.2359C22.1328 58.0474 21.0367 59.7425 19.656 59.7846C19.6439 59.7846 19.6318 59.7846 19.6197 59.7846C18.7719 59.7846 18.0937 58.7988 17.3125 57.6627C16.8038 56.9174 16.2225 56.0698 15.5382 55.4627C13.6852 55.3064 11.8261 55.3245 10.0033 55.5108C8.67715 55.6491 7.3328 55.8835 6.11561 56.184C4.91659 56.4846 3.72363 56.8693 2.48222 57.3622V57.3622Z" fill="black"/>
<path d="M23.3314 53.0586L24.0157 50.8045C24.0581 50.6482 24.2155 50.552 24.379 50.57C24.5607 50.5881 24.7 50.7564 24.6758 50.9367L24.5789 51.8624L25.4872 52.5837C25.7658 52.8001 25.8748 53.1728 25.7597 53.5094L25.457 54.393C25.3056 54.8378 24.8938 55.1444 24.4214 55.1684L24.1065 55.1864C23.616 55.2045 23.1679 54.9219 22.9862 54.4711L22.7682 53.9362C22.635 53.6056 22.8106 53.2269 23.1558 53.1127L23.3314 53.0586Z" fill="white"/>
<path fill-rule="evenodd" clip-rule="evenodd" d="M24.052 55.3184C23.5312 55.3184 23.0589 54.9998 22.8591 54.519L22.6471 53.984C22.5684 53.7916 22.5744 53.5813 22.6653 53.3889C22.7501 53.1966 22.9136 53.0523 23.1134 52.9862L23.2224 52.9501L23.8885 50.7681C23.9491 50.5518 24.1671 50.4075 24.3911 50.4375C24.6515 50.4676 24.8393 50.696 24.809 50.9545L24.7181 51.802L25.5659 52.4753C25.8869 52.7337 26.0141 53.1665 25.8869 53.5512L25.5841 54.4348C25.4145 54.9397 24.9604 55.2763 24.4275 55.3004L24.1126 55.3184C24.0924 55.3184 24.0722 55.3184 24.052 55.3184V55.3184ZM24.3366 50.696C24.2519 50.696 24.1671 50.7561 24.1429 50.8463L23.4586 53.0944C23.4465 53.1365 23.4162 53.1665 23.3738 53.1845L23.1982 53.2386C23.065 53.2807 22.962 53.3769 22.9075 53.4971C22.8469 53.6233 22.8409 53.7616 22.8954 53.8878L23.1073 54.4228C23.2708 54.8195 23.6705 55.072 24.1005 55.0539L24.4154 55.0359C24.8393 55.0179 25.1965 54.7474 25.3298 54.3507L25.6325 53.4671C25.7294 53.1845 25.6325 52.872 25.4024 52.6856L24.4941 51.9643C24.4638 51.9343 24.4396 51.8922 24.4456 51.8501L24.5425 50.9244C24.5546 50.8102 24.4759 50.7141 24.3609 50.702C24.3528 50.698 24.3447 50.696 24.3366 50.696V50.696Z" fill="black"/>
<path d="M23.3315 53.0586L24.1188 53.1548C24.1188 53.1548 24.2338 53.7919 23.7373 53.7799L23.3315 53.0586Z" fill="white"/>
<path d="M23.7493 53.9121C23.7453 53.9121 23.7413 53.9121 23.7372 53.9121C23.6645 53.9121 23.604 53.846 23.604 53.7738C23.604 53.7017 23.6645 53.6476 23.7433 53.6476C23.824 53.6476 23.8846 53.6256 23.9249 53.5815C23.9855 53.5093 23.9976 53.3711 23.9976 53.2749L23.3133 53.1908C23.2407 53.1787 23.1922 53.1126 23.1983 53.0405C23.2104 52.9684 23.277 52.9203 23.3497 52.9263L24.1369 53.0225C24.1914 53.0345 24.2398 53.0766 24.2459 53.1307C24.258 53.1727 24.3125 53.5334 24.1248 53.7558C24.0642 53.8279 23.9492 53.9121 23.7493 53.9121V53.9121Z" fill="black"/>
<path d="M24.8212 52.0547L24.6274 53.1727L24.8212 52.0547Z" fill="white"/>
<path d="M24.6276 53.3048C24.6235 53.3048 24.6175 53.3048 24.6094 53.3048C24.5367 53.2927 24.4883 53.2206 24.5004 53.1485L24.6881 52.0304C24.7002 51.9583 24.7729 51.9102 24.8456 51.9223C24.9182 51.9343 24.9667 52.0064 24.9546 52.0785L24.7608 53.1966C24.7487 53.2567 24.6942 53.3048 24.6276 53.3048V53.3048Z" fill="black"/>
<path d="M25.3539 52.5537L25.1904 53.4433L25.3539 52.5537Z" fill="white"/>
<path d="M25.1906 53.5754C25.1825 53.5754 25.1744 53.5734 25.1663 53.5694C25.0937 53.5573 25.0452 53.4912 25.0634 53.4191L25.2208 52.5295C25.233 52.4573 25.3056 52.4093 25.3783 52.4213C25.451 52.4333 25.4994 52.5054 25.4873 52.5776L25.3238 53.4612C25.3117 53.5273 25.2572 53.5754 25.1906 53.5754V53.5754Z" fill="black"/>
<path d="M17.0881 62.5797C17.0276 62.5797 16.9731 62.5376 16.9549 62.4775L16.0647 58.5644C16.0466 58.4923 16.089 58.4261 16.1616 58.4081C16.2343 58.3901 16.307 58.4382 16.3251 58.5103L17.2153 62.4174C17.2335 62.4895 17.1911 62.5616 17.1184 62.5797C17.1063 62.5797 17.0962 62.5797 17.0881 62.5797Z" fill="black"/>
<path d="M6.47273 78.5025C6.41823 78.5025 6.36978 78.4724 6.35161 78.4183C6.32134 78.3522 6.35767 78.2741 6.42428 78.25C9.07666 77.1801 8.68304 71.2653 8.68304 71.2052C8.67698 71.1331 8.73148 71.067 8.80415 71.061C8.88287 71.055 8.94343 71.1151 8.94949 71.1872C8.96765 71.4336 9.35522 77.3544 6.52117 78.4965C6.50502 78.5005 6.48888 78.5025 6.47273 78.5025V78.5025Z" fill="white"/>
<path d="M13.4671 55.4028L11.0993 58.5585L6.2124 56.0219L7.13892 55.6913C7.70209 55.4929 8.12599 55.0181 8.25316 54.441L8.93139 51.3755L8.61044 50.7503C8.61044 50.7503 7.93221 50.4257 7.74448 49.8848C7.56281 49.3438 7.79293 49.2115 8.12599 49.3798C8.4651 49.5481 8.79816 49.8487 8.62255 49.2536C8.44694 48.6585 8.70127 48.382 9.1615 48.2979C9.82157 48.1776 10.082 46.735 10.9661 47.7569C10.9661 47.7569 11.6867 49.0492 12.0077 49.2476C12.3286 49.452 12.1469 49.7826 12.0016 49.9028C12.1772 50.3776 12.4558 51.5197 12.4618 51.6399C12.4618 51.8804 11.8199 52.241 11.0509 52.3011L10.9843 53.5634C10.9419 54.3749 11.5232 55.0902 12.3347 55.2225L13.4671 55.4028Z" fill="white"/>
<path fill-rule="evenodd" clip-rule="evenodd" d="M11.099 58.6906C11.0788 58.6906 11.0587 58.6866 11.0385 58.6786L6.14551 56.136C6.10312 56.1119 6.07284 56.0638 6.0789 56.0097C6.0789 55.9556 6.11523 55.9136 6.16368 55.8955L7.09624 55.5649C7.61703 55.3786 8.00459 54.9518 8.11965 54.4108L8.78577 51.3933L8.50721 50.8463C8.34976 50.7622 7.79264 50.4376 7.61703 49.9267C7.50803 49.6021 7.5262 49.3737 7.66548 49.2534C7.73209 49.1933 7.89559 49.1152 8.18626 49.2595C8.25287 49.2955 8.31343 49.3316 8.37399 49.3616C8.42243 49.3917 8.48299 49.4278 8.53143 49.4518C8.52538 49.4157 8.51932 49.3616 8.4951 49.2895C8.40426 48.9709 8.41638 48.7125 8.53749 48.5141C8.65255 48.3338 8.85238 48.2196 9.137 48.1655C9.32472 48.1294 9.50034 47.937 9.66384 47.7447C9.86973 47.5043 10.0817 47.2578 10.3845 47.2578C10.6085 47.2578 10.8265 47.3961 11.0687 47.6726C11.0768 47.6766 11.0829 47.6826 11.0869 47.6906C11.3594 48.1775 11.8681 49.001 12.08 49.1392C12.2678 49.2534 12.3162 49.4037 12.3223 49.5119C12.3283 49.6742 12.2496 49.8305 12.1527 49.9387C12.3344 50.4496 12.5887 51.5015 12.5948 51.6398C12.5948 51.9764 11.9347 52.337 11.1778 52.4212L11.1172 53.5693C11.0809 54.3146 11.6138 54.9698 12.3586 55.0901L13.485 55.2764C13.5334 55.2824 13.5697 55.3125 13.5879 55.3545C13.6061 55.3966 13.6 55.4447 13.5697 55.4808L11.208 58.6365C11.1838 58.6726 11.1414 58.6906 11.099 58.6906V58.6906ZM6.54518 56.0458L11.0627 58.3901L13.2246 55.4988L12.3102 55.3545C11.4321 55.2103 10.8084 54.4349 10.8507 53.5573L10.9174 52.295C10.9234 52.2289 10.9779 52.1748 11.0445 52.1687C11.8257 52.1086 12.3283 51.754 12.3283 51.6398C12.3223 51.5256 12.0498 50.4196 11.8742 49.9507C11.856 49.8966 11.8742 49.8365 11.9165 49.8004C11.9771 49.7523 12.0619 49.6321 12.0558 49.5239C12.0498 49.4638 12.0134 49.4097 11.9347 49.3616C11.6077 49.1513 10.9597 48.0152 10.8568 47.8349C10.6751 47.6305 10.5177 47.5223 10.3845 47.5223C10.2088 47.5223 10.0393 47.7146 9.86368 47.919C9.66989 48.1414 9.47006 48.3758 9.18544 48.4239C8.97955 48.466 8.83422 48.5442 8.76155 48.6584C8.68282 48.7846 8.68282 48.9709 8.74944 49.2174C8.81605 49.4398 8.84027 49.6081 8.72521 49.6982C8.59805 49.7944 8.43454 49.7043 8.24076 49.5901C8.18626 49.56 8.12571 49.5299 8.0712 49.4999C7.93798 49.4338 7.85926 49.4338 7.84109 49.4518C7.81081 49.4758 7.78659 49.5901 7.87137 49.8425C8.04093 50.3234 8.6586 50.6299 8.66466 50.6299C8.69494 50.642 8.7131 50.666 8.72521 50.6901L9.04616 51.3152C9.05827 51.3392 9.06433 51.3693 9.05827 51.3993L8.38004 54.4649C8.24682 55.0961 7.7987 55.601 7.18708 55.8174L6.54518 56.0458Z" fill="black"/>
<path d="M10.7782 52.4694C10.1969 52.4694 9.83351 52.0487 9.71845 51.7962C9.68818 51.7301 9.7124 51.6519 9.77901 51.6219C9.84562 51.5858 9.92435 51.6159 9.96068 51.682C9.97279 51.712 10.2877 52.3432 11.0204 52.1749C11.0931 52.1568 11.1658 52.1989 11.1839 52.2711C11.2021 52.3432 11.1536 52.4153 11.087 52.4333C10.978 52.4574 10.8751 52.4694 10.7782 52.4694V52.4694Z" fill="black"/>
<path d="M8.43484 30.7041C7.68999 28.2576 9.10096 25.6729 11.5838 24.9396C14.0605 24.2062 16.6766 25.5948 17.4214 28.0472C18.1663 30.4997 16.7553 33.0784 14.2725 33.8117C11.7957 34.5511 9.17968 33.1565 8.43484 30.7041V30.7041Z" fill="white"/>
<path fill-rule="evenodd" clip-rule="evenodd" d="M12.8178 34.0995C10.7468 34.0995 8.82106 32.7651 8.19733 30.7034C7.82793 29.4831 7.96116 28.2028 8.56672 27.0848C9.17834 25.9547 10.1957 25.1372 11.431 24.7706C13.9805 24.0132 16.6752 25.4498 17.4382 27.9684C17.8076 29.1826 17.6744 30.4689 17.0688 31.587C16.4572 32.711 15.4399 33.5345 14.2045 33.8952C13.7443 34.0334 13.278 34.0995 12.8178 34.0995V34.0995ZM12.8178 24.8307C12.3818 24.8307 11.9458 24.8968 11.5098 25.023C10.341 25.3717 9.37818 26.1471 8.80289 27.205C8.22761 28.2629 8.10649 29.4771 8.45166 30.6252C9.17229 32.9995 11.7217 34.358 14.1258 33.6427C15.2945 33.3001 16.2574 32.5247 16.8327 31.4607C17.408 30.4028 17.5291 29.1886 17.1839 28.0405C16.5905 26.093 14.7738 24.8307 12.8178 24.8307V24.8307Z" fill="black"/>
<path d="M24.264 11.5588C23.5131 9.08229 24.9362 6.47355 27.4432 5.72819C29.9563 4.98885 32.5966 6.3954 33.3475 8.87191C34.0984 11.3484 32.6753 13.9572 30.1683 14.7025C27.6612 15.4479 25.0149 14.0413 24.264 11.5588V11.5588Z" fill="white"/>
<path fill-rule="evenodd" clip-rule="evenodd" d="M28.8943 14.9395C26.793 14.9395 24.8491 13.5871 24.2193 11.5073C23.8439 10.2751 23.9771 8.9767 24.5948 7.84665C25.2125 6.71058 26.2359 5.88107 27.4894 5.5084C30.063 4.74501 32.7881 6.19364 33.5571 8.74228C33.9326 9.96851 33.7994 11.2669 33.1877 12.3969C32.5701 13.533 31.5406 14.3685 30.2871 14.7352C29.8208 14.8734 29.3545 14.9395 28.8943 14.9395V14.9395ZM24.4737 11.4292C25.2064 13.8335 27.78 15.204 30.2144 14.4827C31.3953 14.1341 32.3642 13.3466 32.9516 12.2707C33.5329 11.2068 33.654 9.97452 33.3028 8.81441C32.5761 6.41004 30.0025 5.03955 27.5681 5.76086C26.3812 6.1155 25.4123 6.89692 24.8249 7.97288C24.2496 9.04282 24.1224 10.2691 24.4737 11.4292Z" fill="black"/>
<path d="M30.0083 10.5219L30.154 9.5619H29.2429V8.93893C29.2429 8.67629 29.3702 8.42028 29.7782 8.42028H30.1925V7.60294C30.1925 7.60294 29.8166 7.53809 29.4572 7.53809C28.7068 7.53809 28.2164 7.99788 28.2164 8.83025V9.5619H27.3823V10.5219H28.2164V12.8427H29.2429V10.5219H30.0083Z" fill="black"/>
<path d="M10.2573 16.2594C10.2573 12.9654 12.9521 10.2905 16.2766 10.2905C19.6012 10.2905 22.2959 12.9654 22.2959 16.2594C22.2959 19.5594 19.6012 22.2342 16.2766 22.2342C12.9521 22.2342 10.2573 19.5594 10.2573 16.2594V16.2594Z" fill="white"/>
<path fill-rule="evenodd" clip-rule="evenodd" d="M16.3933 22.265C13.0021 22.265 10.2407 19.53 10.2407 16.1579C10.2407 12.7918 13.0021 10.0508 16.3933 10.0508C19.7844 10.0508 22.5458 12.7918 22.5458 16.1579C22.5458 19.53 19.7844 22.265 16.3933 22.265V22.265ZM16.3933 10.3213C13.1474 10.3213 10.5072 12.942 10.5072 16.1579C10.5072 19.3797 13.1474 22.0005 16.3933 22.0005C19.6391 22.0005 22.2793 19.3797 22.2793 16.1579C22.2793 12.942 19.6391 10.3213 16.3933 10.3213V10.3213Z" fill="black"/>
<path d="M28.0185 44.2165L24.1671 45.076C23.6887 45.1842 23.3193 45.5569 23.2224 46.0258L22.7077 48.4301L20.9455 46.4525C20.6427 46.1159 20.1825 45.9717 19.7404 46.0678L16.1979 46.8613C15.5257 47.0116 14.8596 46.5908 14.7082 45.9236L13.0126 38.464C12.8612 37.7968 13.2851 37.1356 13.9573 36.9853L25.7719 34.3405C26.444 34.1902 27.1101 34.611 27.2615 35.2722L28.9571 42.7378C29.1085 43.405 28.6846 44.0662 28.0185 44.2165V44.2165Z" fill="white"/>
<path fill-rule="evenodd" clip-rule="evenodd" d="M22.7077 48.5623C22.6713 48.5623 22.635 48.5443 22.6047 48.5142L20.8425 46.5427C20.5761 46.2421 20.1643 46.1099 19.7707 46.2L16.2281 46.9875C15.4833 47.1558 14.7445 46.6929 14.5749 45.9536L12.8854 38.494C12.7158 37.7547 13.1821 37.0213 13.927 36.853L25.7476 34.2142C26.4864 34.0459 27.2252 34.5088 27.3947 35.2481L29.0903 42.7077C29.2538 43.447 28.7875 44.1804 28.0487 44.3487L24.1913 45.2082C23.7734 45.3044 23.4404 45.635 23.3496 46.0558L22.8348 48.4541C22.8288 48.5022 22.7864 48.5443 22.7379 48.5563C22.7299 48.5603 22.7198 48.5623 22.7077 48.5623V48.5623ZM20.0129 45.9055C20.4005 45.9055 20.782 46.0678 21.0424 46.3683L22.6289 48.1416L23.0892 46.0017C23.1982 45.4787 23.6099 45.064 24.1368 44.9498L27.9882 44.0902C28.5877 43.9519 28.9631 43.3629 28.8299 42.7678L27.1343 35.3022C27.0011 34.7131 26.4016 34.3345 25.8021 34.4727L13.9815 37.1115C13.388 37.2498 13.0065 37.8388 13.1458 38.4339L14.8353 45.8995C14.9019 46.182 15.0775 46.4284 15.3258 46.5847C15.5802 46.747 15.8769 46.7951 16.1676 46.729L19.7101 45.9416C19.811 45.9175 19.912 45.9055 20.0129 45.9055Z" fill="#EC590C"/>
<path d="M16.5371 39.6659C16.4766 39.6659 16.4221 39.6238 16.4039 39.5577C16.3918 39.4916 16.4342 39.4195 16.5069 39.4014L25.0029 37.4779C25.0756 37.4599 25.1483 37.508 25.1664 37.5801C25.1785 37.6522 25.1362 37.7184 25.0635 37.7364L16.5674 39.6599C16.5553 39.6639 16.5452 39.6659 16.5371 39.6659V39.6659Z" fill="#EC590C"/>
<path d="M16.7857 41.6857C16.7251 41.6857 16.6706 41.6437 16.6524 41.5835C16.6403 41.5114 16.6827 41.4393 16.7554 41.4273L23.0533 39.9967C23.1259 39.9846 23.1986 40.0267 23.2107 40.0988C23.2289 40.171 23.1865 40.2431 23.1138 40.2551L16.8159 41.6797C16.8038 41.6837 16.7937 41.6857 16.7857 41.6857V41.6857Z" fill="#EC590C"/>
<path d="M17.482 43.6573C17.4214 43.6573 17.3669 43.6152 17.3487 43.5551C17.3366 43.483 17.379 43.4109 17.4517 43.3989L25.9478 41.4754C26.0204 41.4573 26.0931 41.4994 26.1113 41.5715C26.1234 41.6437 26.081 41.7158 26.0083 41.7338L17.5122 43.6573C17.5001 43.6573 17.49 43.6573 17.482 43.6573Z" fill="#EC590C"/>
<path d="M108.971 37.3701C109.316 37.3701 109.594 37.6466 109.594 37.9892V42.257C109.594 42.5996 109.316 42.8761 108.971 42.8761H97.1257C96.7805 42.8761 96.502 42.5996 96.502 42.257V37.9892C96.502 37.6466 96.7805 37.3701 97.1257 37.3701H108.971Z" fill="white"/>
<path d="M108.97 43.0083H97.1256C96.7078 43.0083 96.3687 42.6717 96.3687 42.2569V37.9892C96.3687 37.5744 96.7078 37.2378 97.1256 37.2378H99.4631C99.5358 37.2378 99.5963 37.2979 99.5963 37.37C99.5963 37.4422 99.5358 37.5023 99.4631 37.5023H97.1256C96.8592 37.5023 96.6351 37.7247 96.6351 37.9892V42.2569C96.6351 42.5274 96.8592 42.7438 97.1256 42.7438H108.97C109.243 42.7438 109.461 42.5274 109.461 42.2569V37.9892C109.461 37.7247 109.243 37.5023 108.97 37.5023H101.038C100.965 37.5023 100.904 37.4422 100.904 37.37C100.904 37.2979 100.965 37.2378 101.038 37.2378H108.97C109.388 37.2378 109.727 37.5744 109.727 37.9892V42.2569C109.727 42.6717 109.388 43.0083 108.97 43.0083Z" fill="black"/>
<path d="M107.869 39.534H98.4521C98.3794 39.534 98.3188 39.4739 98.3188 39.4018C98.3188 39.3296 98.3794 39.2695 98.4521 39.2695H107.869C107.941 39.2695 108.002 39.3296 108.002 39.4018C108.002 39.4739 107.941 39.534 107.869 39.534Z" fill="black"/>
<path d="M107.868 40.784H105.9C105.828 40.784 105.767 40.7239 105.767 40.6518C105.767 40.5796 105.828 40.5195 105.9 40.5195H107.868C107.941 40.5195 108.002 40.5796 108.002 40.6518C108.002 40.7239 107.941 40.784 107.868 40.784Z" fill="black"/>
<path d="M104.641 40.784H98.4521C98.3794 40.784 98.3188 40.7239 98.3188 40.6518C98.3188 40.5796 98.3794 40.5195 98.4521 40.5195H104.641C104.714 40.5195 104.774 40.5796 104.774 40.6518C104.774 40.7239 104.714 40.784 104.641 40.784Z" fill="black"/>
<ellipse cx="64.8974" cy="3.49001" rx="1.82658" ry="1.81472" fill="black"/>
<path d="M18.8461 15.0855C18.7879 14.8619 18.6165 14.6859 18.3989 14.6261C18.0044 14.5176 16.4227 14.5176 16.4227 14.5176C16.4227 14.5176 14.8409 14.5176 14.4465 14.6261C14.2288 14.6859 14.0574 14.8619 13.9993 15.0855C13.8936 15.4906 13.8936 16.336 13.8936 16.336C13.8936 16.336 13.8936 17.1813 13.9993 17.5865C14.0574 17.81 14.2288 17.9787 14.4465 18.0385C14.8409 18.147 16.4227 18.147 16.4227 18.147C16.4227 18.147 18.0044 18.147 18.3989 18.0385C18.6165 17.9787 18.7879 17.81 18.8461 17.5865C18.9518 17.1813 18.9518 16.336 18.9518 16.336C18.9518 16.336 18.9518 15.4906 18.8461 15.0855V15.0855ZM15.9053 17.1035V15.5685L17.2274 16.336L15.9053 17.1035V17.1035Z" fill="black"/>
<path d="M12.489 28.3125C11.9308 28.3125 11.4806 28.76 11.4806 29.3147C11.4806 29.8694 11.9308 30.3168 12.489 30.3168C13.0472 30.3168 13.4975 29.8694 13.4975 29.3147C13.4975 28.76 13.0472 28.3125 12.489 28.3125ZM12.489 29.9662C12.1283 29.9662 11.8334 29.674 11.8334 29.3147C11.8334 28.9553 12.1274 28.6632 12.489 28.6632C12.8506 28.6632 13.1446 28.9553 13.1446 29.3147C13.1446 29.674 12.8497 29.9662 12.489 29.9662ZM13.7739 28.2716C13.7739 28.4015 13.6686 28.5053 13.5387 28.5053C13.4079 28.5053 13.3035 28.4006 13.3035 28.2716C13.3035 28.1425 13.4088 28.0378 13.5387 28.0378C13.6686 28.0378 13.7739 28.1425 13.7739 28.2716ZM14.4418 28.5088C14.4269 28.1957 14.3549 27.9183 14.1241 27.6898C13.8942 27.4613 13.6151 27.3898 13.3 27.3741C12.9752 27.3558 12.0019 27.3558 11.6772 27.3741C11.363 27.3889 11.0839 27.4604 10.853 27.6889C10.6222 27.9175 10.5511 28.1948 10.5353 28.5079C10.5169 28.8306 10.5169 29.7978 10.5353 30.1206C10.5502 30.4337 10.6222 30.711 10.853 30.9395C11.0839 31.168 11.3621 31.2395 11.6772 31.2552C12.0019 31.2736 12.9752 31.2736 13.3 31.2552C13.6151 31.2404 13.8942 31.1689 14.1241 30.9395C14.3541 30.711 14.426 30.4337 14.4418 30.1206C14.4603 29.7978 14.4603 28.8315 14.4418 28.5088ZM14.0223 30.4668C13.9539 30.6377 13.8213 30.7694 13.6484 30.8383C13.3895 30.9404 12.7751 30.9168 12.489 30.9168C12.2029 30.9168 11.5876 30.9395 11.3296 30.8383C11.1576 30.7703 11.0251 30.6386 10.9557 30.4668C10.853 30.2095 10.8767 29.599 10.8767 29.3147C10.8767 29.0303 10.8539 28.4189 10.9557 28.1625C11.0242 27.9916 11.1567 27.8599 11.3296 27.791C11.5885 27.6889 12.2029 27.7125 12.489 27.7125C12.7751 27.7125 13.3904 27.6898 13.6484 27.791C13.8204 27.859 13.953 27.9907 14.0223 28.1625C14.125 28.4198 14.1013 29.0303 14.1013 29.3147C14.1013 29.599 14.125 30.2104 14.0223 30.4668Z" fill="black"/>
</g>
</g>
<defs>
<clipPath id="clip0_235_678">
<rect width="110" height="110" fill="white"/>
</clipPath>
<clipPath id="clip1_235_678">
<rect width="111" height="110" fill="white" transform="translate(-1)"/>
</clipPath>
</defs>
</svg>
