<svg width="251" height="248" viewBox="0 0 251 248" fill="none" xmlns="http://www.w3.org/2000/svg">
<path opacity="0.16" d="M127.465 247.132C173.078 247.132 210.054 242.621 210.054 237.058C210.054 231.494 173.078 226.984 127.465 226.984C81.8525 226.984 44.8762 231.494 44.8762 237.058C44.8762 242.621 81.8525 247.132 127.465 247.132Z" fill="#F9F9F9"/>
<path opacity="0.07" d="M210.311 26.7008C204.669 21.6498 198.546 17.1615 192.032 13.2994L138.286 94.0629L211.318 27.6269C210.99 27.3146 210.656 27.0184 210.311 26.7008ZM162.214 1.61024C153.833 -0.134948 145.22 -0.464352 136.73 0.635693L138.286 94.0576L162.214 1.61024ZM105.884 12.7287C100.751 16.3336 96.0532 20.5218 91.8852 25.2093C90.4278 26.8426 88.9292 28.4794 87.3893 30.1198L138.292 94.0683L105.884 12.7287ZM61.7927 53.7673C58.3024 56.4719 54.6778 58.9985 50.9327 61.3376C42.8725 66.3234 34.1769 70.0223 26.0198 76.3811L138.286 94.0683L61.7927 53.7673ZM0.197029 128.14C-0.788286 142.715 1.97383 158.491 7.32037 172.759L138.286 94.0683L0.197029 128.14ZM138.286 94.0683L44.7893 217.814C58.3898 223.737 74.7418 224.814 91.6859 223.511L138.286 94.0683ZM138.286 94.0683L142.734 215.364C152.345 214.336 164.082 214.654 176.24 214.131L138.286 94.0683ZM243.247 178.116L138.286 94.0683L220.008 204.235C229.522 198.91 237.701 190.732 243.247 178.116ZM247.689 105.628L138.286 94.0683L250.887 134.843C250.438 125.047 249.37 115.289 247.689 105.628ZM229.969 51.9582L138.286 94.0683L239.591 73.7805C237.001 66.2494 233.783 58.9496 229.969 51.9582Z" fill="black"/>
<path d="M233.179 170.39C233.179 170.39 227.369 168.425 225.641 167.224C223.912 166.023 219.492 161.587 218.464 158.168C217.576 155.012 216.987 151.78 216.703 148.514C216.445 145.865 215.335 145.181 213.709 147.232C212.083 149.284 211.556 152.617 212.003 154.77C212.449 156.924 213.796 159.385 213.618 159.815C213.44 160.246 213.187 161.097 213.187 161.097C213.187 161.097 207.975 160.499 205.073 159.815C202.171 159.131 199.861 158.873 199.689 160.241C199.517 161.608 200.114 163.746 200.286 165.199C200.459 166.653 202.677 173.06 203.792 174.509C204.581 175.636 205.497 176.669 206.521 177.589C207.205 178.1 207.205 178.525 208.831 178.698C210.209 178.821 211.578 179.021 212.934 179.295C213.532 179.468 214.129 180.065 216.951 179.979C218.724 179.918 220.491 179.747 222.243 179.468L230.702 182.623L233.179 170.39Z" fill="white" stroke="#263238" stroke-width="0.75" stroke-miterlimit="10"/>
<path d="M230.443 168.764L226.938 183.975L232.667 186.279L235.569 170.476L230.443 168.764Z" fill="white" stroke="#263238" stroke-width="0.75" stroke-miterlimit="10"/>
<path d="M244.873 171.672L233.69 168.937L229.587 187.049L244.809 194.151L244.873 192.778V171.672Z" fill="#263238" stroke="#263238" stroke-width="0.75" stroke-miterlimit="10"/>
<path d="M212.842 161.845C212.842 161.845 212.073 166.47 212.073 167.547C212.073 168.624 214.463 171.65 215.303 171.817" stroke="#263238" stroke-width="0.75" stroke-miterlimit="10"/>
<path d="M211.13 173.47C211.13 173.47 212.331 173.895 211.987 174.923C211.642 175.952 209.079 177.4 207.884 178.084C206.688 178.768 206.269 178.682 204.896 177.912C204.089 177.466 203.478 176.734 203.183 175.86C204.044 175.839 204.903 175.754 205.752 175.607L211.13 173.47Z" fill="white" stroke="#263238" stroke-width="0.75" stroke-miterlimit="10"/>
<path d="M201.304 171.241C201.304 171.241 201.304 175.172 202.247 175.516C203.146 175.864 204.104 176.037 205.068 176.028C205.666 175.942 209.682 174.574 210.452 174.063C211.222 173.551 211.992 172.447 211.567 171.414L211.136 170.391C209.838 170.613 208.523 170.726 207.205 170.73C205.052 170.73 201.482 170.046 201.224 170.304C200.965 170.563 201.304 171.241 201.304 171.241Z" fill="white" stroke="#263238" stroke-width="0.75" stroke-miterlimit="10"/>
<path d="M200.012 165.931C199.841 166.04 199.703 166.193 199.613 166.374C199.523 166.556 199.484 166.758 199.5 166.96C199.5 167.729 198.477 170.034 199.672 170.804C200.868 171.574 204.626 172.171 205.396 172.171C206.166 172.171 210.694 170.556 211.119 170.379C211.545 170.201 211.55 168.666 211.378 168.069C211.205 167.471 209.671 167.299 209.671 167.299C209.671 167.299 203.102 167.143 200.012 165.931Z" fill="white" stroke="#263238" stroke-width="0.75" stroke-miterlimit="10"/>
<path d="M202.246 160.731C202.246 160.731 204.982 162.783 205.477 162.955L209.666 164.409C209.666 164.409 210.204 164.662 210.204 165.69C210.195 166.133 210.027 166.558 209.73 166.887C209.434 167.216 209.029 167.428 208.589 167.483C207.738 167.655 204.659 168.167 203.549 167.742C202.037 166.994 200.582 166.137 199.194 165.179C198.424 164.64 198.337 163.978 198.763 163.025C199.133 162.104 199.447 161.162 199.705 160.204" fill="white"/>
<path d="M202.246 160.731C202.246 160.731 204.982 162.783 205.477 162.955L209.666 164.409C209.666 164.409 210.204 164.662 210.204 165.69C210.195 166.133 210.027 166.558 209.73 166.887C209.434 167.216 209.029 167.428 208.589 167.483C207.738 167.655 204.659 168.167 203.549 167.742C202.037 166.994 200.582 166.137 199.194 165.179C198.424 164.64 198.337 163.978 198.763 163.025C199.133 162.104 199.447 161.162 199.705 160.204" stroke="#263238" stroke-width="0.75" stroke-miterlimit="10"/>
<path d="M216.165 38.2604C216.165 38.2604 210.29 40.0426 208.207 40.0642C206.123 40.0857 199.92 39.0573 197.099 36.8713C194.532 34.8304 192.163 32.5517 190.024 30.0656C188.274 28.0573 186.971 28.1488 186.842 30.7602C186.713 33.3716 188.237 36.3813 189.83 37.8728C191.424 39.3642 193.971 40.5649 194.084 41.0279C194.197 41.491 194.482 42.3202 194.482 42.3202C194.482 42.3202 189.895 44.8669 187.133 45.9976C184.371 47.1283 182.346 48.2697 183.003 49.4812C183.66 50.6926 185.388 52.0818 186.374 53.164C187.359 54.2462 192.894 58.1606 194.644 58.699C195.942 59.1525 197.288 59.4577 198.655 59.6089C199.511 59.6089 199.732 59.9751 201.18 59.1728C202.37 58.4683 203.6 57.8336 204.863 57.2722C205.45 57.0622 206.285 57.2022 208.524 55.49C209.933 54.4077 211.272 53.2388 212.536 51.9902L221.258 49.6373L216.165 38.2604Z" fill="white" stroke="#263238" stroke-width="0.75" stroke-miterlimit="10"/>
<path d="M212.988 38.5278L218.991 52.936L224.99 51.4823L218.152 36.9341L212.988 38.5278Z" fill="white" stroke="#263238" stroke-width="0.75" stroke-miterlimit="10"/>
<path d="M226.416 32.4985L215.729 36.779L222.933 53.8955L239.441 50.8157L238.698 49.6635L226.416 32.4985Z" fill="#EC590C" stroke="#263238" stroke-width="0.75" stroke-miterlimit="10"/>
<path d="M194.628 43.1704C194.628 43.1704 196.69 47.3701 197.32 48.2747C197.95 49.1792 201.628 50.2184 202.446 49.8576" stroke="#263238" stroke-width="0.75" stroke-miterlimit="10"/>
<path d="M200.012 53.5883C200.012 53.5883 201.234 53.2383 201.552 54.2721C201.87 55.3059 200.631 57.9764 200.055 59.231C199.479 60.4855 199.086 60.6632 197.525 60.8462C196.609 60.9548 195.686 60.7145 194.94 60.1732C195.628 59.6558 196.276 59.087 196.879 58.4718L200.012 53.5883Z" fill="white" stroke="#263238" stroke-width="0.75" stroke-miterlimit="10"/>
<path d="M190.735 57.4971C190.735 57.4971 193.018 60.6953 193.966 60.4261C194.899 60.1843 195.78 59.7697 196.561 59.2039C196.997 58.7839 199.468 55.338 199.791 54.4712C200.114 53.6043 200.098 52.2582 199.156 51.6714L198.214 51.0845C197.287 52.0221 196.284 52.8812 195.215 53.6528C193.476 54.8911 190.159 56.4256 190.1 56.781C190.041 57.1364 190.735 57.4971 190.735 57.4971Z" fill="white" stroke="#263238" stroke-width="0.75" stroke-miterlimit="10"/>
<path d="M186.605 53.9381C186.531 54.1265 186.508 54.3314 186.54 54.5314C186.573 54.7313 186.658 54.9189 186.788 55.0742C187.235 55.6988 187.741 58.1702 189.163 58.1002C190.584 58.0302 194.008 56.3287 194.617 55.8819C195.225 55.435 197.977 51.4775 198.23 51.0899C198.483 50.7022 197.578 49.4746 197.094 49.0654C196.609 48.6562 195.258 49.4369 195.258 49.4369C195.258 49.4369 189.782 53.1197 186.605 53.9381Z" fill="white" stroke="#263238" stroke-width="0.75" stroke-miterlimit="10"/>
<path d="M185.383 48.4032C185.383 48.4032 188.797 48.4786 189.314 48.3224C189.831 48.1663 193.567 47.0679 193.567 47.0679C193.567 47.0679 194.133 46.9764 194.73 47.8109C194.982 48.1772 195.093 48.6226 195.041 49.0642C194.99 49.5058 194.78 49.9138 194.45 50.2123C193.858 50.853 191.656 53.0552 190.504 53.3567C188.837 53.6282 187.153 53.7794 185.464 53.809C184.543 53.809 184.075 53.3298 183.849 52.3175C183.612 51.3553 183.319 50.4078 182.971 49.48" fill="white"/>
<path d="M185.383 48.4032C185.383 48.4032 188.797 48.4786 189.314 48.3224C189.831 48.1663 193.567 47.0679 193.567 47.0679C193.567 47.0679 194.133 46.9764 194.73 47.8109C194.982 48.1772 195.093 48.6226 195.041 49.0642C194.99 49.5058 194.78 49.9138 194.45 50.2123C193.858 50.853 191.656 53.0552 190.504 53.3567C188.837 53.6282 187.153 53.7794 185.464 53.809C184.543 53.809 184.075 53.3298 183.849 52.3175C183.612 51.3553 183.319 50.4078 182.971 49.48" stroke="#263238" stroke-width="0.75" stroke-miterlimit="10"/>
<path d="M28.1685 168.457C28.1685 168.457 33.978 166.492 35.7064 165.296C37.4347 164.101 41.839 159.654 42.862 156.24C43.7648 153.086 44.3669 149.854 44.6604 146.586C44.9134 143.937 46.028 143.253 47.6486 145.305C49.2693 147.356 49.8023 150.689 49.3554 152.842C48.9085 154.996 47.5625 157.457 47.7402 157.882C47.9178 158.307 48.1655 159.164 48.1655 159.164C48.1655 159.164 53.3774 158.566 56.2849 157.882C59.1924 157.198 61.4969 156.94 61.6692 158.307C61.8415 159.675 61.2384 161.813 61.0715 163.266C60.9046 164.72 58.6755 171.127 57.5664 172.581C56.7753 173.707 55.8576 174.739 54.8312 175.655C54.1474 176.194 54.1474 176.598 52.5267 176.765C51.1495 176.891 49.7799 177.09 48.424 177.362C47.8263 177.535 47.2286 178.132 44.4073 178.046C42.6324 177.985 40.863 177.814 39.1092 177.535L30.6506 180.695L28.1685 168.457Z" fill="white" stroke="#263238" stroke-width="0.75" stroke-miterlimit="10"/>
<path d="M30.9039 166.831L34.4036 182.042L28.6802 184.351L25.7727 168.543L30.9039 166.831Z" fill="white" stroke="#263238" stroke-width="0.75" stroke-miterlimit="10"/>
<path d="M16.4685 169.739L27.6516 167.003L31.7543 185.116L16.5385 192.218L16.4685 190.845V169.739Z" fill="#263238" stroke="#263238" stroke-width="0.75" stroke-miterlimit="10"/>
<path d="M48.5045 159.912C48.5045 159.912 49.2745 164.526 49.2745 165.635C49.2745 166.744 46.8785 169.738 46.0439 169.91" stroke="#263238" stroke-width="0.75" stroke-miterlimit="10"/>
<path d="M50.2116 171.531C50.2116 171.531 49.0163 171.962 49.3555 172.985C49.6947 174.008 52.263 175.462 53.4583 176.146C54.6536 176.829 55.0736 176.743 56.452 175.973C57.2583 175.531 57.8679 174.8 58.1588 173.927C57.2991 173.906 56.4423 173.82 55.5959 173.669L50.2116 171.531Z" fill="white" stroke="#263238" stroke-width="0.75" stroke-miterlimit="10"/>
<path d="M60.0218 169.313C60.0218 169.313 60.0218 173.243 59.0849 173.582C58.1877 173.941 57.2299 174.124 56.2636 174.121C55.6659 174.035 51.6493 172.672 50.8794 172.155C50.1094 171.639 49.3395 170.54 49.7702 169.506L50.1956 168.483C51.494 168.706 52.8087 168.819 54.1261 168.823C56.2798 168.823 59.8495 168.139 60.1079 168.397C60.3664 168.656 60.0218 169.313 60.0218 169.313Z" fill="white" stroke="#263238" stroke-width="0.75" stroke-miterlimit="10"/>
<path d="M61.3193 164.016C61.497 164.117 61.642 164.268 61.7374 164.449C61.8328 164.63 61.8745 164.835 61.8577 165.039C61.8577 165.809 62.8861 168.113 61.6908 168.883C60.4955 169.653 56.705 170.24 55.935 170.24C55.1651 170.24 50.637 168.625 50.2116 168.447C49.7862 168.269 49.7862 166.735 49.9585 166.137C50.1308 165.539 51.6653 165.372 51.6653 165.372C51.6653 165.372 58.2449 165.211 61.3193 164.016Z" fill="white" stroke="#263238" stroke-width="0.75" stroke-miterlimit="10"/>
<path d="M59.1007 158.803C59.1007 158.803 56.3655 160.849 55.8702 161.021C55.3748 161.194 51.6812 162.475 51.6812 162.475C51.6812 162.475 51.1428 162.734 51.1428 163.757C51.1511 164.2 51.3191 164.625 51.6158 164.955C51.9125 165.284 52.3181 165.495 52.7581 165.55C53.6142 165.722 56.6886 166.233 57.8031 165.808C59.3214 165.06 60.7826 164.202 62.1751 163.24C62.9451 162.728 63.0312 162.044 62.6005 161.086C62.2333 160.165 61.9205 159.223 61.6636 158.265" fill="white"/>
<path d="M59.1007 158.803C59.1007 158.803 56.3655 160.849 55.8702 161.021C55.3748 161.194 51.6812 162.475 51.6812 162.475C51.6812 162.475 51.1428 162.734 51.1428 163.757C51.1511 164.2 51.3191 164.625 51.6158 164.955C51.9125 165.284 52.3181 165.495 52.7581 165.55C53.6142 165.722 56.6886 166.233 57.8031 165.808C59.3214 165.06 60.7826 164.202 62.1751 163.24C62.9451 162.728 63.0312 162.044 62.6005 161.086C62.2333 160.165 61.9205 159.223 61.6636 158.265" stroke="#263238" stroke-width="0.75" stroke-miterlimit="10"/>
<path d="M34.4846 43.3747C34.4846 43.3747 40.3534 45.1569 42.4425 45.1784C44.5316 45.2 50.7235 44.1716 53.5502 41.9856C56.1173 39.9446 58.4861 37.666 60.6251 35.1799C62.3749 33.1716 63.6779 33.2631 63.8018 35.8745C63.9256 38.4858 62.4072 41.4956 60.8189 42.987C59.2305 44.4785 56.673 45.6792 56.5653 46.1422C56.4577 46.6052 56.1669 47.4344 56.1669 47.4344C56.1669 47.4344 60.7543 49.9758 63.5164 51.1118C66.2785 52.2479 68.303 53.3786 67.6461 54.5901C66.9892 55.8015 65.2609 57.1907 64.2756 58.2729C63.2903 59.3551 57.7553 63.2748 56.0054 63.8133C54.7069 64.2667 53.3612 64.572 51.9941 64.7232C51.138 64.7232 50.9173 65.0893 49.4689 64.2817C48.2763 63.5826 47.0469 62.9481 45.7861 62.381C45.1992 62.1764 44.3647 62.3111 42.1194 60.6043C40.7135 59.5211 39.3757 58.3523 38.1136 57.1045L29.3911 54.7516L34.4846 43.3747Z" fill="white" stroke="#263238" stroke-width="0.75" stroke-miterlimit="10"/>
<path d="M37.6555 43.644L31.6521 58.0522L25.6541 56.5985L32.492 42.0503L37.6555 43.644Z" fill="white" stroke="#263238" stroke-width="0.75" stroke-miterlimit="10"/>
<path d="M24.2276 37.6133L34.9153 41.8937L27.7112 59.0102L11.2031 55.9304L11.9461 54.7728L24.2276 37.6133Z" fill="#EC590C" stroke="#263238" stroke-width="0.75" stroke-miterlimit="10"/>
<path d="M56 48.2578C56 48.2578 53.9379 52.4575 53.3079 53.3567C52.678 54.2559 49.0005 55.3004 48.1821 54.972" stroke="#263238" stroke-width="0.75" stroke-miterlimit="10"/>
<path d="M50.6261 58.703C50.6261 58.703 49.4039 58.3531 49.0862 59.3868C48.7685 60.4206 50.0069 63.0912 50.583 64.3403C51.1591 65.5895 51.5522 65.7725 53.1136 65.9556C54.0289 66.0609 54.9504 65.8209 55.6981 65.2826C55.01 64.7651 54.362 64.1964 53.7597 63.5812L50.6261 58.703Z" fill="white" stroke="#263238" stroke-width="0.75" stroke-miterlimit="10"/>
<path d="M59.9086 62.6133C59.9086 62.6133 57.6203 65.8115 56.6781 65.5423C55.7426 65.3024 54.8617 64.8857 54.0829 64.3147C53.6468 63.9001 51.1754 60.4488 50.8523 59.5874C50.5293 58.7259 50.5508 57.3691 51.4931 56.7876L52.4353 56.2007C53.36 57.139 54.3634 57.9964 55.4343 58.7636C57.1734 60.0073 60.4901 61.5418 60.5494 61.8972C60.6086 62.2526 59.9086 62.6133 59.9086 62.6133Z" fill="white" stroke="#263238" stroke-width="0.75" stroke-miterlimit="10"/>
<path d="M64.033 59.0476C64.1095 59.2353 64.1333 59.4402 64.102 59.6404C64.0707 59.8405 63.9854 60.0284 63.8554 60.1837C63.4085 60.8083 62.897 63.2796 61.4809 63.2096C60.0649 63.1397 56.6351 61.4382 56.0267 60.9913C55.4183 60.5445 52.6615 56.587 52.4139 56.1994C52.1662 55.8117 53.06 54.5841 53.5499 54.1749C54.0399 53.7657 55.386 54.541 55.386 54.541C55.386 54.541 60.8348 58.2454 64.033 59.0476Z" fill="white" stroke="#263238" stroke-width="0.75" stroke-miterlimit="10"/>
<path d="M65.2606 53.519C65.2606 53.519 61.8416 53.5944 61.3248 53.4382C60.8079 53.2821 57.0766 52.1783 57.0766 52.1783C57.0766 52.1783 56.5382 52.0922 55.9136 52.9267C55.6621 53.2928 55.5513 53.7375 55.6018 54.1788C55.6522 54.6201 55.8605 55.0282 56.1882 55.3281C56.7858 55.9634 58.988 58.171 60.1402 58.4725C61.8069 58.745 63.4913 58.8944 65.1799 58.9194C66.1006 58.9517 66.569 58.4456 66.7682 57.4333C67.0051 56.4694 67.2981 55.5201 67.6459 54.5904" fill="white"/>
<path d="M65.2606 53.519C65.2606 53.519 61.8416 53.5944 61.3248 53.4382C60.8079 53.2821 57.0766 52.1783 57.0766 52.1783C57.0766 52.1783 56.5382 52.0922 55.9136 52.9267C55.6621 53.2928 55.5513 53.7375 55.6018 54.1788C55.6522 54.6201 55.8605 55.0282 56.1882 55.3281C56.7858 55.9634 58.988 58.171 60.1402 58.4725C61.8069 58.745 63.4913 58.8944 65.1799 58.9194C66.1006 58.9517 66.569 58.4456 66.7682 57.4333C67.0051 56.4694 67.2981 55.5201 67.6459 54.5904" stroke="#263238" stroke-width="0.75" stroke-miterlimit="10"/>
<path d="M113.326 121.43C113.326 121.43 109.557 137.938 109.406 145.703C109.255 153.467 109.686 181.448 109.831 187.452C109.977 193.455 112.615 212.941 112.615 214.696C112.615 216.451 113.056 219.822 113.056 219.822L111.883 226.121C110.734 227.009 109.509 227.793 108.221 228.464C105.583 229.928 102.509 231.834 101.631 232.857C101.524 232.98 101.448 233.127 101.41 233.286C101.372 233.444 101.372 233.61 101.411 233.768C101.451 233.926 101.527 234.073 101.635 234.196C101.742 234.318 101.878 234.413 102.03 234.472C103.074 234.881 104.174 235.13 105.292 235.21C107.78 235.355 111.883 235.355 114.079 234.769C116.276 234.182 118.037 232.281 119.06 231.538L120.088 230.806L120.234 232.421C120.727 232.349 121.216 232.25 121.698 232.125C122.773 231.815 123.806 231.374 124.773 230.811C124.773 230.811 124.918 228.318 124.918 226.854C124.918 225.389 124.186 222.751 124.04 222.169C123.895 221.588 124.04 216.306 123.604 214.551C123.168 212.795 122.872 213.232 122.576 210.012C122.28 206.792 124.918 176.317 124.773 175.44C124.627 174.562 128.498 148.163 128.498 148.163C128.498 148.163 135.902 182.622 138.244 189.218C140.586 195.814 141.76 208.553 141.76 209.436C141.76 210.319 143.079 220.71 143.666 222.18C144.253 223.65 145.863 228.184 145.863 228.184C145.863 228.184 148.205 231.7 149.228 233.455C150.251 235.21 153.772 236.685 156.405 237.116C159.038 237.547 161.095 237.703 161.251 234.187C161.407 230.671 160.082 228.329 157.88 226.719C155.678 225.109 155.247 223.645 155.247 223.645C155.407 221.494 155.407 219.334 155.247 217.184C154.951 214.691 153.341 212.785 153.196 207.659C153.051 202.533 152.022 175.58 151.145 171.331C150.267 167.083 149.109 138.665 149.255 134.719C149.4 130.772 148.883 119.745 148.883 119.745L113.218 119.341L113.326 121.43Z" fill="white" stroke="#263238" stroke-width="0.75" stroke-miterlimit="10"/>
<path d="M127.325 62.4149C127.325 62.4149 121.881 65.6454 118.026 67.5514C114.171 69.4575 109.465 70.5666 108.986 71.6488C108.507 72.7311 100.188 90.456 98.6214 92.8627C97.0546 95.2695 93.318 99.9753 94.0394 102.624C94.7609 105.273 97.7761 108.892 99.7037 108.655C101.631 108.418 105.492 107.325 107.059 104.557C108.625 101.79 112.362 92.8627 112.362 92.8627C112.362 92.8627 112.965 101.181 112.841 105.279C112.717 109.376 112.723 112.752 112.48 114.798C112.238 116.844 111.156 119.38 111.635 120.102C112.114 120.823 112.712 121.55 113.326 121.431C113.94 121.313 122.969 121.189 125.71 121.308C128.45 121.426 141.017 121.308 143.671 121.431C146.326 121.555 148.614 120.225 148.851 119.741C149.088 119.256 149.578 118.535 149.336 115.886C149.093 113.237 149.578 105.16 150.299 102.027C151.021 98.8931 155.361 86.8378 155.361 86.8378C155.361 86.8378 166.813 95.8779 169.225 96.5994C171.637 97.3209 178.141 96.2386 180.311 93.5896C182.481 90.9406 183.202 88.8838 181.878 87.0801C180.553 85.2763 175.729 83.5857 170.668 78.1584C165.607 72.7311 163.668 70.2059 160.185 68.5152C156.701 66.8246 149.578 64.5416 147.887 63.8148C146.197 63.0879 145.733 62.7379 144.657 62.248C143.58 61.758 141.038 60.805 136.338 60.6812C133.251 60.6816 130.192 61.27 127.325 62.4149Z" fill="white" stroke="#263238" stroke-width="0.75" stroke-miterlimit="10"/>
<path d="M109.928 84.3223C110.095 84.9038 112.357 92.8617 112.357 92.8617L109.018 86.2444" stroke="#263238" stroke-width="0.75" stroke-miterlimit="10"/>
<path d="M155.382 86.8366C154.881 86.8366 150.143 84.1445 150.143 84.1445" stroke="#263238" stroke-width="0.75" stroke-miterlimit="10"/>
<path d="M147.731 83.8276C147.731 83.8276 149.643 86.3205 151.306 86.8159" stroke="#263238" stroke-width="0.75" stroke-miterlimit="10"/>
<path d="M126.646 69.807L128.159 75.5196C128.159 75.5196 123.367 99.4741 122.614 103.518C122.155 105.961 121.845 108.429 121.688 110.91L125.887 119.229L131.185 110.237C131.185 110.237 130.679 98.8926 130.512 89.8202C130.345 80.7477 130.679 76.3596 130.593 76.1227C130.507 75.8858 135.891 71.9176 135.891 71.9176C135.891 71.9176 138.998 68.4717 139.165 67.8848C139.332 67.2979 136.984 68.0517 136.473 68.5578C135.9 69.0423 135.222 69.3857 134.492 69.5606C133.763 69.7354 133.003 69.7368 132.273 69.5647C130.087 69.1447 127.228 66.711 126.808 67.8848C126.556 68.4934 126.5 69.165 126.646 69.807Z" fill="#263238" stroke="#263238" stroke-width="0.75" stroke-miterlimit="10"/>
<path d="M130.259 60.0611C130.006 60.228 127.993 60.7341 127.32 62.414C126.646 64.0939 123.201 71.8256 122.194 73.0855C121.187 74.3455 122.781 73.8393 124.127 72.9994C125.473 72.1595 126.646 68.8858 127.4 70.3073C128.154 71.7287 130.345 72.321 130.345 72.321C130.345 72.321 134.879 71.481 135.891 70.808C136.581 70.3265 137.228 69.7861 137.824 69.1927C137.824 69.1927 141.69 74.9916 142.778 75.4923C143.865 75.993 144.043 75.1585 144.124 74.2324C144.522 70.8567 145.168 67.5148 146.057 64.2339C147.133 60.621 145.05 59.4419 143.704 57.9343C142.358 56.4267 140.845 57.4282 139.337 57.5951C137.83 57.762 130.259 60.0611 130.259 60.0611Z" fill="white" stroke="#263238" stroke-width="0.75" stroke-miterlimit="10"/>
<path d="M127.955 34.185C127.955 34.185 125.328 38.1747 125.801 39.1439C126.275 40.113 126.286 41.3837 125.801 42.0621C125.435 42.5081 125.168 43.0266 125.017 43.5834C124.865 44.1402 124.834 44.7228 124.924 45.2927C125.118 46.9456 124.148 55.3074 125.607 56.2819C126.546 56.8923 127.557 57.3825 128.617 57.741C128.617 57.741 130.27 71.74 130.857 71.3524C131.444 70.9647 139.816 62.3876 140.786 60.5354C141.755 58.6833 142.939 56.0665 142.939 56.0665C142.939 56.0665 146.245 49.7454 148.189 47.1179C150.133 44.4904 152.373 39.6338 151.694 37.1033C151.016 34.5727 147.511 32.7259 145.858 31.3637C144.205 30.0014 145.276 26.8947 142.939 25.3387C140.603 23.7827 137.787 23.395 135.94 24.0734C134.093 24.7518 133.996 26.2271 131.756 24.7518C129.516 23.2765 127.384 21.8389 123.981 23.4919C120.579 25.1449 119.895 30.976 121.935 32.532C123.976 34.0881 127.955 34.185 127.955 34.185Z" fill="white" stroke="#263238" stroke-width="0.75" stroke-miterlimit="10"/>
<path d="M145.847 31.3637C144.194 30.0068 145.265 26.8947 142.928 25.3387C140.592 23.7827 137.776 23.395 135.929 24.0734C134.082 24.7518 133.985 26.2271 131.745 24.7518C129.505 23.2765 127.373 21.8389 123.97 23.4919C120.568 25.1449 119.884 30.976 121.924 32.532C123.965 34.0881 127.955 34.185 127.955 34.185C127.955 34.185 130.873 32.8228 132.801 31.7567C134.728 30.6906 139.122 32.4351 139.897 33.1189C140.672 33.8027 139.509 33.3128 139.316 34.5727C139.122 35.8326 141.55 37.884 142.621 38.8801C143.693 39.8761 142.428 40.533 142.137 41.7983C141.846 43.0636 143.009 43.5482 143.693 43.0636C144.377 42.579 146.509 39.8331 147.29 41.4106C148.07 42.9882 149.233 45.2981 147.096 46.951C144.958 48.604 143.397 48.2163 143.397 48.2163C143.397 48.2163 142.702 52.4268 144.721 52.7552C145.769 50.8264 146.918 48.9537 148.162 47.1449C150.111 44.5227 152.345 39.6608 151.667 37.1302C150.989 34.5996 147.5 32.7259 145.847 31.3637Z" fill="#263238" stroke="#263238" stroke-width="0.75" stroke-miterlimit="10"/>
<path d="M133.204 39.3374C133.825 39.1059 134.487 39.0068 135.148 39.0467" stroke="#263238" stroke-width="0.5" stroke-miterlimit="10"/>
<path d="M128.229 40.2964C127.75 40.3979 127.286 40.5646 126.851 40.7917" stroke="#263238" stroke-width="0.5" stroke-miterlimit="10"/>
<path d="M128.262 37.6421C128.607 38.304 128.708 39.0667 128.547 39.7958C128.229 40.8726 125.219 43.2255 125.257 43.6832C125.295 44.1409 127.023 45.0993 126.991 45.4869C126.959 45.8746 126.851 46.5153 126.851 46.5153" stroke="#263238" stroke-width="0.75" stroke-miterlimit="10"/>
<path d="M134.841 40.684C135.192 40.684 135.476 40.3344 135.476 39.9033C135.476 39.4721 135.192 39.1226 134.841 39.1226C134.49 39.1226 134.206 39.4721 134.206 39.9033C134.206 40.3344 134.49 40.684 134.841 40.684Z" fill="#263238" stroke="#263238" stroke-width="0.5" stroke-miterlimit="10"/>
<path d="M133.603 41.1787C134.458 40.8208 135.369 40.6166 136.295 40.5757" stroke="#263238" stroke-width="0.75" stroke-miterlimit="10"/>
<path d="M131.358 36.4946C131.358 36.4946 133.441 34.5617 135.057 34.9493C136.672 35.337 137.286 36.893 137.027 36.8984C136.769 36.9038 135.95 35.7031 135.067 35.6116C134.184 35.5201 133.554 35.94 132.79 36.3277C132.025 36.7154 131.557 36.9846 131.358 36.4946Z" fill="#263238" stroke="#263238" stroke-width="0.5" stroke-miterlimit="10"/>
<path d="M128.402 38.0292C128.378 37.8978 128.326 37.7729 128.251 37.6627C128.175 37.5524 128.078 37.4592 127.964 37.3892C127.85 37.3191 127.723 37.2737 127.591 37.256C127.458 37.2383 127.324 37.2485 127.195 37.2862C126.242 37.4316 125.521 39.1653 125.812 39.1438C126.102 39.1222 126.42 38.0292 127.163 37.9269C127.906 37.8246 128.402 38.9876 128.402 38.0292Z" fill="#263238" stroke="#263238" stroke-width="0.5" stroke-miterlimit="10"/>
<path d="M126.787 48.7115C126.787 48.7115 128.31 48.5338 130.292 48.2861C132.273 48.0385 135.062 47.6508 135.525 46.2347C135.789 45.5487 135.908 44.8154 135.875 44.0811" stroke="#263238" stroke-width="0.75" stroke-miterlimit="10"/>
<path d="M134.804 43.9728C135.384 43.9254 135.968 43.9617 136.537 44.0805" stroke="#263238" stroke-width="0.75" stroke-miterlimit="10"/>
<path d="M142.966 50.9624C142.687 52.2749 141.917 53.4309 140.812 54.1929C139.046 55.3182 126.076 56.6051 126.506 56.7666C126.937 56.9281 128.622 57.7358 128.622 57.7358L129.128 62.3393C131.171 60.5309 133.443 58.9994 135.886 57.7842C140.182 55.5552 142.864 54.8175 142.966 50.9624Z" fill="#263238" stroke="#263238" stroke-width="0.5" stroke-miterlimit="10"/>
<path d="M150.202 113.834C150.202 113.834 147.79 113.716 147.187 113.597C146.584 113.479 144.656 111.664 143.811 111.788C142.966 111.912 141.404 113.597 140.801 115.019C140.198 116.44 139.956 117.173 139.956 117.173C139.956 117.173 137.802 119.1 138.879 120.403C139.956 121.706 141.173 121.248 141.173 121.248C141.173 121.248 141.894 122.454 142.858 122.573C143.573 122.652 144.292 122.694 145.012 122.697C145.636 122.888 146.288 122.97 146.939 122.939C147.454 122.826 147.945 122.622 148.388 122.336C148.899 122.396 149.414 122.265 149.836 121.97C150.278 121.62 152.415 119.434 153.519 118.309L154.17 117.636L150.202 113.834Z" fill="white" stroke="#263238" stroke-width="0.75" stroke-miterlimit="10"/>
<path d="M170.329 89.0066C170.329 89.0066 165.871 93.9493 164.406 96.3561C162.073 100.028 159.538 103.569 156.815 106.963C155.129 108.891 149.223 113.596 149.223 113.596C149.223 113.596 151.027 117.451 152.357 118.055C153.13 118.411 153.936 118.692 154.763 118.894L159.609 115.282C159.609 115.282 168.762 108.282 173.608 104.314C178.454 100.346 185.179 95.0315 185.663 92.7432C186.148 90.4549 185.782 89.2489 183.375 87.4398C181.877 86.3311 180.207 85.4762 178.432 84.9092" fill="white"/>
<path d="M170.329 89.0066C170.329 89.0066 165.871 93.9493 164.406 96.3561C162.073 100.028 159.538 103.569 156.815 106.963C155.129 108.891 149.223 113.596 149.223 113.596C149.223 113.596 151.027 117.451 152.357 118.055C153.13 118.411 153.936 118.692 154.763 118.894L159.609 115.282C159.609 115.282 168.762 108.282 173.608 104.314C178.454 100.346 185.179 95.0315 185.663 92.7432C186.148 90.4549 185.782 89.2489 183.375 87.4398C181.877 86.3311 180.207 85.4762 178.432 84.9092" stroke="#263238" stroke-width="0.75" stroke-miterlimit="10"/>
<path d="M152.976 110.583C152.976 110.583 154.052 115.886 157.794 115.886" stroke="#263238" stroke-width="0.75" stroke-miterlimit="10"/>
<path d="M100.458 71.5295C100.458 71.5295 100.953 75.7669 101.206 77.6783C101.278 78.6415 101.561 79.5771 102.035 80.4188C102.035 80.4188 98.1316 89.1413 97.9647 89.3944C97.7977 89.6474 93.7273 97.2876 93.0596 98.1976C92.392 99.1075 90.8198 102.02 91.8159 103.851C92.8119 105.682 94.3895 109.418 96.4678 109.499C98.5462 109.58 101.454 108.336 103.467 107.173C105.481 106.01 106.127 105.262 106.294 101.94C106.461 98.6175 106.375 92.6357 106.962 89.4751C107.549 86.3146 107.958 83.014 108.372 81.7487C108.787 80.4834 111.199 80.9196 112.028 80.4188C112.857 79.9181 113.606 78.8413 115.103 78.1736C116.401 77.6801 117.813 77.5661 119.173 77.8452C119.674 78.0121 120.584 77.2637 120.336 76.3484C120.088 75.433 118.425 74.9377 116.761 75.0992C115.097 75.2607 113.606 75.7669 113.191 75.5192C112.777 75.2715 112.362 70.8618 112.362 70.8618C112.362 70.8618 106.439 71.3626 104.383 71.4433C102.326 71.5241 100.458 71.5295 100.458 71.5295Z" fill="white" stroke="#263238" stroke-width="0.75" stroke-miterlimit="10"/>
<path d="M109.594 68.2886C109.594 68.2886 109.681 73.7751 109.681 74.2705C109.682 74.386 109.707 74.5001 109.754 74.6056C109.801 74.7111 109.869 74.8057 109.955 74.8835C110.04 74.9613 110.141 75.0207 110.25 75.0579C110.36 75.0951 110.475 75.1093 110.591 75.0997C111.011 75.0189 112.087 75.4335 112.34 74.1897C112.593 72.946 113.083 69.4516 112.836 68.6224C112.588 67.7933 110.343 67.4594 109.594 68.2886Z" fill="white" stroke="#263238" stroke-width="0.75" stroke-miterlimit="10"/>
<path d="M109.594 68.2884C109.594 68.2884 106.94 67.6262 106.192 68.0408C105.443 68.4554 106.606 74.3565 106.687 74.8518C106.768 75.3472 107.936 75.6002 108.431 75.4333C108.927 75.2664 109.681 74.938 109.681 74.2703C109.681 73.6027 109.594 68.2884 109.594 68.2884Z" fill="white" stroke="#263238" stroke-width="0.75" stroke-miterlimit="10"/>
<path d="M105.61 68.2079C105.61 68.2079 103.866 67.8741 103.365 68.4556C102.864 69.0371 102.703 69.8663 102.864 71.3631C103.084 72.8362 103.533 74.266 104.194 75.6005C104.528 76.1012 105.61 76.182 106.272 75.9343C106.935 75.6866 106.687 74.8574 106.687 74.8574C106.687 74.8574 106.353 74.5236 106.272 71.95C106.192 69.3763 106.192 68.0464 106.192 68.0464L105.61 68.2079Z" fill="white" stroke="#263238" stroke-width="0.75" stroke-miterlimit="10"/>
<path d="M102.703 69.2041C102.369 69.2849 100.291 69.371 100.21 70.2002C100.129 71.0294 100.872 74.9383 101.206 75.3529C101.54 75.7675 102.45 75.6006 102.784 75.4337C103.118 75.2667 103.699 75.0191 103.613 74.5183C103.527 74.0176 102.703 69.2041 102.703 69.2041Z" fill="white" stroke="#263238" stroke-width="0.75" stroke-miterlimit="10"/>
<path d="M103.365 85.6532C102.768 85.5581 102.206 85.3097 101.734 84.9321C101.262 84.5546 100.897 84.0609 100.673 83.4995C99.5314 86.0409 98.0777 89.2553 97.9808 89.4222C97.8139 89.6698 93.7434 97.3155 93.0757 98.2254C92.4081 99.1353 90.8359 102.048 91.832 103.879C92.8281 105.709 94.4056 109.446 96.484 109.527C98.5623 109.608 101.47 108.364 103.483 107.201C105.497 106.038 106.143 105.29 106.31 101.967C106.477 98.6454 106.391 92.6635 106.978 89.5029C107.258 87.9523 107.516 86.3693 107.732 85.0017C106.33 85.4897 104.848 85.7107 103.365 85.6532Z" fill="white" stroke="#263238" stroke-width="0.75" stroke-miterlimit="10"/>
<path d="M107.188 76.5151C107.188 76.5151 105.772 77.7589 105.61 78.8411C105.526 79.5327 105.672 80.2327 106.025 80.8333" fill="white"/>
<path d="M107.188 76.5151C107.188 76.5151 105.772 77.7589 105.61 78.8411C105.526 79.5327 105.672 80.2327 106.025 80.8333" stroke="#263238" stroke-width="0.75" stroke-miterlimit="10"/>
</svg>
