<?xml version="1.0" encoding="utf-8"?>
<!-- Generator: Adobe Illustrator 27.0.0, SVG Export Plug-In . SVG Version: 6.00 Build 0)  -->
<svg version="1.1" id="Layer_2" xmlns="http://www.w3.org/2000/svg" xmlns:xlink="http://www.w3.org/1999/xlink" x="0px" y="0px"
	 viewBox="0 0 468 144" style="enable-background:new 0 0 468 144;" xml:space="preserve">
<style type="text/css">
	.st0{fill:#FFFFFF;}
	.st1{fill:#ED1C24;}
</style>
<path class="st0" d="M119.24,74.74h6.24l-3.14,23.47c-0.42,3.11-0.95,5.3-1.58,6.59c-0.63,1.29-1.55,2.28-2.76,2.98
	s-2.62,1.05-4.23,1.05c-2.01,0-3.92-0.59-5.73-1.76c-1.82-1.18-3.29-2.85-4.42-5.02l4.95-3.01c0.87,1.36,1.74,2.34,2.6,2.95
	s1.62,0.92,2.28,0.92c0.71,0,1.26-0.27,1.65-0.81c0.39-0.54,0.69-1.73,0.88-3.55L119.24,74.74z"/>
<path class="st0" d="M135.64,74.74h5.66l5.64,23.18l11.5-23.18h5.38l0.45,33.26h-5.83l-0.27-19.9L148.3,108h-4.77l-5.07-20.89
	L133.16,108h-5.97L135.64,74.74z"/>
<path class="st0" d="M187.72,74.74h16.21l-0.77,5.9h-9.92l-1,6.87h10.02l-0.76,5.86h-10.02L189.47,108h-6.29L187.72,74.74z"/>
<path class="st0" d="M210.93,74.74h6.11L212.38,108h-5.99L210.93,74.74z"/>
<path class="st0" d="M225.05,74.74h5.45l12,22.61l3.09-22.61h6.09L247.16,108h-5.33l-12.15-22.86L226.55,108h-5.99L225.05,74.74z"/>
<path class="st0" d="M269.93,74.74h5.27l8.29,33.26h-6.06l-1.76-7.08h-13.2l-3.78,7.08h-6.72L269.93,74.74z M274.13,95.05
	l-2.66-10.96l-5.86,10.96H274.13z"/>
<path class="st0" d="M293.01,74.74h5.45l11.99,22.61l3.09-22.61h6.09L315.11,108h-5.33l-12.15-22.86L294.5,108h-6L293.01,74.74z"/>
<path class="st0" d="M355.17,79.05l-4.54,4.21c-0.98-1.13-2.18-2-3.6-2.61c-1.42-0.61-2.96-0.92-4.61-0.92
	c-2.32,0-4.54,0.59-6.67,1.78c-2.12,1.19-3.78,2.76-4.96,4.72C329.6,88.2,329,90.29,329,92.5c0,3.01,1.04,5.52,3.12,7.51
	s4.75,2.99,8,2.99c3.48,0,6.5-1.01,9.04-3.03l3.69,4.86c-3.78,2.67-8.16,4-13.14,4c-3.5,0-6.47-0.66-8.92-1.99s-4.42-3.27-5.9-5.84
	c-1.49-2.57-2.23-5.36-2.23-8.35c0-3.21,0.88-6.29,2.63-9.24c1.76-2.95,4.13-5.27,7.13-6.96c3-1.7,6.27-2.54,9.81-2.54
	C347.23,73.9,351.53,75.62,355.17,79.05z"/>
<path class="st0" d="M362.04,74.74h6.11L363.49,108h-5.99L362.04,74.74z"/>
<path class="st0" d="M386.2,74.74h5.27l8.29,33.26h-6.06l-1.76-7.08h-13.2l-3.78,7.08h-6.72L386.2,74.74z M390.39,95.05l-2.66-10.96
	l-5.86,10.96H390.39z"/>
<path class="st0" d="M408.57,74.74h6.28l-3.81,27.54h10.32l-0.72,5.72h-16.62L408.57,74.74z"/>
<path class="st1" d="M105.53,29.98c-6.29,15.67-16.02,38.48-15.83,78.49c-10.94-2.25-25.57-4.49-43.07,5.55
	C69.95,80.98,96.26,42.48,105.53,29.98z"/>
</svg>
